<svg viewBox="0 0 1198.82 1250.83" xmlns="http://www.w3.org/2000/svg" id="图层_1"><defs><style>.cls-1{fill:#ffb1ff;}.cls-2{fill:#97ebff;}.cls-3{fill:#ffcc4d;}.cls-4{fill:#fff;}.cls-5{fill:#bfb6ff;}.cls-6{fill:#b2d812;}.cls-7{fill:#ecc1d3;}.cls-10,.cls-11,.cls-12,.cls-8,.cls-9{fill:none;stroke-width:10px;}.cls-8,.cls-9{stroke:#fff;}.cls-11,.cls-12,.cls-8{stroke-linecap:round;}.cls-11,.cls-8{stroke-linejoin:round;}.cls-10,.cls-12,.cls-9{stroke-miterlimit:10;}.cls-10,.cls-11,.cls-12{stroke:#231815;}</style></defs><title>1网球兔-rgb</title><rect height="1198.82" width="1198.82" class="cls-1"></rect><path transform="translate(-0.59 -1.23)" d="M309.2,804.65S192.25,875.11,196.64,889.2c9.36,23.84,33.27,57.73,42.29,66.86-10.25,29.54-42.77,144.22-35.58,153.21s285,110,468.66,90.63,208.9-9.51,312-51.24c8.94-20.19,1-28.13,1-28.13l-7.16-66.65,10.28-88.49,34.3-26.45S1006,853.26,922.32,823.05,309.2,804.65,309.2,804.65Z" class="cls-2"></path><path transform="translate(-0.59 -1.23)" d="M203.35,1109.27s201.16,89.43,397.54,90.11c145.37.67,341.83-24.87,383.07-50.72,4.9,10,.19,103.41.19,103.41L196.64,1211Z" class="cls-3"></path><path transform="translate(-0.59 -1.23)" d="M470.91,370.79s87.72-195.33,224.92-260.24c16.91,28.09,23.18,53,23.18,53s22.74-33.43,83.11-58.09c12.34,18,88.78,113.07,41.7,341.27-40.22,3.82-147,14.37-266-27.81C545.52,425.85,503,447.68,483,396.84l24.28-.4Z" class="cls-3"></path><path transform="translate(-0.59 -1.23)" d="M838.73,470s74.49,98.85,101.35,220.62c20.82,104.32-22.39,171-69.26,180.24L858,856.32s-25.93-33.48-93.48-19.56c-44.87,15-57.56,50.38-60,65.57-20,.89-329.08,22.84-404.16-111.35-56.93-104.72-49-236.3,87.64-351.36,53.28,22.2,140,53.89,212.6,40.28s87-15.72,87-15.72Z" class="cls-3"></path><path transform="translate(-0.59 -1.23)" d="M897.37,985.14H865.81l-13,7s-11.88-13.37-21.64-8.15-10.51,13.53-10.51,13.53l6.59,14.64s-51.19,15.86-77.5-5.9c-22.17,10,19.68,46.84,19.68,46.84s76.58,39.16,160.23,19.29,95.34-59,82.47-123.41C974.33,973.35,973.05,984.68,897.37,985.14Z" class="cls-3"></path><path transform="translate(-0.59 -1.23)" d="M196.64,897.16l42.29,58.9-21.14,54.82-14.44,28.83-10.5,14.17s-9.34,20.76-21.81-32c-10.92,13.72-40.73,24.92-40.73,24.92S76.17,984.47,196.64,897.16Z" class="cls-3"></path><path transform="translate(-0.59 -1.23)" d="M309.2,804.65s-4.56-38.29,61.21-52.82,106.51-42.89,127.52-98.45,25-66.44,47.38-67.24,42.78,18.93,60.93,85.61,110.47,160.5,158.27,165c0,0-58.16,30.25-60,65.57C681.08,901.7,412.39,921.91,309.2,804.65Z" class="cls-4"></path><ellipse ry="78.94" rx="53.51" cy="596.73" cx="452.81" class="cls-2"></ellipse><ellipse ry="139.13" rx="78.52" cy="617.8" cx="684.18" class="cls-5"></ellipse><path transform="translate(-0.59 -1.23)" d="M309.2,804.65S340.57,910.93,451.86,950c43.27-30.12,51.85-32,51.85-32l-15.38,93,39.31,6.78,17.67-93.47,39.4,50.36s83.75-7.65,122.38-18.71c-9-36-1.91-58.68-1.91-58.68S452.06,926,309.2,804.65Z" class="cls-4"></path><path transform="translate(-0.59 -1.23)" d="M208.35,1066.39s157.52,79.75,357.08,85.09,339.46-21.5,417.48-50c5,34,1.05,47.22,1.05,47.22s-256.67,79.3-458.36,46c-232-30.57-337-84.1-322.25-85.39Z" class="cls-4"></path><path transform="translate(-0.59 -1.23)" d="M851,407.29s20.11,9.62,10.47,39.43c-2.22,14.19-13.08,17.46-13.08,17.46l-74,5.83-86.75-5.83S486.42,537.05,306.52,390c-86.92-73.36-85.21-139.21-85.21-139.21l264.75,80.59-15.15,39.42,41.8,25.13-29.73.92s14.28,54.05,94.86,22.07c62.43,14.5,175.5,43.16,266,27.81C844.36,427.74,851,407.29,851,407.29Z" class="cls-2"></path><path transform="translate(-0.59 -1.23)" d="M859,992.13s77-74.84-16.42-147.83C754.79,798.34,695.11,885.86,703,932s46.7,74.22,46.7,74.22,45.76,25.92,77.5,5.9c-6.59-14.64-10.4-32,3.92-28.17S859,992.13,859,992.13Z" class="cls-6"></path><path transform="translate(-0.59 -1.23)" d="M171,1021.91l-106.3,65.74v21.62l47.13,49.38h13.82L211,1062.14l3.36-44.48s-5.78,34.77-21.54,36.22-21.91-14.82-21.81-27.09" class="cls-6"></path><path transform="translate(-0.59 -1.23)" d="M861.44,276.48s131.36,9.81,194.9,125.89,67.88,269.18-112.87,430.18c35.21,26.65,40.68,32.78,40.68,32.78s249.41-213.77,130.78-464c-85.75-161.8-216.26-165.81-262.12-169.47Z" class="cls-6"></path><path transform="translate(-0.59 -1.23)" d="M742.22,372.4c-13.94,10.93,16-261.85,80.09-234.67,15.25,14.05,32.82,93.52,36.91,167.66s-5.31,143-15.4,141.33H822.31S750.06,378.28,742.22,372.4Z" class="cls-7"></path><path transform="translate(-0.59 -1.23)" d="M945.45,830.85c69.94-54.31,176.93-196.19,145.17-343.62A256.48,256.48,0,0,0,1075,438.67C1036.73,350.87,975,310.55,927.32,292c-38.69-15-68.1-15.67-68.1-15.67l234.52,281" class="cls-8"></path><line y2="485.99" x2="1090.03" y1="293.49" x1="933.35" class="cls-9"></line><line y2="612.96" x2="1086.42" y1="345.93" x1="863.37" class="cls-9"></line><line y2="406.05" x2="852.21" y1="665.14" x1="1068.63" class="cls-9"></line><line y2="356.38" x2="1022.01" y1="492.85" x1="858.63" class="cls-9"></line><line y2="388.76" x2="1047.38" y1="530.6" x1="877.57" class="cls-9"></line><line y2="304.16" x2="955.65" y1="385.2" x1="858.63" class="cls-9"></line><line y2="285.67" x2="912.45" y1="328.92" x1="860.67" class="cls-9"></line><line y2="330.49" x2="988.26" y1="427.88" x1="870.44" class="cls-9"></line><line y2="424.07" x2="1067.63" y1="564.51" x1="899.49" class="cls-9"></line><line y2="462.95" x2="1083.94" y1="603.87" x1="915.23" class="cls-9"></line><line y2="508.28" x2="1093.8" y1="645.88" x1="929.07" class="cls-9"></line><line y2="559.4" x2="1095.13" y1="689.4" x1="939.49" class="cls-9"></line><line y2="624.59" x2="1083.23" y1="738.73" x1="944.86" class="cls-9"></line><line y2="797.11" x2="938.08" y1="704.07" x1="1049.47" class="cls-9"></line><line y2="705.58" x2="1043.56" y1="464.24" x1="841.98" class="cls-9"></line><line y2="745.15" x2="1022.1" y1="624.99" x1="921.73" class="cls-9"></line><line y2="772.86" x2="994.19" y1="713.79" x1="944.86" class="cls-9"></line><line y2="806.64" x2="971.1" y1="772.86" x1="942.88" class="cls-9"></line><path transform="translate(-0.59 -1.23)" d="M716.09,875.19s34.16,6.88,37.56,63.75,54.43,43.73,54.43,43.73,41.53-2,33.88-54.73-2.26-64.36,10.84-76.06" class="cls-8"></path><path transform="translate(-0.59 -1.23)" d="M945.45,830.85c69.94-54.31,176.93-196.19,145.17-343.62A256.48,256.48,0,0,0,1075,438.67C1036.73,350.87,975,310.55,927.32,292c-38.69-15-68.1-15.67-68.1-15.67" class="cls-10"></path><path transform="translate(-0.59 -1.23)" d="M838.73,470c51.39,70,79.46,145.9,86.14,164.09,12.47,34,54.42,175.75-36.29,227.91a176,176,0,0,1-17.76,8.86,93.14,93.14,0,0,0-166.31,31.46,1035.74,1035.74,0,0,1-103.92.5S279.7,908.5,268.36,697.6c-6.94-129,58.85-209.53,119.63-258" class="cls-11"></path><path transform="translate(-0.59 -1.23)" d="M619.46,341.41a245.6,245.6,0,0,1,31,1.29c72.71,9,127,54.43,171.84,106.18" class="cls-11"></path><path transform="translate(-0.59 -1.23)" d="M482.82,379.75A270.34,270.34,0,0,1,513,365.05" class="cls-11"></path><path transform="translate(-0.59 -1.23)" d="M615.88,341.75s64.64-192.93,186.24-236.3c19.67,22.12,92.36,153.25,41.7,341.27" class="cls-10"></path><path transform="translate(-0.59 -1.23)" d="M719,163.54s-5.33-37.69-23.18-53C661.89,123,549.1,198.5,470.91,370.79" class="cls-10"></path><path transform="translate(-0.59 -1.23)" d="M798.72,140.31s-73,84.83-56.06,236.3" class="cls-12"></path><polyline points="519.21 675.68 537.91 695.24 570.23 675.68" class="cls-11"></polyline><polyline points="537.91 695.24 537.91 733.79 512.12 749.09" class="cls-11"></polyline><line y2="757.03" x2="564.84" y1="733.79" x1="537.91" class="cls-11"></line><polyline points="525.02 741.44 525.02 787.08 551.38 787.08 551.38 749.09" class="cls-11"></polyline><ellipse ry="78.94" rx="54.43" cy="596.73" cx="453.4" class="cls-11"></ellipse><ellipse ry="139.13" rx="78.32" cy="617.8" cx="684.39" class="cls-11"></ellipse><line y2="633.49" x2="469.31" y1="564.51" x1="437.48" class="cls-11"></line><line y2="627.99" x2="428.86" y1="570.01" x1="477.93" class="cls-11"></line><line y2="685.46" x2="725.28" y1="564.51" x1="648.75" class="cls-11"></line><path transform="translate(-0.59 -1.23)" d="M827.24,1012.15A93.19,93.19,0,0,1,704.51,902.33" class="cls-11"></path><path transform="translate(-0.59 -1.23)" d="M870.82,870.87a93.12,93.12,0,0,1-11.6,121.26" class="cls-11"></path><path transform="translate(-0.59 -1.23)" d="M707.09,955.84c-68.62,17.68-124.37,18.71-124.37,18.71L525.6,897.68S489.18,923.52,454,950.74c-96.86-34.26-130.72-108.65-140.22-136.28a107.31,107.31,0,0,1-3.17-10.61s-60.38,34-114,85.35c6.81,13.91,11.45,38.17,42.29,66.86" class="cls-11"></path><path transform="translate(-0.59 -1.23)" d="M317,810.79S196.64,946.48,196.64,1211" class="cls-11"></path><path transform="translate(-0.59 -1.23)" d="M927.54,823.05s77,32.76,94.84,115.89a96.11,96.11,0,0,1-6.8,6.91A153.63,153.63,0,0,1,968.17,976,127.65,127.65,0,0,1,888,980.91c-1.71-17.42-4.68-26.91-4.68-26.91" class="cls-11"></path><path transform="translate(-0.59 -1.23)" d="M985,1222.86" class="cls-11"></path><path transform="translate(-0.59 -1.23)" d="M196.64,897.16s-112.25,74-66.33,149.67C157.53,1029,172,1021.32,172,1021.32L70.79,1085.1s-13.61,6.8,0,26.36S106.5,1154,106.5,1154s11.81,15.31,24.19,0S211,1057.87,211,1057.87" class="cls-11"></path><path transform="translate(-0.59 -1.23)" d="M171.13,997.51s-1.7,46.77,9.36,56.12,26.21-9,30.54-42.75l12.11-4.83" class="cls-11"></path><polyline points="503.96 911.64 487.74 1009.64 528.56 1016.68 544.72 922.96" class="cls-11"></polyline><circle r="6.91" cy="937.7" cx="520.14" class="cls-11"></circle><circle r="6.91" cy="979.68" cx="513.23" class="cls-11"></circle><path transform="translate(-0.59 -1.23)" d="M211,1066.39S527.64,1236.47,984,1101.14" class="cls-11"></path><path transform="translate(-0.59 -1.23)" d="M203.35,1109.27S527.64,1284,984,1148.66" class="cls-11"></path><path transform="translate(-0.59 -1.23)" d="M1012.12,949s47.67,129.33-142,128.48c0,0-52.73,0-95.25-21.38-44.68-22.47-25.17-49.82-25.17-49.82" class="cls-11"></path><path transform="translate(-0.59 -1.23)" d="M865.81,985.14s23.28.91,31.56,0" class="cls-11"></path><path transform="translate(-0.59 -1.23)" d="M842.09,1026.79s-33.16-32.8-17-41.24,44.23,19.61,44.23,19.61,20.4-10.26,34.86,8.05" class="cls-11"></path><path transform="translate(-0.59 -1.23)" d="M978.88,1053.88s18.81,109.74,5.08,173.23" class="cls-11"></path><path transform="translate(-0.59 -1.23)" d="M852.81,229.5s198.85,6.06,273.31,197.39-70.8,387.35-143.4,436.89" class="cls-11"></path><path transform="translate(-0.59 -1.23)" d="M510.27,394.45c-32.88-15-51.88-30.46-49.47-43,1.55-8,10.06-16.12,26.77-19.76L221.31,250.78s-5.11,128.9,220,211c88.44,31.12,219.26,29.32,266.88-16" class="cls-11"></path><path transform="translate(-0.59 -1.23)" d="M852.8,407.29c8.46,6.57,12.56,13.51,11,21.82-4.08,21.2-68.42,27.37-153,17-18.36-2.25-37.67-5.28-57.53-9.1-26.93-5.19-52.39-11.37-75.44-18.11" class="cls-11"></path><path transform="translate(-0.59 -1.23)" d="M684.06,462.08s121.18,18.6,175.16-1.17c8.38-10.49,4.54-31.8,4.54-31.8" class="cls-11"></path><path transform="translate(-0.59 -1.23)" d="M619.46,341.41s-35.89-29.7-41.18-59.93c-10.58,23.91-25.7,39.68,2.27,52.15-15.87-5.62-38.11.62-50.26-3.8a7,7,0,0,0-8.45,3.24c-8.54,15.22-17.26,41.76,12.6,59.9,0,0-40.55,6.86-50.27,2.77a.89.89,0,0,0-1.19,1.1c5.75,18.28,24.31,49.11,102.1,16.54" class="cls-11"></path></svg>