<svg viewBox="0 0 1200 1263.3" xmlns="http://www.w3.org/2000/svg"><defs><style>.cls-1{fill:#f94b85;}.cls-2{fill:#c0c9cc;}.cls-3{fill:#fff;}.cls-4{fill:#ffcadc;}.cls-5{fill:#6d4408;}.cls-6{fill:#3f2604;}.cls-7{fill:#bb832a;}.cls-8{fill:#ffcd00;}.cls-10,.cls-11,.cls-9{fill:none;}.cls-9{stroke:#fff;stroke-width:20px;}.cls-10,.cls-9{stroke-linecap:round;stroke-linejoin:round;}.cls-10,.cls-11{stroke:#231815;stroke-width:10px;}.cls-11{stroke-miterlimit:10;}</style></defs><title>10土豪兔-rgb</title><g id="图层_4"><rect height="1200" width="1200" class="cls-1"></rect></g><g id="图层_3"><path d="M525.34,356.68S453.6,369,296.73,468.46c-51.34,26.72-77.22,38.82-77.22,38.82S144.72,538.22,115,539.63s-22,43.07-22,43.07l15,37.7,31.2,18.38L156,659.92l47,18s40.37,6.4,67.92-32.35c1.16,64.71,6,115.72,6,115.72L261,921.64l-106.68-15L62.07,928.45,46.4,968.06l-9.33,1.79-9.32,17.77,5.57,35,13.08,44.2,107.89,32s65.86-26.37,68.13-28.49,715-3.54,715-3.54l11.48-329.23L937.41,663s121,46.74,188.31-24.57c53.67-53.18,45.26-91.32,45.26-91.32l-16-28.49-65.09,4.11-44.25-2.68s-93,1.86-168.95-63.42S713.87,343.5,654.81,344.75,525.34,356.68,525.34,356.68Z" class="cls-2"></path><path d="M558,598.28c25,5.16,32.6,25.68,37.7,64.72s75.12,71.62,75.12,71.62,132.38,44.18,148.53,70.43-35.71,99.29-35.71,99.29L430.27,930.08,322.76,816.84s-1.46-62,82.61-98.18,101.08-72.75,101.08-72.75S525,591.45,558,598.28Z" class="cls-3"></path><path d="M385.75,437.85,208.81,539.61s-80.79,23-82.49,46.78A97.22,97.22,0,0,0,133,628.83s29.12,47.9,84,49.07c45.26-8.78,56.84-30.55,57.36-35.39C274.29,642.51,267.59,541.88,385.75,437.85Z" class="cls-4"></path><path d="M990,906.62s96.27,95.89,84.44,236.49c-94.6,97.51-568.55,120.19-568.55,120.19L185,1241.76s-11.85-58.65,6.8-112.26,28.35-148,28.35-154.48,50.23-97.67,50.23-97.67,195.77,126.54,202,128.68S868.72,902.69,868.72,902.69Z" class="cls-5"></path><path d="M453.8,1118.13l2.55,95h195.5L645.91,1136s-76.6-8.94-84.5,17.25c-21.51,1.25-59.25,4.88-59.25,4.88l-26.89.9v-15.87Z" class="cls-6"></path></g><g id="图层_2"><path d="M668.59,353.38S665,186.23,698.28,91.51c-24.87-6.38-71.08-10.26-71.08-10.26L510.92,220.15l27.84,263.62h56.7S605.66,416.31,668.59,353.38Z" class="cls-7"></path><path d="M280.05,746.25s-40.83-12.5-49.8,0a262.25,262.25,0,0,0,0,31.77l-9.34,42.22-8.46,32.94,18.17,19.88,16.25,25L252.3,945l13.2,5.36,15.88,32.89,26.14-1,19.66,23,29.72,17.45.74,13.94,16.14,13.62,28.29,34.62,43.37,33.29H456.5l15.91,18.18,3.58,6.85-3.58,17,60.65-6.43,25,6.43,10.66-15.43,37.5-10.26,31.9,4.13,30-10s6.28-6.78,12.72-22.85,17.43-20.85,17.43-20.85l30.1-3.56,14.48-8.47v-17.08l51.4-2.92s20,.73,26.83-36.69,68-31.88,68-31.88S905,988.91,898.2,964s27.21-22.43,27.21-22.43l39.51-11.45,12.87-14.87,44-21.55,21.8-46.66,44.24-32.3-1.11-12.76L1073,757.14l-11.43-17.36-30.69-4.6h-13.48l-27.53-12.24H968.91l-20,23.31-12.12,12.48-22.68,1.14-2.63,42.07-13.24,1-34.81-3.81-15.08,10.62-6.7,17.57H817.1l-21,13-5.67,20.41-19.28,6.8-13.6-2.27-23.81-2.26-65.66,41.29L627,886.84l-9.35,14.37H595.46L565,904.34l-38.74-5-6.39-13.61-24.22-10.2-13.42-14.19s-7-5.41-30.25,17.43l-5.09-16.85L432,855l-29.89-1.83L385.75,835.7l-48.81-14.61-11.23-51.35-18-4.65Z" class="cls-7"></path><path d="M914.64,1149.44l-17.86-12-22.84,1.93-10.55,17-6.54,10.26,19.75,11.22L864.29,1200l10.1,37.22L1108,1263.3l2.27-63.3-2.39-24.72,15.43-26-6.15-16.56-14.92-6.65v-16.72l-5.58-5.46-28.34,24.45S974.17,1169.38,914.64,1149.44Z" class="cls-7"></path><path d="M223.33,992.56s25.94-8.95,39.44,0,30,14.92,30,14.92,7.69,17.55-9.76,27.83c13,17.28,16.67,23.84,16.67,23.84l7.89,23.23-9.92,9.89-21,7.78-6.26,10v12.16s-.78,31.64-57.25,24.56c-19.06,19-31.53,25.77-31.53,25.77l-28.77-6-7-5.46-21.33,11.43s-23.88,11.75-39-16.23l-11.42-12.91L46.4,1142l9.41-19.85-11.39-11.91-16.67-25.38,9.32-17.75L40,1045.27l16.65-13.79s28.56-7.72,38.77,38.92l23.81-5.53,31.74-1.13,16.9-1.76,9.18-5,11.22-20.34,18.06-13.94Z" class="cls-7"></path><path d="M541,734.62s10.78-53.3,54.45-31.78,42.64,27,42.64,27L686,743.44s35.77-.72,42.38-2S805.79,725,826.2,700.34C811.58,725.92,698.88,899.86,541,734.62Z" class="cls-7"></path><path d="M538.47,716.91s-16.53-39.29-57.44-9.22c-28.16,17.31-78.73,30-114.67-11.62-10.43,47.64,19.39,75.53,19.39,75.53s41.8,29.34,95.28-6.51c41.52-19.51,60-30.47,60-30.47Z" class="cls-7"></path><path d="M1050.7,630l23.73-9.64s16,48.29,15.4,49.37,0,42.17-9.65,47.14-39.12,1.49-49.32-39a38.64,38.64,0,0,1,20.41-3.07l2.83,11.06,6.37-16.12-9.2-36.33Z" class="cls-8"></path><path d="M1119.73,603.46s12-12.05,16-12,8.25,12,8.25,12l11,60.6s-5.59,24.38-8.43,21.83-31.36,9.91-44.31-27.5l23.52-20Z" class="cls-8"></path><path d="M408.37,853.17s-2.24,31.59,14.47,45.11l5.94,24.86L443.52,945l11.34,12.17,13.55,30.46,13.85,8.28,8.24,29.86,25.66,12.47,22,25.51,22.85,6.66,22.5,11.8,21.56-4.64,18.69-23.81,18.14-9.85,15.6-25,4.25-13.71,14.58-7.43L686,976.23V964.68l15.47-9.22L711.3,939l1.2-18.56s10.21-12.22,9.51-13.84,8.65-20.9,8.65-20.9l3-25.48-15.76-5.44-22.67,4.28-14.39,11.34-4.48,33.92-9,2.28-13,27.07L651.85,945l-18.41,11.6L627,978.7l-5.41,9.89-12.37,10.52-13.71,23.55-12.76,1.28-9.37-4-26.68-18.56-14.69-17-21-16.68-6.37-26.16s-20.35-12.72-19.15-14.42,7-27.07-22.81-39.33l-.93-12.26-7.86-1s-12.65-13.09-12.88-15.42S408.37,853.17,408.37,853.17Z" class="cls-8"></path><path d="M209.29,1004.65s.79-.51,2.16-1.58c6.86-5.37,28.07-24.89,34.22-64.62,7.37-47.62-33.78-85.84-33.78-85.84s-65.19-44.55-122,10.44c-23.37,26.64-28.49,63.07-27.82,65.4,18.87-7.54,31.67-9.76,31.67-9.76s37.54-8.85,56.47,1.2S174.56,941,174.56,941l9.89,43.41s15.3,27.48,24.94,22.81S209.29,1004.65,209.29,1004.65Z" class="cls-8"></path><polygon points="528.52 742.04 541.01 734.62 554.48 748 554.48 785.19 528.11 787.91 528.52 742.04" class="cls-8"></polygon><ellipse ry="78.23" rx="55.53" cy="598.28" cx="455.39" class="cls-8"></ellipse><path d="M765.8,617.42c0,45.74-12.65,86.29-32.12,111.38-12.95,16.68-26.29,15-43.57,15-18.72,0-38.54,0-52-19.29-17.65-25.29-28.93-63.85-28.93-107,0-76.17,35.06-137.92,78.31-137.92S765.8,541.25,765.8,617.42Z" class="cls-8"></path><path d="M436.72,894.07c9.65,0,9.66-15,0-15s-9.67,15,0,15Z" class="cls-3"></path><path d="M454.57,939.15c9.66,0,9.67-15,0-15s-9.66,15,0,15Z" class="cls-3"></path><path d="M481.79,981.67c9.65,0,9.67-15,0-15s-9.67,15,0,15Z" class="cls-3"></path><path d="M512.4,1025c9.65,0,9.67-15,0-15s-9.67,15,0,15Z" class="cls-3"></path><path d="M543.87,1058.2c9.65,0,9.66-15,0-15s-9.67,15,0,15Z" class="cls-3"></path><path d="M587.24,1074.36c9.65,0,9.66-15,0-15s-9.67,15,0,15Z" class="cls-3"></path><path d="M616.15,1025.89c9.65,0,9.67-15,0-15s-9.67,15,0,15Z" class="cls-3"></path><path d="M645.91,982.52c9.66,0,9.67-15,0-15s-9.66,15,0,15Z" class="cls-3"></path><path d="M673.13,942.55c9.65,0,9.66-15,0-15s-9.67,15,0,15Z" class="cls-3"></path><path d="M694.39,898.33c9.65,0,9.66-15,0-15s-9.67,15,0,15Z" class="cls-3"></path><path d="M1059.2,699.33c9.66,0,9.67-15,0-15s-9.66,15,0,15Z" class="cls-3"></path><path d="M1120.45,610.31a136.44,136.44,0,0,1,9.79,45c.41,9.61,15.41,9.66,15,0a148.53,148.53,0,0,0-10.32-48.94c-1.5-3.75-5-6.42-9.23-5.24-3.57,1-6.75,5.43-5.24,9.23Z" class="cls-3"></path><path d="M1131.49,678.93c9.65,0,9.67-15,0-15s-9.67,15,0,15Z" class="cls-3"></path><path d="M1057.08,647.9a246.84,246.84,0,0,1,6.25,28c.64,4,5.62,6.25,9.22,5.24,4.25-1.19,5.9-5.2,5.24-9.22a248,248,0,0,0-6.24-28c-2.64-9.27-17.11-5.33-14.47,4Z" class="cls-3"></path></g><g id="图层_1"><path d="M638.88,593.27c-4-4.25,6.77-93.8,56-75" class="cls-9"></path><path d="M456.5,550.67S434,547.28,432,600" class="cls-9"></path><path d="M948.66,746.24c1.55-34.68-4.31-61.15-11.25-83.24" class="cls-10"></path><path d="M525,898.09c46.23,6.64,80.15,6.25,80.15,6.25" class="cls-11"></path><path d="M522.3,362.67c-23.6,8.28-32.17,13.87-43.93,20.46-28.48,15.94-218.84,103.18-207.5,314.07a183.44,183.44,0,0,0,9.18,49" class="cls-11"></path><polyline points="522.3 676.51 541.01 696.07 573.33 676.51" class="cls-10"></polyline><polyline points="528.11 742.27 528.11 787.91 554.48 787.91 554.48 749.93" class="cls-10"></polyline><ellipse ry="78.94" rx="54.43" cy="597.57" cx="456.5" class="cls-10"></ellipse><path d="M646.48,733.29c-22.51-24.45-37.31-64.36-37.31-114.65,0-76.84,35.06-139.14,78.31-139.14s78.32,62.3,78.32,139.14c0,57.1-12.08,99.7-39.78,121.14" class="cls-10"></path><line y2="634.32" x2="472.41" y1="565.35" x1="440.58" class="cls-10"></line><line y2="628.83" x2="431.96" y1="570.84" x1="481.03" class="cls-10"></line><line y2="686.29" x2="728.38" y1="565.35" x1="651.85" class="cls-10"></line><polygon points="627.21 81.25 701.47 87.49 596.02 220.15 510.92 220.15 627.21 81.25" class="cls-10"></polygon><path d="M711.68,197.47" class="cls-10"></path><path d="M701.47,87.49s-40.25,154.2-32.88,265.89c-9.07,12.73-46.49,43.65-73.13,130.39h-56.7s-23.93-251.15-27.84-263.62" class="cls-10"></path><line y2="483.77" x2="595.46" y1="220.15" x1="596.02" class="cls-10"></line><path d="M646.48,220.15s-16.63,137.77-3,163.85" class="cls-10"></path><path d="M622.1,298.39s-4,93.95,6.5,108.2" class="cls-10"></path><path d="M568.81,321.63s-1.7,150.8,7.94,162.14" class="cls-10"></path><path d="M547.27,391.93s3.4,83,10.77,91.84" class="cls-10"></path><path d="M1059.35,672.68c-80,19.71-171.72-18.9-202-72.68-40.82-72.57-54.14-142-106-183.69" class="cls-10"></path><path d="M1125.72,638.43c-12.49,11.5-23.39,17.83-37.89,24.41" class="cls-10"></path><path d="M670.86,344.75s66.33,0,180.85,93.1c122.34,99.46,245.45,87.61,269.57,80.77,37.47-10.61,76,24.52,27.46,93" class="cls-10"></path><path d="M670.35,903.27c-3.41.06-32.25-14.14-32.25-14.14s-13.53-9.07-16.75,5.67-25.07,8.75-34.3,7.44c-44-6.22-29.31,11.56-18.25,22.92,5.37,5.51-21.54,15.63-14.17,41.71s-10.57,29.94-9.35,40.61c2,17.3-41.94,34.17-25.38,48.61,8.07,7,47.74,49.6,48,58.67s-.83,29.48-9.9,45.36c-1.13-18.14,42-30.62,63.31-23.81s55.74-1.14,59.5-30.62,32.53-24.94,32.53-24.94,24.94,4.53,29.48-7.94-25-19.27,22.94-17,49.63-22.67,55.29-39.68,37.42-34,51-34S902,993.44,898.2,964s17-21.54,17-21.54,49.89-5.67,54.43-17,26.08-21.94,26.08-21.94l26.08-9.81s21.54-49.89,24.94-51,51-23.81,42-37.42-13.61-40.13-13.61-40.13-4.54-30.17-28.35-30.47-28.34,4.84-39.68-5.37-21.55-4.53-30.62-6.25-34,33.46-40.82,34.77-9.07-1.31-19.27.1-4.54,47.35-4.54,47.35-14.74-2.27-24.94-4.53-34-5.67-36.29,9.07-9.07,20.41-15.87,18.14-35.15-3.4-37.42,17S767.2,871,765.8,867.58c-1-2.39-16.74-6.15-31.24-4.86" class="cls-10"></path><path d="M554.63,966.87s-8.5-18.14-18.71-29.48-12.47-5.67-10.77-28.35,3-11.76,3-11.76c-3.15-12.12-26.76-16.09-32.43-22.69s-10.21-18.35-23.27-11.54-18.45,19.54-24.35,4.53-21.55-13.6-34-12.47-25-17-25-17S357.35,825.63,346,823.36s-13.61-24.94-15.88-35.45-5.67-22.82-5.67-22.82-3.4,11.78-27.21-7.22-60.09-15.6-60.09-15.6-12.47-1.43-7.94,22.82-3.4,24.26-5.67,44.67S201.16,843.2,225,860.21s24.66,52.73,24.66,70.87,7.94,20.41,15.87,19.27,5.67,22.68,15.88,32.89,29.48-10.21,34,4.53,13.61,20.41,34,29.48-2.27,21.55,15.87,28.35,27.22,28.34,46.49,47.62,25,26.08,39.69,25,9,7.93,21,18.14-11.88,29.48,18.73,23.81,58.4-11.45,66.9,0" class="cls-10"></path><path d="M522.3,362.67c17-4.67-47.12-8.59-203.5,93.54-124.73,70.3-157.61,72.57-197.3,81.64s-35.15,35.65-20.41,64,78.71,76.42,111.36,77.43,58.39-33.73,58.39-33.73" class="cls-10"></path><path d="M153.29,653.09c-3.68,3.13-76-77.33,23.77-101.85,69.17-17,254.9-148.54,313.44-183.46" class="cls-10"></path><path d="M1119.73,643.41c2.7,14.51,5.67,10.51,5.67,10.51,7.37-15.31-5.67-50.46-5.67-50.46s-.42-12.81,20-12c0,0,31.44,79.35,4,91.84-25,11.34-38-15.14-41.48-24.94" class="cls-10"></path><path d="M1052.63,674.6c2.7,14.51,5.67,10.51,5.67,10.51,7.37-15.31-5.67-50.46-5.67-50.46s-.43-12.81,20-12c0,0,31.45,79.35,4,91.84-24.94,11.34-41.18-20.42-45.71-36.62" class="cls-10"></path><path d="M928.24,827.33" class="cls-11"></path><path d="M525.34,906.62" class="cls-11"></path><path d="M631.17,939" class="cls-10"></path><polyline points="648.31 1137.44 648.31 1213.13 547.82 1213.13 547.82 1156.9" class="cls-11"></polyline><polyline points="456.5 1118.13 456.5 1213.13 547.82 1213.13" class="cls-11"></polyline><path d="M990,906.62s98.13,111.77,82.82,218.92c-28.91,25.51-138.61,34-157.32,29.76,0,0-20.5-149.57-52.1-171.68" class="cls-11"></path><path d="M914.64,1149.44s-15.31-13.71-17.86-12-21.26-2.6-29.76,5.93-.85,11.71-9.36,17.77,10.43,9.88,18.94,16.68,5.72-.89-6.18,10.64-4.25,20.41,4.25,24.67,138.61,16.15,143.72,16.15,91.84-29.28,91.84-29.28,6-5.73,0-16.71,0-11.55,7.65-23.17,11.06-24.38-6-29.48-12.66-11.06-9.73-21.26-14.08-6.81-29.39,16.16" class="cls-11"></path><path d="M541.3,724.16c-9.38-28.91-31.45-35.73-50.8-22.12-85.68,54.42-125.22-8.5-127.77-10.21,0,0-.63,85.89,44.22,90.15,33.63,5.93,57.64-7.67,78.24-16.89,16.16-7.22,30-15.16,30-15.16L541,734.62V696.07" class="cls-10"></path><path d="M541.3,729.25s6.48-28.91,35.45-28.91,32.89,12.72,54.42,25.7c37.34,22.5,103.64,33.37,195-25.7-8.43,34-133,170.78-258.26,57.53L541,734.62" class="cls-10"></path><path d="M48.93,1036.6c-2-5.5-1.63-6.16-2.48-13.11-4.87-40-2.48-79,23.75-98.2,0,0,86.74-35.34,109.7,26.3,0,0,10.67,57.49,32.55,61.29" class="cls-10"></path><path d="M40,1045.27l16.65-13.79s21.26-.34,29.76,15,2.55,25.51,16.16,23,22.11-10.21,35.71-7.65,36.57,2.55,42.52-6.81-.85-14.62,14.46-23.47,15.6-17.35,22.25-28.4,4.11-15.31,22-13.61,19.56-.85,31.46,8.51,26.21,8.5,20.76,23.81-16.5,14.45-5.45,20.41,21.26,33.59,21.26,40.18-6.11,10-15.81,10.84-24.16,9.85-21.61,24.91-11.9,23.56-27.21,28.67-29.76,0-29.76,0-10.21,4.74-19.56,19.8-51.18-2.17-47.7-5.46-21.18,14.56-28.84,14.14-28.06-3.44-31.46-18.94S66.86,1141.69,55,1141.69s-2.55-9.35.86-19.56-9.77-5.81-17.22-18.21-16.8-19.2-4-33.66c9.9-11.22,6.87-19.37,5-22.45A2,2,0,0,1,40,1045.27Z" class="cls-10"></path><path d="M209.84,1005.21A93.32,93.32,0,1,0,62.62,929" class="cls-10"></path><path d="M185,1175.28s-7.65,46.35,0,54" class="cls-10"></path><path d="M40,1045.27S20,987,31.08,975.9s8.52-9.7,15.32-7.84" class="cls-10"></path><path d="M462,870.3c5.68,16-2.28,34.13-26.09,34s-30.5-51.17-30.5-51.17" class="cls-10"></path><path d="M463.71,885.72" class="cls-10"></path><path d="M422.84,894.87" class="cls-10"></path><path d="M462.59,887.78c7.49,2.28,13.17,6.26,18.6,16.55,8.3,15.69,4,34.26-9.68,41.47s-30.66,5.13-38.95-10.56c-5.16-9.77-6.2-21.17-4.51-30.9" class="cls-10"></path><path d="M486.55,930.08c7.69,1.5,13.74,4.86,20.22,14.53,9.87,14.75,7.49,33.67-5.33,42.25s-30,8.29-39.84-6.46c-6.15-9.18-8.36-20.41-7.69-30.26" class="cls-10"></path><path d="M512.75,972.71c7.8.73,14.16,3.48,21.56,12.46,11.28,13.7,10.78,32.76-1.12,42.56s-29,11.22-40.29-2.48c-7-8.53-10.33-19.48-10.64-29.35" class="cls-10"></path><path d="M561.05,1068.53c-9,3.65-17.54,2.08-26.31-5.84-8.2-7.4-13.09-17.75-14.84-27.47" class="cls-10"></path><path d="M546.65,1007.81c7.82-.43,14.52,1.36,23.16,9.15,3.57,3.23,4.41,3,6.35,7" class="cls-10"></path><path d="M734.43,868.09s-6.68,51.07-30.49,51.16-27.7-11.13-27.42-19.37c0,0-5.47-51.57,48.57-44.39C737.57,856.62,734.43,868.09,734.43,868.09Z" class="cls-10"></path><path d="M674.83,902.69c-7.5,2.29-10.78,6.26-16.22,16.55-8.29,15.69-4,34.26,9.68,41.47s30.66,5.13,39-10.56c5.17-9.77,6.2-21.17,4.51-30.9" class="cls-10"></path><path d="M653.26,945c-7.69,1.5-13.75,4.87-20.22,14.53-9.88,14.75-7.49,33.67,5.32,42.25s30,8.29,39.84-6.46c6.15-9.18,8.36-20.41,7.69-30.26" class="cls-10"></path><path d="M627.06,987.62c-7.8.73-14.16,3.48-21.56,12.46-11.29,13.7-10.79,32.76,1.12,42.57s29,11.21,40.28-2.49c7-8.53,10.33-19.48,10.64-29.35" class="cls-10"></path><path d="M593.15,1022.72c-7.82-.43-14.52,1.36-23.15,9.16-13.18,11.89-15.48,30.82-5.15,42.27s27,15.35,40.21,3.45c8.21-7.4,13.09-17.75,14.84-27.47" class="cls-10"></path><path d="M156,865.31c-22.58-7.57-52,7.38-55.42,26.08" class="cls-9"></path><circle r="12.65" cy="635.32" cx="642.16" class="cls-3"></circle><path d="M438.42,887.37c3.21,0,3.22-5,0-5s-3.23,5,0,5Z" class="cls-3"></path></g></svg>