<svg viewBox="0 0 1200 1241.62" xmlns="http://www.w3.org/2000/svg"><defs><style>.cls-1{fill:#ff7db2;}.cls-2{fill:#fff;}.cls-3{fill:#ffe75a;}.cls-4{fill:#80e7ff;}.cls-5{fill:#bdff83;}.cls-6{fill:#ffccde;}.cls-7{fill:#dcfaff;}.cls-8,.cls-9{fill:none;stroke:#231815;stroke-width:10px;}.cls-8{stroke-miterlimit:10;}.cls-9{stroke-linecap:round;stroke-linejoin:round;}</style></defs><title>11女仆兔-rgb</title><g id="图层_3"><rect height="1200" width="1200" class="cls-1"></rect></g><g id="图层_2"><path d="M207.64,1236.62c-22.44-70.06,7.55-190,7.55-190l-14-26-25.88-3-27-15.06-16.84-31.27s-11.9-5.7-8-66.25c16.68-75.85,117.06-105.43,117.06-105.43l29.21-7.35,13-27.81-10.66-31.38-31.6-141.65L220,588l-46.94,0L177,572.28l-1.06-30.87L174.19,511,182,495.24l22.25,4.94,21.6-27.94c21.61-27.93,19.46-57.63,19.46-57.63l-20.16,4.66-2.5-8.3c1-39.36,98.21-106,98.21-106l25.63-7.79s-6.53-47.06-6.53-53S361,145.88,433,85.06c62.63-47.21,148-5.52,148-5.52S666.61,44.69,717.58,74c76.78,47.13,66.3,154.85,66.3,154.85L775.18,305,814.3,317.6l23.16-2.24s1.61-11.45,6.6-20.71c31.46-9.41,92.46,78.48,92.46,78.48L951.86,411S944.4,427.36,923.57,421c-6.37,34.49,17.48,61,34.07,80.76,28.54-18.52,33.64,6.57,33.64,6.57V583L959.71,747.91S941,808.34,926.59,837.13c76.58,32.19,90.1,60.5,111.18,76.38s19.17,53.86,19.17,53.86l-3.73,20.93-15.94,17.5,10.88,11.89-13.56,25.63,42,92.32h19.2l30.62,14.56-6.78,22.45-21,8.6-50.48,6.5-43.41-.41v33.12l-797.9,12.74" class="cls-2"></path><path d="M818.61,717.13s7.56-29.22,25.15-30.09,18.8,15,18.8,15l-6.88,40.78-32,27.69s-56.34-21.61-42.52-63.2c15.61-3.36,22.25-.75,22.25-.75l17.22,12.74" class="cls-1"></path><path d="M356.14,707.68s8.58-29.09,22.18-30.12,23.44,15.06,23.44,15.06l-7.56,40.52-28.92,27.75-14.9-5.75s-38.8-25.89-35.76-49.7S356.14,707.68,356.14,707.68Z" class="cls-1"></path><path d="M487.74,401.53s-39,59.78-7,101.63,42.62,43,42.62,43L546.08,571s8.07,26.8,2.79,32.22S577.3,571,577.3,571s36.85-52.39,45.08-90.56,1.38-49.18,1.38-49.18l9.65,18.53s5.56,36.57,4.05,41.84-2.89,16.75-2.89,16.75h24.95s37.63-9.85,38.14-10.09,32.56-25.2,34.7-28.49S749.23,440,749.23,440l5,37.06-3.62,31.36-13,21.66-2.35,8.07,18.94,3.31,42.44,1.18L819,527.43l14.17-19.06,12.34,48.09s9.07,37.86,0,61.67-19.55,36-19.55,36l43.35,6,3.94,13.15,12.6,81.9L897.21,789l20.35,22.49,21.46,6,20.57-3.92L976,803.81l25.55,22.75s31.62,19.11,55.47.63,76.14-55.93,25.86-120.59c26.25-23.84,30.82-52.18,30.82-52.18s2.22-39.58-33.48-46.49-85.61-18.71-85.61-18.71l-60.2-1.17v30.34l-6.62,20.49-17.4-35.67S845.84,444.38,750.7,390.38,537.63,340.9,537.63,340.9s-127,9.66-148,56.71l-9,16.47-34.25,9.62-46.83,44.84L286,494.78l-27.27,34.45-18.23,62.26L173.09,588l5.11-24.92L71.35,586s-38.1,21.32-34.79,68.13c13.51,37.17,36.15,47.61,36.15,47.61l-11,17.63-6,35.8,15.83,30.71L102,818.64l26,7,21.88-11.06,26,11.06L220,812l30-29.59,19.68-37.3,2-21.55-.18-69.48,47.24-7.62,24.9-22.2-10.16-13.52,1.21-40.43,34.31.66,12.38-7.88S367,529.13,367,526.86s9.64-39.12,9.64-39.12l5.43-9.18,19.71,20.52,44.64,12.85,9.63.15-7.17-20.46S441.82,463.29,487.74,401.53Z" class="cls-3"></path><path d="M555.53,340.81s103.14-49.51,233.25,41.48C846.61,430.76,907.57,514.12,932.37,600c-.26,25.38-.43,25.94-2.52,32.41s-5.83,4.42-5.83,4.42S846.12,336.74,555.53,340.81Z" class="cls-1"></path><ellipse ry="76.87" rx="51.76" cy="600.69" cx="459.73" class="cls-4"></ellipse><path d="M766.75,621.57c0,76.94-35,139.32-78.22,139.32s-78.21-62.38-78.21-139.32c0-47.14,13.14-88.81,33.26-114,8.77-11,26.38,2.91,37.29-.91,4.91-1.72,16-7.18,21.17-7.18,7.75,0,1.74-15.2,8.81-11.46,12.18,6.45,23.11,18,32,33.34C745,525,733.42,534,735.3,538.1c1.27,2.74,16.06.41,17.21,3.31C761.48,564.08,766.75,591.73,766.75,621.57Z" class="cls-5"></path><path d="M674.87,169.34l13.66,59.46L625,227.27S653.94,166.73,674.87,169.34Z" class="cls-6"></path><path d="M498.53,755.85l30.64-5.16V789l13.37,1.06,9.83,3L555.53,754s16.72,9.6,28,3.93c-3.14,30.89-7.26,48.3-19.65,57s-22.87,8.72-22.87,8.72S508.46,836,498.53,755.85Z" class="cls-6"></path><path d="M769.76,905l50.9-9.43s4.31,259.72-76.73,329l-47-2.14S776,1148.94,769.76,905Z" class="cls-7"></path><polygon points="346.44 845.13 382.05 866.81 385.13 926.52 346.44 924.28 346.44 845.13" class="cls-7"></polygon><path d="M358.11,1061.15l39-10.37s22.28,113.86,32.19,131.72,28.19,42.12,28.19,42.12l-55.8-4.16S359.56,1133.74,358.11,1061.15Z" class="cls-7"></path><path d="M269.72,792.33s-111,32.77-133.59,85.19-14.65,99.72,8.1,117.63,52.35,26.57,52.35,26.57l-4.73-26.57-3.42-39.69s23.31-50.82,87.75-67.5c-5.29-15-7.71-21.15-7.71-21.15S261.71,835,269.72,792.33Z" class="cls-7"></path><path d="M902.91,1068.16s107.74-13.85,150.3-79.86C1064.31,929.09,1030.34,881,924,840.41l-18.74,17.25s-7.59,45.42-7.62,46.94-2,18.51-3.58,21.92-22,36.74-22,36.74l-9.52,28.48,13.81,20.69,24.54,9.29Z" class="cls-7"></path><path d="M215.19,1040.32s33.12,27.92,61,25.1c2.36,21,15.92,56.95,15.92,56.95l22.52,7.42,9.34,10.88-7,47.08-18.85,36.87-93.65-4.16S191,1120.07,215.19,1040.32Z" class="cls-7"></path><path d="M404.4,1048.15s160.3,67.72,354.4-4.83c-4.89,47.35-18.06,98-18.06,98S541.07,1208,417,1142.55c-10.94-65.49-20-91.77-20-91.77Z" class="cls-6"></path><path d="M1004.74,1187.34s6.56,29.19-5.63,41.09-136.55-5.62-136.55-5.62l9.52-6.74-21.38-28.73s-20.62-39.19,0-46.67l20.6-7.48,14.45-.72,11.94-41.8,11,6.8,11,28.21S944,1189.16,1004.74,1187.34Z" class="cls-7"></path><path d="M525.56,916.51s-24.34,132.7-14.07,154.28c81.68,5.7,247.31-27.47,247.31-27.47l10.36-68.26L696.9,990.58l-107.72-5.36Z" class="cls-7"></path><path d="M505.34,910.39l-14.8,158.49-86.14-20.73L441.63,1033s35.83-23.64,39.27-37.83-5.52-53.94-5.52-53.94Z" class="cls-7"></path></g><g id="图层_1"><path d="M926.59,643.75c-12.48-34-99.78-269.86-274.4-291.4-6.77-.72-21.74-5.53-28.43-5.62" class="cls-8"></path><path d="M902.91,860.72c17.1-12.66,26.44-25,33.61-43.22" class="cls-8"></path><path d="M476.87,898.5c67.51,15,125.44,14,125.44,14s124.08,7.31,221.15-16.77" class="cls-8"></path><path d="M330.15,831.31c23.69,22.52,47.2,33.89,77.82,46.21" class="cls-8"></path><path d="M271.56,654.1a319.48,319.48,0,0,0-1.48,53.14c1.17,21.75,5.63,37.19,12.69,54.57" class="cls-8"></path><polyline points="523.35 682.15 542.06 701.71 574.38 682.15" class="cls-9"></polyline><path d="M542.06,740.26l13.15,13.4a24.23,24.23,0,0,0,20.53,7.23c6-.83,11.91-4,13.44-13" class="cls-9"></path><polyline points="529.16 747.91 529.16 793.55 555.53 793.55 555.53 755.57" class="cls-9"></polyline><ellipse ry="78.94" rx="54.43" cy="603.21" cx="457.55" class="cls-9"></ellipse><path d="M753.46,546.45c8.45,22.21,13.39,49,13.39,77.83,0,76.84-35.06,139.13-78.32,139.13s-78.31-62.29-78.31-139.13c0-46.7,12.95-88,32.81-113.26" class="cls-9"></path><path d="M714.42,492.92c11.45,7.12,18.68,15.83,27,30.89" class="cls-9"></path><line y2="639.96" x2="473.46" y1="570.99" x1="441.63" class="cls-9"></line><line y2="634.47" x2="433.01" y1="576.48" x1="482.08" class="cls-9"></line><line y2="691.93" x2="729.43" y1="570.99" x1="652.9" class="cls-9"></line><path d="M778.13,310.26C790.6,223.17,792.46,95,700.28,67,560,24.5,418,219.24,505.54,289c45.07,27.21,109.7-40.82,134.36-84.19s51.87-42.52,68-32.32" class="cls-9"></path><path d="M583.57,81S416.25-18.87,344,232.84c-11.9,45.07,1.7,92.7,50.18,101.2s87.94-79.18,87.94-79.18" class="cls-9"></path><path d="M674.87,169.34s8.78,21.24,13.66,59.46" class="cls-9"></path><path d="M490.54,742.82s1.94,9.42,13.12,12.32a23.64,23.64,0,0,0,17.94-2.74l20.46-12.14V701.71" class="cls-9"></path><path d="M503.66,755.14s-6.45,70.45,38.69,67.62,39.13-63.59,39.13-63.59" class="cls-9"></path><path d="M356.14,707.68s-24.94-23.25-37.41-9.78,4,44.35,42.52,63.21c30-18.55,56.05-68.86,29.48-81.48C368.05,668.86,357.28,703.42,356.14,707.68Z" class="cls-9"></path><path d="M818.61,717.13s-24.94-23.26-37.42-9.78,4,44.34,42.52,63.2c30-18.55,56.06-68.85,29.48-81.48C830.52,678.3,819.74,712.87,818.61,717.13Z" class="cls-9"></path><path d="M269.72,792.33C223.46,798.78,143,841.12,128.08,897c-16.34,61.11,13.79,102.61,39.87,116.22,0,0,11.57,10.54,33.57,8.1" class="cls-9"></path><path d="M461.74,918s-16.73-45.8,7.08-45.8c15.49,0,15.28,60.55,6.56,69.06" class="cls-9"></path><path d="M196.3,1009.85s39.09-81.63,113.07-89.28c0,0,4.79.64,12.15,1.45,23.19,2.54,71.94,6.73,77.14-2.3,6.85-11.91-.78-40.18,11.52-56.23s31.56,3.4,38.51,28.54,33.74,43,31.83,84.66c-.32,6.8,16.79,60.38-145.64,88.44s-146-110.62-146-110.62,32.89-67.11,110.4-64.11c26.24,3.8,37.29,9.76,29.64,30.17" class="cls-9"></path><path d="M215.19,1040.32s-25.69,122.6-7.55,196.3" class="cls-9"></path><path d="M382.05,411s-146.16,50.09-75.12,146.47c0,0,33,27.21,75.12,7.93-7.12-28.34-28.89-38.3,0-86.81" class="cls-8"></path><path d="M334.66,570.31s-11.37,43.7,9,54c-13.61,17.06-104.31,67.12-103.18-30.56,0-59,46.93-102.1,46.93-102.1" class="cls-8"></path><path d="M542.54,340.78s162-68.51,293.82,87.11c62.93,75.69,80.22,126.43,92.41,160.16,31.48,87.11-78.63,75.68-108.11,64.28,53.29-40.89,11.73-145.92,11.73-145.92-21.54,64.58-103,29.48-103,29.48,42.18-22.67,17.92-103.18,17.92-103.18-18.14,90.71-116.12,73.7-116.12,73.7,21.08-31.75-8.6-80.5-8.6-80.5,21.54,89.57-80.09,184.82-80.09,184.82,22-43.09-16.93-60.1-16.93-60.1C425.19,479.2,490.54,402.1,490.54,402.1s-62.78,70.3-34.51,110c0,0-102.89,5.67-76.88-94.11,39.68-107.72,244.61-71.24,244.61-71.24" class="cls-9"></path><path d="M928.77,588.05h70s-11.06-3.69-9.36-36.85,9.36-70.58-25.65-51" class="cls-9"></path><line y2="520.31" x2="899.81" y1="520.31" x1="991.28" class="cls-9"></line><path d="M864.23,460.65c3.6-2.14,81.31-59.12,81.31-59.12-62.2,9.07,12.37,130.2,45.74,112.19" class="cls-9"></path><path d="M923.57,421s39,14.39,25.43-23.76C930.6,345.45,827,251,838.32,323.76" class="cls-9"></path><line y2="374.32" x2="783.88" y1="313.76" x1="854.04" class="cls-9"></line><path d="M714.35,237.05s-24.16,4.9,1.17,37.1c18.79,20.8,59.79,42.8,116.82,44.78,31.36,1.08,25-16.42,19.54-19.38" class="cls-9"></path><line y2="331.63" x2="692.13" y1="250.16" x1="703.19" class="cls-9"></line><path d="M706.76,261.18s61.11-7,7.59-24.13c-25.55-8.18-58.73-10.62-89.31-9.53" class="cls-9"></path><line y2="326.83" x2="591.29" y1="272.87" x1="580.98" class="cls-9"></line><path d="M240.66,588.05H166.82s13.38-3.69,11.32-36.85-16.32-70.58,26.06-51" class="cls-9"></path><line y2="520.31" x2="264.15" y1="520.31" x1="175.91" class="cls-9"></line><path d="M314.62,451.77c-4.35-2.14-83.34-50.24-83.34-50.24,44.9,13-38,133.19-55.37,112.19" class="cls-9"></path><path d="M241.88,413s-31.19,22.39-14.79-15.76c16.63-38.68,88.53-101.1,119.35-100" class="cls-9"></path><line y2="368.31" x2="418.57" y1="334.04" x1="394.14" class="cls-9"></line><path d="M443.19,315.36c35.12-4.45,59.48-11.73,77.78-20.71" class="cls-9"></path><path d="M192.33,588.05S43.23,660.1,109,734.88c79.44,77.67,132.87-88.38,136.27-100.41" class="cls-9"></path><path d="M130.75,750.69S102.17,768,142.58,808.4c25,25,54.57,12.35,60.21,9.58l1-.49s52.82-15.24,68.37-84.35" class="cls-9"></path><path d="M92.24,695.77s-67.95,21-18.68,93.22c0,0,40,63.25,74.7,24.4" class="cls-9"></path><path d="M175.91,563.11s-74.28,8-109.15,24.94c-18.71,9.07-60.38,79.65,5.95,113.66" class="cls-9"></path><path d="M956.27,588.05c6.38-2.51,127.12,106.31,141.16,140.73,14.86,36.4,2.5,69.57-34.86,94.86-30,20.28-57.66,20.78-104-41.14A412.32,412.32,0,0,1,906.26,689l-11.6-28.91" class="cls-9"></path><path d="M982.63,588.05s97.29,15.76,120.93,36.23,1.26,70.19-20.72,82.32" class="cls-9"></path><path d="M872.08,660.1s7.12,101.21,27.73,133.45C920.55,826,954,821.71,976,803.81" class="cls-9"></path><path d="M820.66,897.08s43.57-61.21,53.25-71.07c5.49-5.6,29.63-26.58,30.48,9.86s-5.95,91.41-17,105.34-26.73,34.34-21,57.3,49.26,4.25,33.44,75.68-14.13,58-43,64.28-8.5,47.6,3.4,65.46,20.87,10.58,4.06,16.53" class="cls-9"></path><path d="M278.74,1068.16c11.18,67.57,11.14,54.18,34.12,61,24.29,7.2,7.14,54.38-2.86,74.78s-17.53,12.07-3.41,18.87" class="cls-9"></path><path d="M343.2,853.44s-38.08-75.34-44.74-81.18c-4.53-4-15.53-23.22-25.61,11.26-12.06,41.26-10.8,84.35,5.89,104.44" class="cls-9"></path><path d="M820.66,897.08s-3,277.46-72.74,323.38" class="cls-9"></path><path d="M774.26,910.39s-9.44,264.15-79.17,310.07" class="cls-9"></path><path d="M358.19,1060.88c9.28,71.28,24.46,137.77,49.3,159.58" class="cls-9"></path><path d="M343.7,844.27s.28,32.1,2.73,80" class="cls-9"></path><path d="M398.4,1050.82c11.38,75.39,30.4,148.88,61.93,169.64" class="cls-9"></path><path d="M382.05,866.81s.66,22.62,3.08,57.76" class="cls-9"></path><path d="M926.59,837.13S1083,896.46,1053.21,988.3c-16.16,17.86-56.38,70.44-152.3,80.58" class="cls-9"></path><path d="M1040.32,1002.63l7.83,19.09s-34.36,74.38-150.49,68.63" class="cls-9"></path><path d="M1034.59,1043.32s41.58,89.73,43.28,95.68c0,0,45.93-12.08,48.48,21.08s-121.61,27.26-121.61,27.26" class="cls-9"></path><path d="M904.47,1090.67s32.24,99.18,90.92,96.62,52.76-23,28.91-26.36c0,0-39.12-9.35-41.67-12.75" class="cls-9"></path><path d="M1004.74,1187.34s6,20.36,0,28.87" class="cls-9"></path><path d="M286,790.05" class="cls-9"></path><path d="M403.12,1049s136.06,61.76,355.66-2.31" class="cls-9"></path><path d="M417,1140.67s104.1,64.08,323.7,0" class="cls-9"></path><line y2="905.11" x2="511.97" y1="947.94" x1="476.87" class="cls-9"></line><path d="M516.3,906.68l72.88,77.37s98.7,22.38,180.59-9.22" class="cls-9"></path><path d="M505.34,913.51s-17.58,107.88-12.8,157.28" class="cls-9"></path><path d="M525.11,916.51s-17.57,107.88-12.8,157.28" class="cls-9"></path></g></svg>