<svg viewBox="0 0 1200 1272.49" xmlns="http://www.w3.org/2000/svg"><defs><style>.cls-1{fill:#ffce00;}.cls-2{fill:#fff;}.cls-3{fill:#dd0025;}.cls-4{fill:#ffccd7;}.cls-5{fill:#ffd400;}.cls-6{fill:#9fffff;}.cls-7{fill:#f0a6ff;}.cls-10,.cls-11,.cls-8,.cls-9{fill:none;stroke:#231815;stroke-width:10px;}.cls-10,.cls-11,.cls-8{stroke-linecap:round;}.cls-8{stroke-linejoin:round;}.cls-10,.cls-9{stroke-miterlimit:10;}.cls-11{stroke-linejoin:bevel;}</style></defs><title>12拳击兔-rgb</title><g id="图层_3"><rect height="1200" width="1200" class="cls-1"></rect></g><g id="图层_2"><path d="M717.49,161.57s-8.23-46.64-23.18-53c-25,13.18-107.07,58.25-194.8,196.6-17.47-25-23.21-33.59-26-65-14.13-6.44-23.18,16.3-23.18,16.3s-42.07,71.25,23.18,120.63L440,361l-21.29-19.47s-8.86,47.44,16.79,61.94C392.5,428.78,232.79,540,273,723.08c-7.53,108.83-116.31,165.06-116.31,165.06s-47.54,83.07-29.36,119.5,33.23,61.58,73.82,80.38c-4.38,31.57-25.18,130.32,13.37,184,116.79,6,810-45.61,810-45.61s25.67-113.68-20.81-192c21.56-51.13,33.71-113.77-88.59-197.54,47.79-65.63,39.84-187.5-50.87-328.39-13.6-121.61-4.24-167.7-4.24-167.7s10.9-145.3-59.32-237.26C727,137.38,717.49,161.57,717.49,161.57Z" class="cls-2"></path><path d="M273,723.08l54.92,17.63,18.71-3.13s43.36-.94,57.81,10.78,40.08,38,40.08,38l2.13,33.39s-10.47,22-23,30.44l-12.51,8.45s6.2,99.76-51.33,132.58-130.54,80.33-234.3-13c-52.73-61-49.7-131.18-15.07-182.84S199.33,708.58,273,723.08Z" class="cls-3"></path><path d="M667.86,831.93s-111.32-18-130.84,57.86c-5.91,35.05,25.53,55.42,25.53,55.42s-13.51,73,29.82,137.72,112.32,74.83,147.09,70.86,108-7.35,150.52-119.42-66.27-187-66.27-187S756.14,800.25,667.86,831.93Z" class="cls-3"></path><path d="M552.41,399.16s187,25.18,226.79,4.29c24.95-13.79,21-23.78,48.65-23.78s24.51-5,24.51-5l72.77-104.57s71.25,40,80.13,85L927.9,393.76l77.24,49.79s.59,16.8-21.2,44.42-37.27,41.76-37.27,41.76l-43-47.13-39.49,25.84s-331.25,67.83-502.66-48.72c35.58-30.48,73.95-56.27,73.95-56.27S459.75,442.38,552.41,399.16Z" class="cls-3"></path><path d="M498.1,740.71l13.09,7.65L537,733.05l26.93,23.25,19.73-7.25v81.34s-62.45,24.61-88.11-5.1A752.37,752.37,0,0,1,498.1,740.71Z" class="cls-4"></path><path d="M741.15,374.65s-15.7-197.2,75.49-246.57c13.63,29.09,59.33,136,35.72,246.57a221,221,0,0,0-43.17,13.59l-30,15.21Z" class="cls-4"></path><path d="M711.39,922.83s-56.86,8.82-53.09,47.93,37.79,47.63,37.79,47.63l37.41,28.06,24.67,10.2s10.67,7.27,25.32-7,19.75-29.57,19.75-29.57l2.27-17.86-43.74-3.16s33.44-28.31,21.72-70.83c-27.88,4.26-60.47,20.38-65.43,31C719.05,929.09,711.39,922.83,711.39,922.83Z" class="cls-5"></path><path d="M314.84,872.77l15.58-41.7s18,2.73,31.09,20.61,18.23,38.3-16.64,63.81a632.48,632.48,0,0,1-70.58,44.22s-36,20.39-46.05-27.65c-10.07-43.78-2.42-38.68-2.42-38.68l37.42,8.5s-23.81-33.16-6.81-72.28C276.84,834.7,304.36,841.12,314.84,872.77Z" class="cls-5"></path><path d="M601.67,428.78s8.72,11.1,11.17,38.43c13.51-5,23.6-7.49,23.6-7.49s23.08,40-11.79,45.93-72.24-8.56-72.24-8.56-17.31-27.15,13.86-53.54c11.61,16.13,11.61,23.66,11.61,23.66S594.84,431.89,601.67,428.78Z" class="cls-5"></path><polygon points="522.89 742.29 522.89 782.54 550.1 786.35 552.41 742.29 536.99 733.05 522.89 742.29" class="cls-2"></polygon><path d="M412.24,865.83l37.62,11.94s12.09,111.7,49.65,168.68c33.3-54.43,50.94-102,50.94-102l12.1.76s-21.24,84.23,46.8,157.36c61.22,49.33,74.11,46,74.11,46l56,5.17,48.47-7,46,7.74s43.74,25.68,68.6,27.67,84.26,5.78,129-12.69c-.37,30.48-10.57,66.57-10.57,66.57l-815.07,21.26s-21-64.25-12.44-87.83c46.85-6.57,142.94-41.43,174.4-186C393.35,958,412.43,915.66,412.24,865.83Z" class="cls-6"></path><path d="M441,519.05l33.16,29.07H493s37.94,87.75-16,118.36c-6.27,13.61-53.89-2.71-53.89-2.71S393.39,622.1,398,584.69,422.26,516.35,441,519.05Z" class="cls-6"></path><path d="M601.67,612.11l100.74-64.05,16.69,14.63,30.39-20.45s52,160.65-52.55,210.82C651.87,759.87,617.8,734.79,601.67,612.11Z" class="cls-7"></path></g><g id="图层_1"><path d="M856.65,872.77c14.07-4.68,19.08-6.2,30.41-12.72,90.71-52.16,48.76-193.89,36.29-227.91S823.57,362.28,649,340.74" class="cls-8"></path><path d="M412.24,865.83c46.1,15.72,87.3,26,122.55,31.09" class="cls-8"></path><path d="M435.46,403.45A399.51,399.51,0,0,0,367,454.5c-54,50-106.28,127.7-100.19,241.14.61,11.31,1.89,17.13,4,26.3" class="cls-8"></path><path d="M617.37,331.78S679,146.85,800.61,103.48c17.3,19.47,75.68,123.38,54.9,276.19" class="cls-9"></path><path d="M717.49,161.57s-5.32-37.68-23.18-53C665,119.3,574.85,181.48,500.44,309.24" class="cls-9"></path><path d="M797.21,138.34s-73,84.83-56.06,236.31" class="cls-10"></path><polyline points="518.28 674.94 536.99 694.5 569.3 674.94" class="cls-8"></polyline><polyline points="536.99 733.05 563.91 756.3 595.56 744.68" class="cls-8"></polyline><polyline points="524.09 740.71 524.09 786.35 550.45 786.35 550.45 748.36" class="cls-8"></polyline><path d="M495.6,547.85c7.08,13.32,11.29,30,11.29,48.15,0,43.6-24.36,78.94-54.42,78.94S398,639.6,398,596s21.77-77,46.44-77" class="cls-8"></path><path d="M750.92,542c8.74,22.44,10.85,45.67,10.85,75,0,76.84-35.06,139.13-78.31,139.13s-78.32-62.29-78.32-139.13c0-3.38.07-1.73.2-5" class="cls-8"></path><line y2="632.75" x2="468.38" y1="563.78" x1="436.55" class="cls-8"></line><line y2="627.26" x2="427.94" y1="569.27" x1="477" class="cls-8"></line><line y2="684.72" x2="724.36" y1="579.18" x1="658.3" class="cls-8"></line><polyline points="605.2 612.11 703.27 547.5 717.49 563.78 749.5 542.24" class="cls-8"></polyline><polyline points="495.54 548.06 473.67 548.06 444.49 519.05" class="cls-8"></polyline><polyline points="485 733.05 511.19 748.36 536.99 733.05 536.99 694.5" class="cls-8"></polyline><path d="M498.1,740.71s-9.6,80-2.56,84.58,39.35,23.24,88.11,5.1c1.13-23.24,0-81.34,0-81.34" class="cls-8"></path><path d="M361.51,459.72s149.49,107,502.66,48.72" class="cls-9"></path><path d="M783.82,409.81c-97.94,7.12-172.48.54-231.41-10.65" class="cls-11"></path><path d="M551.58,399.56c-145.28,65.61-132.91-58.05-132.91-58.05,21.55,28.73,73.55,44,73.55,44-106.36-44.45-24.41-185.34-19.12-134.32s63.49,85,63.49,85c-27.59-20-10-85.42,1.73-59S648.2,340.87,648.2,340.87" class="cls-8"></path><path d="M580.44,465.58c2.31-16.47,10.41-28.48,23.25-36.8C615,442.21,617.77,457.06,613.9,473c0,0,16.5-15.38,22.16-13.46,10.73,3.64,12,48.52-19.56,46-23.78-1.92-76.2.17-64.8-33.88C560.19,446.3,567.78,447,567.78,447S571.92,451.59,580.44,465.58Z" class="cls-8"></path><path d="M262.92,900.83c-14.05-23.22-15.72-47.07-7.23-71.46,29,4.68,48.26,20.28,59.7,44.54,0,0,6.06-37.21,15.62-40.93,18.14-7.06,66.51,48,21.7,79C318.93,935.33,251,994.77,230.85,939.63c-15-41.09-4.19-48.43-4.19-48.43S237,892.48,262.92,900.83Z" class="cls-8"></path><path d="M717.7,959.67c17.79-20.49,40-29.39,65.81-28.77C788,960,779,983.05,759.4,1001.37c0,0,37.28-5.64,43.75,2.33,12.28,15.1-25.29,78-68.53,44.85-32.6-25-110-71.41-63.68-107.52,34.5-26.91,44.81-18.82,44.81-18.82S717.7,932.41,717.7,959.67Z" class="cls-8"></path><path d="M782,406s47.89-47.44,95.51-20.61,46.76,66.94,34.39,86.55C896.41,496.47,865.1,510,865.1,510" class="cls-8"></path><path d="M850.54,377.26l74.59-107.18s62.36,27.59,80.13,85L927.9,393.76,903.47,406" class="cls-8"></path><path d="M1009,446.2l-78.69-53.67Z" class="cls-8"></path><path d="M1009,446.2s-30.24,59.72-62.37,83.53l-43-47.13" class="cls-8"></path><ellipse ry="155.51" rx="163.03" cy="876.94" cx="249.22" class="cls-8"></ellipse><ellipse ry="167.84" rx="168.48" cy="987.57" cx="731.03" class="cls-8"></ellipse><path d="M321,737.27s109.7-8.11,125.21,64.26c5,47.9-33.92,52.2-33.92,52.2" class="cls-8"></path><path d="M667.86,831.93S559.5,819.37,537,889.79c-9.62,47.15,28.68,55.42,28.68,55.42" class="cls-8"></path><path d="M915,836.83S1111.18,947.46,956.35,1098c-30.64,28.87-104.44,70.71-172.86,50.49" class="cls-8"></path><path d="M882.68,913.6s25.25.51,39.71,18.46" class="cls-8"></path><path d="M1003.63,1034.37s42.92,86.57,20.81,192" class="cls-8"></path><path d="M125.48,978.2c-5.32,30.46,14.3,80.26,75.63,109.82" class="cls-8"></path><path d="M201.11,1088s-20.26,111.64,4.76,169" class="cls-8"></path><path d="M201.11,1088s107.05,39.7,132.56-76.23" class="cls-8"></path><path d="M833.1,1153.79s58.36,55.84,197.56,18.72" class="cls-8"></path><path d="M446.61,877.77s17.12,103.4,53.83,175.42c29.92-50.45,52-114.21,52-114.21" class="cls-8"></path><path d="M371.21,980.08s-12.51,147-171.59,189.44" class="cls-8"></path></g></svg>