<svg viewBox="0 0 1200 1246.29" xmlns="http://www.w3.org/2000/svg" id="图层_1"><defs><style>.cls-1{fill:#cbff94;}.cls-2{fill:#565f5f;}.cls-3{fill:#c6d3db;}.cls-4{fill:#e51c21;}.cls-5{fill:#363d3d;}.cls-6{fill:#ffbbcd;}.cls-7{fill:#ff0;}.cls-8{fill:#fff;}.cls-10,.cls-9{fill:none;stroke:#231815;stroke-width:10px;}.cls-9{stroke-miterlimit:10;}.cls-10{stroke-linecap:round;stroke-linejoin:round;}</style></defs><title>2忍者兔-rgb</title><rect height="1200" width="1200" class="cls-1"></rect><path transform="translate(0 0.77)" d="M306.22,816.07S156.6,907.91,179.43,994.65l24.69,59.53s-35.87,114-14.61,167.53,836.79,0,836.79,0,45.24-162.09-109.62-401.65C814.55,828,306.22,816.07,306.22,816.07Z" class="cls-2"></path><path transform="translate(0 0.77)" d="M470.85,243.82s-42,110.33-108.63,72.22-13.35-139.25,11.6-190.17S475.52,19.51,568.11,67.65c71-25.57,119.14-22.78,143.75-1.62s92.72,50,38.78,315.46c67.67,51.77,107.09,122.63,107.09,122.63s50.53,83.34,63,134.36c-2,43.18-66.23,82.14-86.36,90.73-25.65,18.43-112.57,42.64-167,23.25-42.36-15.09-42.11-29.21-71.11-67.58-28.11-46.4-58.05-46.67-60.24-46.4-35.86,10.39-61.47,41.31-89.66,56.41C413,712.74,378.25,714,351,713c-35.78-1.4-70.67-32.09-90.82-50.67-5.42-41.7,19.52-118.56,82.78-193.89,46.5-41.81,68.18-68.1,169.14-111.15,3.82-46.3,0-73.35,0-73.35S486.23,282.28,470.85,243.82Z" class="cls-3"></path><path transform="translate(0 0.77)" d="M303,828.82l49.73,105.06,27.87,25.46,4.74,8.95,27.43,8.09s23.84,105,57.74,144.24,73.45,66.22,73.45,66.22,90.36-36.31,158.94-94.26S826.74,901.47,826.74,901.47L890.38,848s-95.19,67.51-353.1,44.3C378,873.61,316.16,810.17,316.16,810.17S291.44,804.44,303,828.82Z" class="cls-4"></path><path transform="translate(0 0.77)" d="M537.28,915c5.67,3.14,5.64,41.28,25.51,48.26s53.26,18.91,76.65,7.14c4.78,19.84,9.83,112.85,9.83,112.85s-47,26.42-73.07-7.13c-6,6.8-18.44,10.89-21.9-5.37-10.78,1.83-24.37-6.06-31.16-20-5.66-17.31,7.62-35.24,7.62-35.24l24.11-13.66s-17.17-5.79-36.35-43.31C516.93,923.32,521.93,906.55,537.28,915Z" class="cls-3"></path><path transform="translate(0 0.77)" d="M412.75,976.38s24.79,8.24,44.58-2.2,34.57-18.81,40.56-48.92S514,916.34,514,916.34s21,40.49-21.22,87.89c16.1,3.89,37.1,10.76,30.34,37.94s-9.43,29.93-24.56,28.2c-6.87,13.15-10.56,17.33-21.91,12.9-14.85,15.56-29.37,30.52-86.69,7.94C392.65,1061.49,412.75,976.38,412.75,976.38Z" class="cls-3"></path><path transform="translate(0 0.77)" d="M165.43,413.32l-11.91-79.49L114.4,401l-74.48,3.13,60.88,45.35,9.93,77.32,46.19-63.71,68.16-10.94Zm-30.14,36.17a16,16,0,1,1,16-16A16,16,0,0,1,135.29,449.49Z" class="cls-5"></path><path transform="translate(0 0.77)" d="M1120.71,954.2l16.8-78.6-60.24,49.14-70.83-23.26,41,63.86-17.89,75.87,65.64-43.4,67.66,13.72Zm-40.93,23.26a16,16,0,1,1,20.58-9.35A16,16,0,0,1,1079.78,977.46Z" class="cls-5"></path><path transform="translate(0 0.77)" d="M619.64,213.87s15.69-55.45,43.65-57.43c4.14,17.58,36.32,93.81,5.77,183.68-39-6.23-49.42-6.29-49.42-6.29S632.24,249.47,619.64,213.87Z" class="cls-6"></path><path transform="translate(0 0.77)" d="M562.53,264.81s17.51,66-5.13,76.46c-27.73,6.23-45.63,14.14-45.63,14.14s8.46-49.58,0-68.29C529.67,283.72,558.82,275.66,562.53,264.81Z" class="cls-6"></path><path transform="translate(0 0.77)" d="M916.68,820.06s36.19-67.93,79.28-69.55,68.67,7.25,68.67,7.25l36.75-2.13,43.31-28.27s-22.6,93.62-96.43,97.83c-50,0-62.94-7.54-62.94-7.54s-52.28-6.4-62.77,11.17C913.19,824.74,916.68,820.06,916.68,820.06Z" class="cls-4"></path><path transform="translate(0 0.77)" d="M174.21,653.43s-5.46,32.62,31,55.49,58.87,41.69,58.87,41.69L280,763.49l41.86,51.79-28.1-2.1s-47.25-20.12-97.15-6.49c-20.42,4.56-52.14-3.75-56.69-35.31a58,58,0,0,1,17-50.18Z" class="cls-4"></path><path transform="translate(0 0.77)" d="M342.63,466.55S560,388.32,857.37,502.27l-23.32-35.39s43.5,1.93,80.21,35.39c16.46,15,35,36.15,59.41,61.31,30,30.94,45,63.48,91,73,45.24,9.41,75-6.06,75-6.06l-42.2-19.19-22.68-35.12,64.88-3.3,32.06-9.38-32.06-16.31-51.74-15.82-31-20.09s-52-97.15-165.88-108.82c54-22.82,147.17-54,114-149.35-28.67,30.67-36.62,54.48-128.44,74.39-40.79,12.27-99.39,44.78-108.79,65.94-20.44-18-106.13-84.85-210.41-52.25S375.72,422,342.63,466.55Z" class="cls-2"></path><path transform="translate(0 0.77)" d="M259.85,660.45s34.28,43.51,90.82,50.67,104.47-15.3,126-39.37,44.49-36.83,58.95-35.12,29.31.61,48.67,32.62S645,739,645,739s37.92,29.54,101.52,15,148.63-31.47,173.81-117.36c13.33,55.67,42,137.59-15.74,198.91S714.2,892.6,714.2,892.6l-195.68-2.78S379.06,875.77,314.34,812q-3.46-3.4-6.63-7C246.49,735.28,259.85,660.45,259.85,660.45Z" class="cls-2"></path><ellipse ry="78.94" rx="54.3" cy="591.08" cx="445.84" class="cls-7"></ellipse><polygon points="514.02 737.9 518.52 781.43 543.27 781.13 540.38 739.76 530.76 728.38 514.02 737.9" class="cls-8"></polygon><ellipse ry="139.11" rx="80.06" cy="612.27" cx="675.2" class="cls-6"></ellipse><path transform="translate(0 0.77)" d="M831.56,901.47s-1.46.89-4.13,2.4c-16.31,9.25-78,41.83-132.79,38.91-10.2,7.65-12,16.56-12,16.56l-7.45-5.8-35.76,9.74s15.48,88.7,9.83,120c8.81,7.48,20.52,3.87,20.52,3.87l30-2.59s-18.25,2.52,18.08,8.61,118.81-42.36,118.81-42.36L830.1,902.36Z" class="cls-2"></path><path transform="translate(0 0.77)" d="M467.83,375.86C439.35,391.81,249,479.05,260.33,689.94S592.56,895.17,592.56,895.17s197.29,11.34,288-40.82,48.76-193.89,36.29-227.9-99.78-269.86-274.4-291.4C567.61,327.11,496.31,359.92,467.83,375.86Z" class="cls-9"></path><polyline points="511.77 670.02 530.48 689.58 562.79 670.02" class="cls-10"></polyline><polyline points="530.48 689.58 530.48 728.14 504.68 743.44" class="cls-10"></polyline><line y2="751.38" x2="557.4" y1="728.14" x1="530.48" class="cls-10"></line><polyline points="517.58 735.79 517.58 781.43 543.94 781.43 543.94 743.44" class="cls-10"></polyline><ellipse ry="78.94" rx="54.43" cy="591.08" cx="445.96" class="cls-10"></ellipse><ellipse ry="139.13" rx="78.32" cy="612.15" cx="676.95" class="cls-10"></ellipse><line y2="627.83" x2="461.87" y1="558.86" x1="430.04" class="cls-10"></line><line y2="622.34" x2="421.43" y1="564.35" x1="470.49" class="cls-10"></line><line y2="679.8" x2="717.85" y1="558.86" x1="641.31" class="cls-10"></line><path transform="translate(0 0.77)" d="M750.28,379.64S829,96.63,688.69,54.12,406.36,206.34,494,276.07c45.07,27.21,109.7-40.82,134.36-84.19s51.88-42.52,68-32.32" class="cls-10"></path><path transform="translate(0 0.77)" d="M572,68.07S404.66-31.77,332.38,219.94c-11.91,45.07,1.7,92.69,50.17,101.2S470.49,242,470.49,242" class="cls-10"></path><path transform="translate(0 0.77)" d="M619.64,205.69s11.75,35.51,0,124" class="cls-10"></path><path transform="translate(0 0.77)" d="M663.29,156.44s34.62,98.06,5.77,183.68" class="cls-10"></path><path transform="translate(0 0.77)" d="M511.77,282.05s10.16,47.24,0,73.36" class="cls-10"></path><path transform="translate(0 0.77)" d="M562.79,264.81s11.34,37.31-.26,75.31" class="cls-10"></path><path transform="translate(0 0.77)" d="M342.63,466.55s214.77-79.93,514.74,35.72" class="cls-10"></path><path transform="translate(0 0.77)" d="M795.53,419.94s80.25-40.12,177.19,7.5c56.13,25.51,76.54,96.94,131,109.7s71.44,26.44,71.44,26.44-62.93,21.18-100.35,12.68c0,0,28.06,54.83,68.88,50.8-12.75,14.68-91,43.59-165-57.61S834,466.88,834,466.88" class="cls-10"></path><path transform="translate(0 0.77)" d="M767.81,393.53s44.19-55.95,144.53-74.8c42.52-8.65,87.59-53.92,90.15-64.77s58.57,96.61-117.34,150.44" class="cls-10"></path><path transform="translate(0 0.77)" d="M259.85,660.45S329.57,742.93,430,701.26c41.8-17.85,75.73-63.77,107.24-64.63,61.35,0,61.35,114,163.32,121.2,68.65.84,187.75-29.36,219.73-121.2" class="cls-10"></path><path transform="translate(0 0.77)" d="M1026.3,1221.71c37.41-193-109.62-401.65-109.62-401.65s-42,61.14-133.27,106" class="cls-10"></path><path transform="translate(0 0.77)" d="M920.33,813.93s40.49-73.71,97.46-63.42,102,28.74,141.17-61.7c-23.81,54.12-35.72,162.46-162.43,131.25-47.62-12.5-74,8.76-74,8.76" class="cls-10"></path><path transform="translate(0 0.77)" d="M339,913.55c-10.21,19.76,31.46,37.31,31.46,37.31s18.53,11.93,5.41,14.65C337.24,981.84,339,1092.88,339,1092.88s3.4,11-18.71,9.35c-51.87-1.7-97.8-28.91-118.2-55.27C112.8,922,316.16,810.17,316.16,810.17" class="cls-10"></path><path transform="translate(0 0.77)" d="M205.25,1050.8s-23.39,63.76-15.74,170.91" class="cls-10"></path><path transform="translate(0 0.77)" d="M375.88,965.51l36.87,10.87s-24.42,75.68-22.72,122.45c-26.39-2.55-51-5.95-51-5.95" class="cls-10"></path><path transform="translate(0 0.77)" d="M683.41,954.94l-44,7.92s16.09,77.89,9.34,124.2c26.51.32,51.37-.4,51.37-.4" class="cls-10"></path><path transform="translate(0 0.77)" d="M948.91,957.12s-18.08,150-236.44,141.83c0,0-15.53-3.25-12.48-21.8,1.81-11,8.38-54.22-12.47-98C676.2,955.39,688,948,688,948s138.13-24.77,150.41-47.72" class="cls-10"></path><path transform="translate(0 0.77)" d="M412.75,976.38s69.13,14.45,83.26-44.23c9.82-40.8,22.34-12,22.43,0,.14,17.86,2.55,55.28-35.71,74" class="cls-10"></path><path transform="translate(0 0.77)" d="M462.46,1019.46s21.6-23.24,46.44-11.34,9.62,51,9.62,51-6.7,18.87-19.94,11.22" class="cls-10"></path><path transform="translate(0 0.77)" d="M390,1091.21s47.38,21,71.84,7.62c16.63-9.07,14.79-22.69,14.79-22.69" class="cls-10"></path><path transform="translate(0 0.77)" d="M462.46,1038.11s8.78-17.83,29.25-13.26c11.42,2.55,11.06,54.65,0,58.67-15.56,5.67-18.74-13.28-15.56-29.6" class="cls-10"></path><path transform="translate(0 0.77)" d="M639.44,970.42s-77.75,19.42-98.58-37.23c-14.49-39.39-23.59-9.36-22.29,2.6,1.93,17.75,3.87,55.2,44,69.35" class="cls-10"></path><path transform="translate(0 0.77)" d="M584.29,1016s-24.15-20.59-47.45-5.89-3.64,51.79-3.64,51.79,8.83,18,21.1,8.84" class="cls-10"></path><path transform="translate(0 0.77)" d="M649.27,1083.27s-19.43,15.56-53.44,6.44c-18.3-4.91-19-15.74-19-15.74" class="cls-10"></path><path transform="translate(0 0.77)" d="M586.45,1034.55s-10.79-16.7-30.6-9.79c-11.05,3.86-4.65,55.56,6.8,58.28,16.11,3.83,17.07-15.36,12-31.2" class="cls-10"></path><path transform="translate(0 0.77)" d="M299.91,820.06s34.17,101.87,65.63,128.23" class="cls-10"></path><path transform="translate(0 0.77)" d="M457.33,1100.82s38.8,66.46,86.61,86c49.51-19.56,106.8-55.86,158.94-94.26" class="cls-10"></path><path transform="translate(0 0.77)" d="M287.12,775.67s-28.72-39.54-81.87-66.75c-17.44-9.36-40.4-43.36-30.2-109.69-6,49.31-3.4,106.61-26.36,135.78s-6.35,86.74,69.22,68.3c40.48-9.35,82,12.76,82,12.76" class="cls-10"></path><polyline points="114.41 401.78 153.53 334.6 165.43 412.4" class="cls-10"></polyline><polyline points="112.47 401.42 36.71 405.07 100.8 450.25" class="cls-10"></polyline><polyline points="156.93 463.87 225.09 452.93 165.43 414.09" class="cls-10"></polyline><polyline points="156.93 463.87 110.73 527.58 100.8 450.25" class="cls-10"></polyline><circle r="15.73" cy="434.02" cx="135.54" class="cls-10"></circle><polyline points="1079.44 926.45 1139.65 877.29 1123.48 954.31" class="cls-10"></polyline><polyline points="1077.76 925.43 1005.53 902.24 1049.68 967.06" class="cls-10"></polyline><polyline points="1097.45 999.52 1165.11 1013.2 1122.89 955.89" class="cls-10"></polyline><polyline points="1097.45 999.52 1031.82 1042.95 1049.68 967.06" class="cls-10"></polyline><circle r="15.73" cy="964.06" cx="1087.91" class="cls-10"></circle></svg>