<svg viewBox="0 0 1200 1276.51" xmlns="http://www.w3.org/2000/svg" id="图层_1"><defs><style>.cls-1{fill:#fff19c;}.cls-2{fill:#cee4e5;}.cls-3{fill:#ffe000;}.cls-4{fill:#ce121b;}.cls-5{fill:#ffd4e9;}.cls-6{fill:#05ace5;}.cls-7{fill:#80e1ff;}.cls-8,.cls-9{fill:none;stroke:#231815;stroke-width:10px;}.cls-8{stroke-miterlimit:10;}.cls-9{stroke-linecap:round;stroke-linejoin:round;}.cls-10{fill:#5e7a79;}</style></defs><title>3机器兔-rgb</title><rect height="1200" width="1200" class="cls-1"></rect><path transform="translate(0 -0.93)" d="M796.81,64.68l21.34,90.71,137.71-41.93L893.38,308.39,819.46,442.56l40.21,55.51H918l18.63,17.27L977,504.55l16.09,15.64,40-12.82,9.91,15.44-44.56,12.82,4.1,26.44-33.89,18.87,1,31.64-38.76,38.26s38.43,100.24-9.29,177c21.88,38.47,125.76,228,108.52,395.67-18.48,88.39-335.67,41.61-335.67,41.61l-513.94-10.2,11.15-41.69,16.77-109.34-17.26,10.27v18.35l-7.81,8-12.46,7.26-9.53-7.23s-31-33.23,11.18-142.2c14.15-26.48,79.61-152.65,133.23-203.16-21.26-33.48-37.93-33.78-38.51-178.2-31.31-25.24-35.52-29-35.52-29l3-31.63-33.9-18.87-2-28.59-48.45-17.08,21.63-18.34,40.65,21.15,13.71-14.66,39.41,11.85s10.66-17.41,22-18.34,59.63,0,59.63,0,67.19-83.13,197.36-122.82c39.18-56.69,134.43-197.85,134.43-197.85l121.61-91Z" class="cls-2"></path><path transform="translate(0 -0.93)" d="M454.1,518.12c2.17,1,35.26,6.94,47.11,22.77s38.69,55.88,2.78,97.83c-34,40.06-102.36,47.87-131.31-26.14C366.87,532.9,439,511.29,454.1,518.12Z" class="cls-3"></path><path transform="translate(0 -0.93)" d="M431.8,541.58s36.64-5.19,50,12.75,15.12,26.94,15.12,26.94,8.55,22.81-3.88,37.63-26.19,25.73-45.22,24.36-51.74-14-52-42.33S412.9,542,431.8,541.58Z" class="cls-4"></path><polygon points="523.77 738.76 536.62 731.13 551.74 742.4 551.31 784.43 522.02 783.7 523.77 738.76" class="cls-3"></polygon><path transform="translate(0 -0.93)" d="M710.94,353.59l96.4-136.76L955.86,113.46,893.38,308.39,819,436s-58.49-60.81-112-81.43" class="cls-5"></path><path transform="translate(0 -0.93)" d="M728.5,492.45s47.29,67.2,37.25,138.11-32.34,112.85-76.94,120.79-85.15-79.37-79-154.2,46.17-127.75,82.83-121.7S728.5,492.45,728.5,492.45Z" class="cls-6"></path><path transform="translate(0 -0.93)" d="M704.63,511.23s50.41,41.08,41.2,111.31-23.38,84.4-54.56,92.34-60.62-47.06-61.21-88.44S643.16,494.09,704.63,511.23Z" class="cls-7"></path><path transform="translate(0 -0.93)" d="M774.22,1023.61s30.82,14,19,40.56-42.36,12.44-42.36,12.44-29.56-26,3.89-53C767.8,1021,774.22,1023.61,774.22,1023.61Z" class="cls-3"></path><path transform="translate(0 -0.93)" d="M772.55,1038.92s14.14,8.3,8.66,19.86-20.37,5.23-20.37,5.23S739.89,1039.25,772.55,1038.92Z" class="cls-4"></path><path transform="translate(0 -0.93)" d="M1038.33,507.37s10.52,26.69,31,23,20.45-26.83,9.71-41.69c0,0-16.7-11-25.44-4.92S1038.33,507.37,1038.33,507.37Z" class="cls-4"></path><path transform="translate(0 -0.93)" d="M153,451.22s23,17.47,10.51,34.83-44.57,13.55-45.82-12.61S153,451.22,153,451.22Z" class="cls-4"></path><polygon points="171.94 472.51 209.44 493.28 198.76 507.93 160.41 490.85 171.94 472.51" class="cls-3"></polygon><polygon points="993.09 521.88 1002.51 534.69 1042.97 521.88 1038.33 506.44 993.09 521.88" class="cls-3"></polygon><path transform="translate(0 -0.93)" d="M475.2,379.85C446.72,395.79,256.36,483,267.7,693.92S599.93,899.15,599.93,899.15s197.28,11.34,288-40.82,48.76-193.89,36.29-227.9S824.43,360.57,649.81,339C575,331.09,503.67,363.9,475.2,379.85Z" class="cls-8"></path><polyline points="497.72 649.91 537.84 691.86 612.29 646.8" class="cls-9"></polyline><path transform="translate(0 -0.93)" d="M537.84,692.79v38.55l-25.79,15.31c-48.12,21.43-69.38,26.7-136.67,7.94" class="cls-9"></path><path transform="translate(0 -0.93)" d="M537.84,731.34l26.93,23.25s67.68,51.28,123.31,46.18c27.57-9.36,50.67-82.11,50.67-82.11" class="cls-9"></path><polyline points="524.95 738.06 524.95 783.7 551.31 783.7 551.31 745.72" class="cls-9"></polyline><ellipse ry="139.13" rx="78.32" cy="611.64" cx="688.08" class="cls-9"></ellipse><ellipse ry="103.08" rx="58.02" cy="611.64" cx="688.08" class="cls-9"></ellipse><line y2="682.08" x2="725.21" y1="549.94" x1="641.6" class="cls-9"></line><polyline points="612.75 337.26 749.66 183.3 819.04 159.23 958.01 111.02 893.38 307.46 819.46 441.63" class="cls-9"></polyline><polyline points="544.65 349.69 679.08 151.84 800.68 60.84 819.04 159.23" class="cls-9"></polyline><polyline points="958.01 111.02 808.34 216.47 709.51 354.65 839.78 336.87" class="cls-9"></polyline><line y2="178.8" x2="762.63" y1="60.84" x1="800.69" class="cls-9"></line><line y2="398.11" x2="843.44" y1="194.32" x1="839.78" class="cls-9"></line><line y2="216.46" x2="808.34" y1="183.3" x1="749.66" class="cls-9"></line><line y2="327.87" x2="725.21" y1="222.88" x1="714.47" class="cls-9"></line><line y2="194.32" x2="739.87" y1="178.8" x1="660.76" class="cls-9"></line><line y2="253.83" x2="686.95" y1="290.15" x1="585.1" class="cls-9"></line><path transform="translate(0 -0.93)" d="M469.24,383.05S522.6,508,616.57,545.51" class="cls-9"></path><path transform="translate(0 -0.93)" d="M859.67,498.07H918s53.8,35.68,53.57,114.51l-40.78,38.26" class="cls-9"></path><line y2="399.87" x2="779" y1="480.61" x1="714.47" class="cls-9"></line><path transform="translate(0 -0.93)" d="M936.67,515.34,977,504.55s24.94,15.26,25.51,57.52c-15.31,7.11-33.89,18.87-33.89,18.87" class="cls-9"></path><path transform="translate(0 -0.93)" d="M343.64,473.44H285.26S231.47,509.12,231.69,588l38.73,34.59" class="cls-9"></path><path transform="translate(0 -0.93)" d="M266.63,490.72,226.3,479.93s-24.94,15.26-25.51,57.52c15.31,7.11,33.9,18.87,33.9,18.87" class="cls-9"></path><circle r="24.64" cy="472.51" cx="142.29" class="cls-9"></circle><line y2="476.57" x2="171.94" y1="493.66" x1="210.29" class="cls-9"></line><line y2="490.85" x2="160.42" y1="507.93" x1="198.76" class="cls-9"></line><circle r="24.64" cy="505.62" cx="1062.97" class="cls-9"></circle><line y2="506.44" x2="1033.06" y1="519.25" x1="993.09" class="cls-9"></line><line y2="521.88" x2="1042.97" y1="534.69" x1="1002.99" class="cls-9"></line><path transform="translate(0 -0.93)" d="M752.07,692.79S878,787.35,942,769" class="cls-9"></path><path transform="translate(0 -0.93)" d="M366.87,453.75s103.91,36.41,161.71,23.76c0,0,.2,38.92-8.26,97" class="cls-9"></path><circle r="75.04" cy="592.58" cx="447.73" class="cls-9"></circle><circle r="51.93" cy="592.58" cx="447.73" class="cls-9"></circle><line y2="629.62" x2="484.12" y1="555.39" x1="411.5" class="cls-9"></line><line y2="629.62" x2="411.5" y1="555.39" x1="484.12" class="cls-9"></line><path transform="translate(0 -0.93)" d="M497.72,650.84S440.5,771,287.66,768" class="cls-9"></path><path transform="translate(0 -0.93)" d="M463.86,768.37s-13.13,98.31,20.26,118.85" class="cls-9"></path><path transform="translate(0 -0.93)" d="M688.08,800.77s10.11,82,21.43,92.31" class="cls-9"></path><path transform="translate(0 -0.93)" d="M323.66,814.27s-111.45,173.59-132.55,404" class="cls-9"></path><path transform="translate(0 -0.93)" d="M179.59,1137.52c-1.16,14.46-12.65,9.36-12.65,9.36s-13.4-6.8-16.81-51.87C145.88,976,305.72,795.15,305.72,795.15" class="cls-9"></path><path transform="translate(0 -0.93)" d="M191.11,1114.12s4.95,24.66-7.81,26.36-14.46-60.38-14.46-60.38,4.85-12.35,15.61,0" class="cls-9"></path><path transform="translate(0 -0.93)" d="M215.59,1073.36c-11.93-15.95-24.48-10.42-24.48-10.42s-4.41,21.26-6.11,31.47-.88,34.19,23.37,9.44" class="cls-9"></path><path transform="translate(0 -0.93)" d="M150.29,1082.21s2.4-16.42,18.55-2.11" class="cls-9"></path><path transform="translate(0 -0.93)" d="M170.84,1002.23s22.62-17.84,59.63,22.58" class="cls-9"></path><path transform="translate(0 -0.93)" d="M191.11,1062.94s-18.55-23.56,0-64.63" class="cls-9"></path><polyline points="431.21 872.53 431.21 1081.28 336.37 1253.94" class="cls-9"></polyline><path transform="translate(0 -0.93)" d="M719.65,1005.22S716,953.1,733,950.68s25.17,49.07,25.17,49.07S747.19,1022.18,719.65,1005.22Z" class="cls-9"></path><path transform="translate(0 -0.93)" d="M831.3,1027.06s26-45.31,11.81-54.9S799,1005.32,799,1005.32,799.13,1030.29,831.3,1027.06Z" class="cls-9"></path><path transform="translate(0 -0.93)" d="M713.47,1044.91S673.65,1028,680,1011.14s41.82-4.4,41.82-4.4S736.61,1025.77,713.47,1044.91Z" class="cls-9"></path><path transform="translate(0 -0.93)" d="M760.84,999s13.59-59.19,30.49-56.21,7.82,63,7.82,63S781.74,1023.66,760.84,999Z" class="cls-9"></path><circle r="29.3" cy="1050.97" cx="766.62" class="cls-9"></circle><circle r="14.28" cy="1050.97" cx="766.62" class="cls-9"></circle><path transform="translate(0 -0.93)" d="M713.47,1044.91s-7,56,47.37,56c58.55,0,74.71-16,70.46-73.9" class="cls-9"></path><path transform="translate(0 -0.93)" d="M921.54,827.8s128.31,200,107.9,402.42" class="cls-9"></path><path transform="translate(0 -0.93)" d="M795.92,941.66s34.09-51.38,84.81-79.44" class="cls-9"></path><path transform="translate(0 -0.93)" d="M799,1097.06s153.47-29.16,170.55-133" class="cls-9"></path><path transform="translate(0 -0.93)" d="M867.87,1218.31c50.17-62.08,65.9-187.68,65.9-187.68s60.87,19.12,74.87-1.62" class="cls-9"></path><path transform="translate(0 -0.93)" d="M667.17,901.94s-50.6,100.38-41.67,195.12l106.3,133.16" class="cls-9"></path><line y2="990.44" x2="635.33" y1="1081.28" x1="431.21" class="cls-9"></line><path transform="translate(0 -0.93)" d="M625.5,1097.06s-47.76,45.57-87.66,146.76" class="cls-9"></path><circle r="3.87" cy="462.35" cx="496.91" class="cls-10"></circle><circle r="3.87" cy="497.15" cx="511.27" class="cls-10"></circle><circle r="3.87" cy="514.17" cx="542.91" class="cls-10"></circle><circle r="3.87" cy="673.8" cx="540.03" class="cls-10"></circle><circle r="3.87" cy="699.01" cx="523.77" class="cls-10"></circle><circle r="3.87" cy="749.77" cx="413.16" class="cls-10"></circle><circle r="3.87" cy="779.82" cx="447.73" class="cls-10"></circle><circle r="3.87" cy="774.95" cx="477.59" class="cls-10"></circle><circle r="3.87" cy="700.18" cx="551.74" class="cls-10"></circle><circle r="3.87" cy="785.97" cx="683.4" class="cls-10"></circle><circle r="3.87" cy="814.07" cx="676.13" class="cls-10"></circle><circle r="3.87" cy="808.46" cx="704.63" class="cls-10"></circle><circle r="3.87" cy="979.42" cx="622.5" class="cls-10"></circle><circle r="3.87" cy="1053.97" cx="449.81" class="cls-10"></circle><circle r="3.87" cy="1096.13" cx="443.85" class="cls-10"></circle><circle r="3.87" cy="1090.7" cx="607.76" class="cls-10"></circle><circle r="3.87" cy="1088.28" cx="642.95" class="cls-10"></circle><circle r="3.87" cy="1122.73" cx="624.38" class="cls-10"></circle><circle r="3.87" cy="1050.97" cx="948.66" class="cls-10"></circle><circle r="3.87" cy="1075.67" cx="414.16" class="cls-10"></circle><circle r="3.87" cy="755.08" cx="930.65" class="cls-10"></circle><circle r="3.87" cy="673.8" cx="501.66" class="cls-10"></circle><circle r="3.87" cy="328.66" cx="710.51" class="cls-10"></circle><circle r="3.87" cy="257.7" cx="703.19" class="cls-10"></circle><circle r="3.87" cy="290.15" cx="737.2" class="cls-10"></circle><circle r="3.87" cy="228.96" cx="729.45" class="cls-10"></circle><circle r="3.87" cy="202.76" cx="752.61" class="cls-10"></circle><circle r="3.87" cy="221.88" cx="787.55" class="cls-10"></circle><circle r="3.87" cy="186.56" cx="783.68" class="cls-10"></circle><circle r="3.87" cy="108.65" cx="796.81" class="cls-10"></circle><circle r="3.87" cy="99.2" cx="773" class="cls-10"></circle><circle r="3.87" cy="169.13" cx="685.72" class="cls-10"></circle><circle r="3.87" cy="174.93" cx="744.86" class="cls-10"></circle><circle r="3.87" cy="194.32" cx="666.62" class="cls-10"></circle><circle r="3.87" cy="203.76" cx="715.97" class="cls-10"></circle><circle r="3.87" cy="242.89" cx="680.84" class="cls-10"></circle><circle r="3.87" cy="283.4" cx="643.83" class="cls-10"></circle><circle r="3.87" cy="262.58" cx="621.89" class="cls-10"></circle><circle r="3.87" cy="302.09" cx="593.16" class="cls-10"></circle><circle r="3.87" cy="199.88" cx="807.34" class="cls-10"></circle><circle r="3.87" cy="202.76" cx="855.72" class="cls-10"></circle><circle r="3.87" cy="323.19" cx="827.41" class="cls-10"></circle><circle r="3.87" cy="356.53" cx="827.41" class="cls-10"></circle></svg>