<svg viewBox="0 0 1200 1298.45" xmlns="http://www.w3.org/2000/svg" id="图层_1"><defs><style>.cls-1{fill:#aee8ff;}.cls-2{fill:#fff;}.cls-3{fill:#707db4;}.cls-4{fill:#ffce00;}.cls-5{fill:#b786b9;}.cls-12,.cls-6{fill:#d98cf9;}.cls-7{fill:#b9e1f2;}.cls-8{fill:#9fe6ff;}.cls-9{fill:#f7cfe1;}.cls-10,.cls-11{fill:none;}.cls-10,.cls-11,.cls-12{stroke:#231815;stroke-width:10px;}.cls-10,.cls-12{stroke-linecap:round;stroke-linejoin:round;}.cls-11{stroke-miterlimit:10;}</style></defs><title>4太空兔-rgb</title><rect height="1200" width="1200" class="cls-1"></rect><path transform="translate(-0.46 -0.89)" d="M310.2,271.87S451,167.89,578.92,159.81,816.4,207.45,816.4,207.45s105.67,37.74,184.45,160.6l3.8,6.23L1074,343.15l84.7,6.8V601.19l-79.08,56.5-32.25-3.07-13.53,43.45s47.36,5.35,79.67,32.32c9.65,27.28,69.74,214.05,45.19,485.82,1.87,27.57-261.09,83.13-261.09,83.13l-676.23-59.56s-2.89-22.92-3.55-30.9-1.78-53.9-1.78-53.9l-18,14.67-43.25,39.23-47.63,7.33s-38-4.47-50.2-51.38c-2-27.63,23.31-45.39,23.31-45.39s-22.7,8.87-23.42-16.73c18.23-21.42,52.25-51.68,52.25-51.68s29.81-72.13,86.5-76.89c11.34-47.84,10.83-46.66,71.18-89.2,7.06-31.2,5-61.77,5-61.77l-59.43-99.06-27.12-80.68-15.18,6.11L82,641.17V372.05l80.8-38.23L253.62,340Z" class="cls-2"></path><path transform="translate(-0.46 -0.89)" d="M322.52,842.76S149.18,672.32,290.91,454.62c89.57-124.73,272.35-160,383.92-139.52S910.9,439.88,942.19,537.39s14.08,220.37-109.4,339.23C750.12,901.36,499.27,929.29,322.52,842.76Z" class="cls-3"></path><path transform="translate(-0.46 -0.89)" d="M778.05,188.15s3.93-117.57-99.31-137c0,0-37.38-7.82-104.32,17.54-35.55-12.83-93.65-31.62-146.06,6.51s-109.1,142.45-91,203.68c15.87,34,47.62,42.6,47.62,42.6s35.71,9,46.77-12.27C447.38,289.07,477.43,245,477.43,245s1.78,35.47,46,40.34,94.07-63.15,94.07-63.15S657.6,139.31,692,166C726.31,174.55,778.05,188.15,778.05,188.15Z" class="cls-4"></path><path transform="translate(-0.46 -0.89)" d="M521.05,317.28S654.61,281.56,765.86,350c-6.67,26.43-8.64,32.71-8.64,32.71S893.66,472.57,942.64,704c-16.77,62.46-57.59,125.95-115.42,175.84-46.48,15.88-278.93,47.63-498.89-31.74,7.93-19.28,5.61-25.47,5.61-25.47S198.1,729.18,313.27,509.73c97-121.29,204.3-145.89,207.78-152.19Z" class="cls-4"></path><ellipse ry="27.95" rx="21.81" cy="434.08" cx="124.46" class="cls-5"></ellipse><ellipse ry="27.95" rx="21.81" cy="513.11" cx="124.46" class="cls-6"></ellipse><ellipse ry="27.95" rx="21.81" cy="592.15" cx="124.46" class="cls-6"></ellipse><ellipse ry="27.95" rx="21.81" cy="442.22" cx="1033.94" class="cls-5"></ellipse><ellipse ry="27.95" rx="21.81" cy="521.26" cx="1034.54" class="cls-6"></ellipse><ellipse ry="27.95" rx="21.81" cy="599.91" cx="1034.54" class="cls-6"></ellipse><path transform="translate(-0.46 -0.89)" d="M368.47,407a332.19,332.19,0,0,1,44.44-19.41C394.09,424,360.6,487.47,368.28,579.33c-37.69,4.55-58.08-29.23-58.08-29.23S323.23,459.71,368.47,407Z" class="cls-2"></path><path transform="translate(-0.46 -0.89)" d="M309.77,603.81l48.92,20.79v47l-48.92-8S292.34,623.74,309.77,603.81Z" class="cls-2"></path><polygon points="522.93 737.82 522.93 782.79 550.42 783.68 550.42 741.12 536.67 728.28 522.93 737.82" class="cls-2"></polygon><path transform="translate(-0.46 -0.89)" d="M874.85,701.34l29.48,8.4S891,786.93,844.92,803.89C859,784.57,877.11,747.37,874.85,701.34Z" class="cls-2"></path><path transform="translate(-0.46 -0.89)" d="M109.16,1051s52.47,85.44,106.9,104l-18,14.67s-60-35-100.94-104l14.17-19.35" class="cls-6"></path><path transform="translate(-0.46 -0.89)" d="M735,1027.29s130.28-37.54,207.61-120.85c25.18-27.76,39.92-41.37,39.92-41.37s13.84-19.27-24.83-15.87c-6.92,17-65.45,95.09-222.7,150.73C736.51,1019.28,735,1027.29,735,1027.29Z" class="cls-6"></path><path transform="translate(-0.46 -0.89)" d="M266.78,953s-36.5-2.06-35.67,26.46,37.65,70.24,83.31,90.77S381,1095.41,381,1095.41H387l2-31.9s-98.51-19.75-130.93-84.1C266,961.45,266.78,953,266.78,953Z" class="cls-6"></path><path transform="translate(-0.46 -0.89)" d="M925.81,1164.83l11.4,23.68s130-22.9,149.49-71.12l-11.16-16.47S993.79,1170.92,925.81,1164.83Z" class="cls-6"></path><path transform="translate(-0.46 -0.89)" d="M444,1054.1l-25.15,1.22s-14.92,46.62,0,63.68c20.58-1.08,27.2-4.55,27.2-4.55S439.5,1077.59,444,1054.1Z" class="cls-6"></path><path transform="translate(-0.46 -0.89)" d="M710.87,1076.37l20.34,1.86s4.9,23.65,0,31.11-22.22,5.11-22.22,5.11Z" class="cls-6"></path><polygon points="391.78 1013.76 415.57 1013.76 418.4 977.57 396.81 976.97 391.78 1013.76" class="cls-5"></polygon><path transform="translate(-0.46 -0.89)" d="M702.5,986.19H674.83s-7.29,59.42,3.39,59.86,24.28,1.08,24.28,1.08S721.77,1007.53,702.5,986.19Z" class="cls-6"></path><path transform="translate(-0.46 -0.89)" d="M221.39,1100.92s205.57,97.34,399.45,82.14,264.71-58.7,264.71-58.7l12.07,23.33s-242.74,93.15-420.19,54.94c-137.77-20.08-259.71-70.22-259.71-70.22Z" class="cls-4"></path><path transform="translate(-0.46 -0.89)" d="M300.32,867.44s-14.24,61,91.92,114.35c0,32.87-5.28,21.74-5.28,21.74S249,970.52,275,837.86c9.08,12.47,10.06,17,10.06,17l14.18,6.46Z" class="cls-7"></path><path transform="translate(-0.46 -0.89)" d="M449.93,972.51l-21.37,1.63s-21.15,48.54-6.69,61.3c13.61,0,22.14-.85,22.14-.85Z" class="cls-7"></path><path transform="translate(-0.46 -0.89)" d="M396.64,1064.09l15.7,1.85-.11,35H387S384.16,1070.63,396.64,1064.09Z" class="cls-7"></path><path transform="translate(-0.46 -0.89)" d="M679.2,1063.51l22.45.58s16.15,25.88,4.67,60.27l-24.23,2.92S666.11,1117.1,679.2,1063.51Z" class="cls-7"></path><path transform="translate(-0.46 -0.89)" d="M731.21,1078.23s92.33-10.51,107.92-32.18c8.79,8.1,13.65,19.59,13.65,19.59l-2.66,10.73S777.76,1109.06,735,1108A191.59,191.59,0,0,0,731.21,1078.23Z" class="cls-7"></path><path transform="translate(-0.46 -0.89)" d="M709,997.5h19s16.16,28.58,0,37.09c-16.16,2.55-18.71.85-18.71.85Z" class="cls-7"></path><path transform="translate(-0.46 -0.89)" d="M978,800.73l28.48,9,41.71,195.6-26.82-12.42,3.86-34s13.07-32.27-57.9-74c11.52-13.63,15.2-19.87,15.2-19.87S993.33,856,960.17,845C961.87,832.19,978,800.73,978,800.73Z" class="cls-7"></path><path transform="translate(-0.46 -0.89)" d="M306.81,795.36s161.72-6.93,191.11-157.68S529,514.59,529,514.59s2.05-7.45,8.11,46.53c0,0,20-97.15,37.29-109,17.28,13.6,4.5,113,4.5,113S590,523.17,599.5,521.21s7.7,57.16,7.7,57.16S683.27,864,865.09,842.55c-27.46,28-47.93,40.2-47.93,40.2S449.43,960.91,306.81,795.36Z" class="cls-2"></path><ellipse ry="78.74" rx="52.91" cy="592.44" cx="450.92" class="cls-6"></ellipse><ellipse ry="137.32" rx="76.95" cy="613.09" cx="683.69" class="cls-8"></ellipse><path transform="translate(-0.46 -0.89)" d="M628.49,310,626,335l44.51,6.8s18.58-18.14,13.38-24.52S628.49,310,628.49,310Z" class="cls-9"></path><polygon points="520.59 316.39 574.82 308.76 569.98 339.06 520.59 356.64 520.59 316.39" class="cls-9"></polygon><path transform="translate(-0.46 -0.89)" d="M328.33,848.07S159.08,664,285.65,462.92C385,350.3,464.35,311.81,620.84,310.08c70.31,8.44,233,31.21,317.22,231.87,17.72,78.22,50.17,181.39-110.84,337.86l44.22-11.33s204.1-171.89,40.82-435.74c0,0-106.62-139.91-291.42-146.89s-292,80.07-349,159S164.42,703,290,829.37Z" class="cls-6"></path><polygon points="544.44 997.95 550.42 990.98 557.21 990.98 561.54 997.95 561.54 1124.55 553.69 1135.83 543.75 1134.51 544.28 1077.34 544.44 997.95" class="cls-7"></polygon><path transform="translate(-0.46 -0.89)" d="M317.9,509.73c-30.11,45.87-54.62,109-50.63,183.24C278.61,903.87,599.5,898.2,599.5,898.2" class="cls-10"></path><path transform="translate(-0.46 -0.89)" d="M942.19,705.57c-4.55-31.1-13.91-63.81-18.42-76.09-12.47-34-99.78-269.86-274.39-291.41-74.83-7.93-146.14,24.88-174.61,40.82-10.68,6-40.47,19.17-77.5,48" class="cls-10"></path><polyline points="518.24 671.39 536.95 690.95 569.27 671.39" class="cls-10"></polyline><polyline points="536.95 690.95 536.95 729.5 511.16 744.8" class="cls-10"></polyline><line y2="752.74" x2="563.88" y1="729.5" x1="536.95" class="cls-10"></line><polyline points="524.05 737.15 524.05 782.79 550.42 782.79 550.42 744.8" class="cls-10"></polyline><ellipse ry="78.94" rx="54.43" cy="592.44" cx="452.43" class="cls-10"></ellipse><ellipse ry="139.13" rx="78.32" cy="613.51" cx="683.42" class="cls-10"></ellipse><line y2="629.19" x2="468.35" y1="560.22" x1="436.52" class="cls-10"></line><line y2="623.7" x2="427.9" y1="565.71" x1="476.97" class="cls-10"></line><line y2="681.17" x2="724.32" y1="560.22" x1="647.79" class="cls-10"></line><path transform="translate(-0.46 -0.89)" d="M778.05,191.77c-4.22-62.68-24.5-117.08-82.42-134.63C555.31,14.62,413.3,209.36,500.89,279.1c45.07,27.21,109.7-40.82,134.36-84.19S679.54,158,695.7,168.24" class="cls-10"></path><path transform="translate(-0.46 -0.89)" d="M757.22,382.66a271.54,271.54,0,0,0,8.64-29.77" class="cls-10"></path><path transform="translate(-0.46 -0.89)" d="M578.92,71.1S411.59-28.75,339.31,223c-11.9,45.07,1.7,92.69,50.17,101.2S477.43,245,477.43,245" class="cls-10"></path><path transform="translate(-0.46 -0.89)" d="M628.49,317.28c-.7,7.07-.86,7.48-1.91,15.39" class="cls-10"></path><path transform="translate(-0.46 -0.89)" d="M681.49,324.5c-1.76,9.4-2.38,9.4-5.49,18.65" class="cls-10"></path><path transform="translate(-0.46 -0.89)" d="M523.09,321.47c.82,13.91.11,25.41-4.39,37" class="cls-10"></path><path transform="translate(-0.46 -0.89)" d="M574.42,315.1c.05,11.46-.94,14.91-5,28" class="cls-10"></path><path transform="translate(-0.46 -0.89)" d="M1048.22,651.17c-14.88,63.23-46.05,120.94-89.3,169.29C826.54,949.82,347.21,906,266.78,809.36c-56.2-67.5-89.55-151.72-89.55-243,0-124,61.43-234.79,158-308.55" class="cls-11"></path><path transform="translate(-0.46 -0.89)" d="M658.88,166c151,12.81,279.9,95.21,347.81,211.73" class="cls-11"></path><path transform="translate(-0.46 -0.89)" d="M294.65,833.22c-50.4-57.57-80.44-130-80.44-208.68,0-187.48,170.5-339.46,380.83-339.46s380.82,152,380.82,339.46c0,97.4-36.11,185.22-109.83,247.12" class="cls-11"></path><path transform="translate(-0.46 -0.89)" d="M825.81,882.75C895.15,823.4,952.57,728,952.57,634.63c0-179.73-160.38-325.43-358.22-325.43S236.13,454.9,236.13,634.63c0,75.44,43.83,158.69,91.24,213.88l6.73-21.74" class="cls-10"></path><path transform="translate(-0.46 -0.89)" d="M262.05,803.57,288.36,856s359.89,187.94,664.21,0l27.07-60.64" class="cls-10"></path><polygon points="452.44 958.01 662.92 977.57 695.41 963.83 484.34 943.55 452.44 958.01" class="cls-10"></polygon><path transform="translate(-0.46 -0.89)" d="M452.89,958.9s-20,153.92,0,175.18,188.38,27.21,209.64,13.61c3.4-28.92.85-169.23.85-169.23" class="cls-10"></path><path transform="translate(-0.46 -0.89)" d="M451.27,972.47H428.36s-18.4,28.1-6.49,62.12h23.77" class="cls-10"></path><path transform="translate(-0.46 -0.89)" d="M418.86,981.26l-19.39-3.4S388,996.57,394,1014.43c8.5,1.7,20.26,3.4,20.26,3.4" class="cls-12"></path><path transform="translate(-0.46 -0.89)" d="M444.2,1055.32l-22.87,1.3s-16.78,29.1-3,62.38l23.74-1.34" class="cls-10"></path><path transform="translate(-0.46 -0.89)" d="M412.34,1065.94l-19.55-2.3s-10.39,19.32-3.44,36.82c8.59,1.21,20.42,2.25,20.42,2.25" class="cls-10"></path><path transform="translate(-0.46 -0.89)" d="M682.07,1048.31h23.78c11.9-34-1.08-62.12-1.08-62.12H676.45c-1.73,5.4-3.48,51.54,2.81,62.12" class="cls-10"></path><path transform="translate(-0.46 -0.89)" d="M710.79,1000.14l19.64-1.22s9.32,19.87,1.41,36.95c-8.64.75-20.51,1.13-20.51,1.13" class="cls-10"></path><path transform="translate(-0.46 -0.89)" d="M682.07,1125.76h23.78c11.9-34-1.08-62.12-1.08-62.12H676.45c-1.73,5.39-3.48,51.54,2.81,62.12" class="cls-10"></path><path transform="translate(-0.46 -0.89)" d="M710.79,1077.59l19.64-1.22s9.32,19.87,1.41,37c-8.64.74-20.51,1.13-20.51,1.13" class="cls-10"></path><line y2="982.67" x2="695.41" y1="963.83" x1="695.41" class="cls-10"></line><line y2="1124.86" x2="695.41" y1="1146.8" x1="662.07" class="cls-10"></line><line y2="1050.13" x2="692.39" y1="1062.74" x1="692.39" class="cls-10"></line><rect rx="8.63" height="143.52" width="17.26" y="990.98" x="544.28" class="cls-10"></rect><circle r="8.05" cy="999.03" cx="510.98" class="cls-5"></circle><circle r="8.05" cy="1038.19" cx="510.98" class="cls-5"></circle><circle r="8.05" cy="1077.34" cx="510.98" class="cls-5"></circle><circle r="8.05" cy="1116.49" cx="510.98" class="cls-5"></circle><circle r="8.05" cy="1006" cx="591.58" class="cls-5"></circle><circle r="8.05" cy="1045.16" cx="591.58" class="cls-5"></circle><circle r="8.05" cy="1084.31" cx="591.58" class="cls-5"></circle><circle r="8.05" cy="1123.46" cx="591.58" class="cls-5"></circle><path transform="translate(-0.46 -0.89)" d="M1033.85,698.07s67.2,16.12,79.67,32.32,69.74,265.64,47.06,493.55" class="cls-10"></path><polyline points="169.69 383.91 81.52 371.16 164.07 334.11 248.77 339.19" class="cls-10"></polyline><polyline points="81.52 371.16 81.52 640.27 169.69 648.65 169.69 383.91 248.77 340.91" class="cls-10"></polyline><ellipse ry="27.95" rx="21.81" cy="513.11" cx="124.46" class="cls-10"></ellipse><ellipse ry="27.95" rx="21.81" cy="592.15" cx="124.46" class="cls-10"></ellipse><ellipse ry="27.95" rx="21.81" cy="434.08" cx="124.46" class="cls-12"></ellipse><polyline points="1079.17 392.06 991 379.31 1073.55 342.25 1158.25 349.06" class="cls-10"></polyline><polyline points="991 379.31 991 648.42 1079.17 656.79 1079.17 392.06 1158.25 349.06 1158.25 600.29" class="cls-10"></polyline><ellipse ry="27.95" rx="21.81" cy="521.26" cx="1033.94" class="cls-10"></ellipse><ellipse ry="27.95" rx="21.81" cy="600.29" cx="1033.94" class="cls-10"></ellipse><ellipse ry="27.95" rx="21.81" cy="442.22" cx="1033.94" class="cls-12"></ellipse><line y2="600.29" x2="1158.25" y1="656.79" x1="1079.17" class="cls-10"></line><line y2="642.54" x2="184.87" y1="648.65" x1="169.7" class="cls-10"></line><path transform="translate(-0.46 -0.89)" d="M396.64,983.56S290.73,944.83,301,862.15" class="cls-11"></path><path transform="translate(-0.46 -0.89)" d="M275.56,830.51s-18.67,70.37,28.1,124.58c23,28.47,68.31,47.54,88.58,52.89" class="cls-11"></path><path transform="translate(-0.46 -0.89)" d="M322.52,871.66S310.33,884.3,304,898.21" class="cls-11"></path><path transform="translate(-0.46 -0.89)" d="M258.55,979.41S275.6,1031,389,1065.64" class="cls-10"></path><path transform="translate(-0.46 -0.89)" d="M285.09,926.49s-26.28,37.62-26.54,52.92" class="cls-10"></path><path transform="translate(-0.46 -0.89)" d="M266.78,953s-47.3,5.95-30.65,47C266.78,1055.32,361,1098.4,387,1095.41" class="cls-10"></path><path transform="translate(-0.46 -0.89)" d="M246.16,1015s-42.15,87.38-26.68,209" class="cls-10"></path><path transform="translate(-0.46 -0.89)" d="M113.18,1047.13l-17,16.51s37.53,79.17,101.93,106c18.47-14.46,18-14.67,18-14.67-79.09-38.64-102.88-107.85-102.88-107.85,23.81-61.44,61.22-67,82.48-73,3.41-62.14,76.16-89.2,76.16-89.2" class="cls-10"></path><path transform="translate(-0.46 -0.89)" d="M96.17,1063.64s-51,37.12-36.57,50.81,29.77,0,29.77,0S40,1141.74,64.7,1184.26s78,47.32,133.4-14.61" class="cls-10"></path><path transform="translate(-0.46 -0.89)" d="M1113.52,730.39s-66.61,16.76-107.43,77.14c7.65,40,21,102,42.13,207.13" class="cls-10"></path><path transform="translate(-0.46 -0.89)" d="M732.18,1003.53s91.93-36,137.79-68.89c61.29-43.93,95.58-85.44,95.58-85.44s24.19-.06,17.39,18.24c-16.31,15.07-53.1,55.14-105.83,93.56-55.89,40.73-127.42,65.8-142.08,66.29" class="cls-10"></path><path transform="translate(-0.46 -0.89)" d="M823.93,993.4s8.68,71.84,53.75,91.8c5.1,31,8.5,70.14,47.62,78.65s131.71-40.15,146.6-61.14-15.64-97.77-49.65-109.31c0,0,24.48-80.59-58.59-102.39" class="cls-10"></path><line y2="799.36" x2="975.4" y1="806.64" x1="1005.63" class="cls-10"></line><path transform="translate(-0.46 -0.89)" d="M925.3,1163.85l12.76,24.66s98.2-16.71,149.67-69.07l-12-23.89" class="cls-10"></path><path transform="translate(-0.46 -0.89)" d="M1087.73,1119.44s61.23,68.22,0,108.19-108.09-31.47-108.09-31.47,20.46,33.2,10.25,39.15-37.08,9.66-51.83-46.8" class="cls-10"></path><path transform="translate(-0.46 -0.89)" d="M732.18,1081s96-15,108-34.92" class="cls-10"></path><path transform="translate(-0.46 -0.89)" d="M735,1109.34s109.79-19.19,121.77-39.16" class="cls-10"></path><path transform="translate(-0.46 -0.89)" d="M221.39,1102.71s303.5,167.73,662.73,21.65" class="cls-10"></path><path transform="translate(-0.46 -0.89)" d="M221.39,1132.41s317,161.36,676.23,15.28" class="cls-10"></path><path transform="translate(-0.46 -0.89)" d="M956.75,857.14s0-28,21.92-25.32,31.37,40.44,17,52.91-27.68,3-28.39,0" class="cls-10"></path><path transform="translate(-0.46 -0.89)" d="M876.68,701.34l29.91,9s-16.44,82.21-67.46,99.78C839.13,810.08,882.35,770.74,876.68,701.34Z" class="cls-10"></path><path transform="translate(-0.46 -0.89)" d="M416,387.83s-61.63,95.7-47.45,193.78c0,0-33.46-2.92-58-30.22-5.1-22.59,38.11-137,67-151.72S416,387.83,416,387.83Z" class="cls-10"></path><path transform="translate(-0.46 -0.89)" d="M308.37,605.16l52.16,20.15s-5.72,38.46,2.58,47l-54.74-8.92S292.51,637.89,308.37,605.16Z" class="cls-10"></path></svg>