<svg viewBox="0 0 1200 1228.16" xmlns="http://www.w3.org/2000/svg" id="图层_1"><defs><style>.cls-1{fill:#c8f440;}.cls-2{fill:#fff;}.cls-3{fill:#fff13e;}.cls-4{fill:#80e1ff;}.cls-5{fill:#ff9fcf;}.cls-6,.cls-7{fill:none;stroke:#231815;stroke-width:10px;}.cls-6{stroke-miterlimit:10;}.cls-7{stroke-linecap:round;stroke-linejoin:round;}</style></defs><title>5木乃兔-rgb</title><rect height="1200" width="1200" class="cls-1"></rect><path transform="translate(0 -1.39)" d="M543,24.82S442.39,80.94,436.72,125.16c31.62,33.2,163.28-12.6,163.28-12.6l22.6-44S583.55,22,543,24.82Z" class="cls-2"></path><path transform="translate(0 -1.39)" d="M500.84,370.79,364.65,406.91S196,465.28,222.24,295.79c12.18-61.59,32.25-125.63,41.16-133.39,19.75,6,88.91,13.24,270.58,196.63,3.93-13.37-17.71-120.78-17.71-120.78l-14.86-16.77S347.12,51.52,236.58,88.34s-81.36,288.54-81.36,288.54S183,497.73,255.49,500.44c14.26-3.26,49.43-11.16,49.43-11.16l84.38-11.49Z" class="cls-2"></path><path transform="translate(0 -1.39)" d="M197.11,1222.17h796.1s20.16-10.28,5.66-61c11.44-2.53,88.24-21.79,48.21-121.85S920.56,835.75,920.56,835.75s37.35-38.61,18.83-146.12c51.08,51.1,69.36,79.66,132.57,49.57-26.36-.62-40-24.62-55.27-48.34,22,3.83,65.76,10.3,74-28.25-36.38,2.27-61.4,2-83.05-29.21s-90.09-133.78-144-157.73c-69.79-52.26-121.46-94.19-121.46-94.19s84.18-184.63-7.46-289.07c7.29-12.32,10.76-20.82,0-33.33S686,18.32,686,18.32s-20.83-1.7-38.27,18.73A505.43,505.43,0,0,0,614.92,81l-51,23.1L534,145.2s-25.83,44.59-14.49,111.49S534,359,534,359l-81.56,36-147.5,94.26s-62.61,92.38-163.26,90.33c-40.57.23-83.37,24.8-83.37,24.8s44.32-5.86,87.78,18.8c-23.43,21.26-49.51,46-49.51,67.65,40.62-17.45,60.09-27.11,96.38-29.38s73.37-20.6,73.37-20.6S254.75,757.7,304.92,803.13c-54.16,18.22-240,90.16-241.78,206.7,6.3,96.12,149.07,44.43,149.07,44.43S184.5,1172.37,200.05,1227" class="cls-2"></path><path transform="translate(0 -1.39)" d="M761.73,277.1S874.15,127.28,985.38,106.38s134.58,75.35,142.19,185.4-16.21,223-112.59,227.76C918.46,493,813.16,457.38,813.16,457.38l-64.35-76.25,87.58,28.7s205.32,66.83,218-14.81c7-66.9,5.64-142.11-35-210.52C987.77,193.19,892.53,231.75,729.25,395Z" class="cls-2"></path><path transform="translate(0 -1.39)" d="M452.42,523.2s26.39-2.55,37.66,21.94,47.72,88.66-29.47,136C394.36,699.7,359.28,541.39,452.42,523.2Z" class="cls-3"></path><ellipse ry="139.43" rx="78.32" cy="621.32" cx="683.41" class="cls-4"></ellipse><path transform="translate(0 -1.39)" d="M451.94,1012.14A384,384,0,0,0,476.75,1051c7,9.57,14,21.48,24.6,27.55,9.94,5.71,21.27,7.72,32.52,4.43,12.41-3.62,19.15-12.08,26.66-21.84l-5.86,7.59A404.19,404.19,0,0,1,595,1023.88c14.23-13.55,14.67-39.56,0-53-15.27-14-37.85-14.46-53,0-17.42,16.6-32.69,34.87-47.35,53.91l5.86-7.59a18.14,18.14,0,0,1-2,2.3l7.59-5.86-1.1.8,9-3.78-1.19.35h19.94l-1.26-.25,9,3.78-1.18-.75,7.59,5.87a63.18,63.18,0,0,1-5.36-6.41l5.86,7.59a383.59,383.59,0,0,1-30.6-46.53c-9.61-17.12-34.49-24.29-51.31-13.45-17.32,11.16-23.73,33-13.45,51.31Z" class="cls-5"></path><path transform="translate(0 -1.39)" d="M474.29,387.7C445.82,403.64,255.46,490.88,266.8,701.78S599,907,599,907s197.28,11.34,288-40.82S935.77,672.3,923.3,638.28s-99.78-269.86-274.39-291.4C574.07,338.94,502.77,371.76,474.29,387.7Z" class="cls-6"></path><polyline points="518.23 679.7 536.94 699.25 569.25 679.7" class="cls-7"></polyline><polyline points="536.94 699.25 536.94 737.8 511.14 753.11" class="cls-7"></polyline><line y2="761.05" x2="563.87" y1="737.8" x1="536.94" class="cls-7"></line><polyline points="524.04 745.46 524.04 791.1 550.4 791.1 550.4 753.11" class="cls-7"></polyline><ellipse ry="78.94" rx="54.43" cy="600.75" cx="452.42" class="cls-7"></ellipse><ellipse ry="139.13" rx="78.32" cy="621.82" cx="683.41" class="cls-7"></ellipse><line y2="637.5" x2="468.34" y1="568.53" x1="436.51" class="cls-7"></line><line y2="632.01" x2="427.89" y1="574.02" x1="476.96" class="cls-7"></line><line y2="689.47" x2="724.31" y1="568.53" x1="647.77" class="cls-7"></line><path transform="translate(0 -1.39)" d="M313.86,813.32S175.4,1006.49,200.05,1227" class="cls-6"></path><path transform="translate(0 -1.39)" d="M304.92,803.13s-262.4,86.9-240.48,217c17.81,61.65,107.15,56.54,146,34.44" class="cls-6"></path><path transform="translate(0 -1.39)" d="M920.56,835.75s163.06,198.13,134.29,277.59-137,61-200-52.68-80.62-161-80.62-161" class="cls-6"></path><path transform="translate(0 -1.39)" d="M998.87,1161.19s13.51,33-5.66,65.84" class="cls-6"></path><path transform="translate(0 -1.39)" d="M697.79,24.82S745.41,57.13,742,80.09s-97,76.54-131.81,78.24-7.87-70.51,31.46-114.81C679.08,1.39,697.79,24.82,697.79,24.82Z" class="cls-6"></path><path transform="translate(0 -1.39)" d="M622.6,68.51S568.53,18.86,543,24.82s-114.81,83.33-106.3,100.34,45.93,21.58,163.28-12.6" class="cls-6"></path><path transform="translate(0 -1.39)" d="M734.72,92.41s91.82,84.75,7.46,289.07c0,0,313.62-321,367.2-150.87S1089.82,541.07,998.83,516.8,827.16,461,827.16,461" class="cls-7"></path><path transform="translate(0 -1.39)" d="M546,127s-58,54.22-7.93,233.28" class="cls-6"></path><path transform="translate(0 -1.39)" d="M460.61,395S559,454.15,774.23,405.31" class="cls-6"></path><path transform="translate(0 -1.39)" d="M271.18,886.41s194.44,218.15,520.57,52.88" class="cls-6"></path><path transform="translate(0 -1.39)" d="M222.64,1007.68S353.7,1135.56,686,981.58" class="cls-6"></path><path transform="translate(0 -1.39)" d="M200.09,1118.28s272.12,106,632.37-98.74" class="cls-6"></path><path transform="translate(0 -1.39)" d="M877.79,1095.59s-192.31,104.23-313.92,126.58" class="cls-6"></path><path transform="translate(0 -1.39)" d="M720.83,1170.53s115.57,27.31,256.73-9.34" class="cls-6"></path><path transform="translate(0 -1.39)" d="M636.3,512.07c-159.34,19.59-292.44-28-292.44-28" class="cls-6"></path><path transform="translate(0 -1.39)" d="M748.81,409.83s211.75,281,7.47,492.16" class="cls-6"></path><path transform="translate(0 -1.39)" d="M879.09,540.53s87.42,140.56-1.35,330.6" class="cls-6"></path><path transform="translate(0 -1.39)" d="M360.39,489.28S215.79,737.2,460.61,890" class="cls-6"></path><path transform="translate(0 -1.39)" d="M724.31,504.54s35.49-4.05,71.24-15.26" class="cls-6"></path><path transform="translate(0 -1.39)" d="M759.93,589.31c22.45-5.44,44.93-11.85,67.23-19.39" class="cls-6"></path><path transform="translate(0 -1.39)" d="M505.93,616.61c30.8.22,64.2-.68,99.17-3.37" class="cls-6"></path><path transform="translate(0 -1.39)" d="M322.33,601.39S351,606.85,398,611.23" class="cls-6"></path><path transform="translate(0 -1.39)" d="M797,950.22s115.09,30.44,180.57-31.64" class="cls-6"></path><path transform="translate(0 -1.39)" d="M998.35,943.78s-4.38,57.07-145.24,113.73" class="cls-6"></path><path transform="translate(0 -1.39)" d="M882.49,1044.8s61.39,25,167.61,3.26" class="cls-6"></path><path transform="translate(0 -1.39)" d="M916.24,1134.13s52.74-10.52,95.3-79.87" class="cls-6"></path><path transform="translate(0 -1.39)" d="M222.64,837.69s26.6,28.14,17,120" class="cls-6"></path><path transform="translate(0 -1.39)" d="M122.07,897.69s66,16.51,106.13,92.26" class="cls-6"></path><path transform="translate(0 -1.39)" d="M147.29,908.05s33.48,37-21.38,160.24" class="cls-6"></path><path transform="translate(0 -1.39)" d="M69.44,970.79S78.7,1030,134,1048.86" class="cls-6"></path><path transform="translate(0 -1.39)" d="M325.08,715.14s96.33,27,296.17,0" class="cls-6"></path><path transform="translate(0 -1.39)" d="M748.81,700.64s65.44-9.33,96.07-28.78" class="cls-6"></path><path transform="translate(0 -1.39)" d="M394.36,837.69s192,59.81,450.52-138" class="cls-6"></path><path transform="translate(0 -1.39)" d="M917.55,717.32q10.94-8.33,21.84-17.62" class="cls-6"></path><path transform="translate(0 -1.39)" d="M647.77,811.61s84.45,5.28,186.62-43.47" class="cls-6"></path><path transform="translate(0 -1.39)" d="M897.64,825.51a243.73,243.73,0,0,0,41.64-33" class="cls-6"></path><path transform="translate(0 -1.39)" d="M626.35,908.05s72-6.52,151.37-30.31" class="cls-6"></path><path transform="translate(0 -1.39)" d="M518.23,230.05s94.6,51.6,257,32.88c0,0,161.65-209.79,283-147.21,82.49,42.52,69.29,229.94,69.29,229.94" class="cls-6"></path><path transform="translate(0 -1.39)" d="M537.91,345.66s142.63-3.41,231.62-49.87" class="cls-6"></path><path transform="translate(0 -1.39)" d="M541.13,132.93s112.59,67.92,228.4,35.6" class="cls-6"></path><path transform="translate(0 -1.39)" d="M1019.39,184.5s61.92,105.64,33.86,215.34c-22.85,89.32-304.44-18.71-304.44-18.71" class="cls-6"></path><path transform="translate(0 -1.39)" d="M540.61,359.38S227,38.43,173.41,208.51,193,519,284,494.7s59.9-16.21,59.9-16.21" class="cls-7"></path><path transform="translate(0 -1.39)" d="M517.71,240S345.92,31,224.52,93.62C142,136.14,155.23,323.56,155.23,323.56" class="cls-6"></path><path transform="translate(0 -1.39)" d="M263.4,162.4S201.47,268,229.54,377.74C252.39,467.06,534,359,534,359" class="cls-6"></path><path transform="translate(0 -1.39)" d="M857.6,472.31s67.24,32.05,144.63,154.54c24.66,30.66,43.37,46,88.44,35.76,0,0-15.31,45.45-74,28.25,0,0,23.81,49.23,55.27,48.34,0,0-52.54,58.23-132.57-49.57" class="cls-7"></path><path transform="translate(0 -1.39)" d="M304.92,489.28s-50.19,84.89-171.79,94.24c-45.07.85-74.84,20.89-74.84,20.89s71.43.29,91.84,22.44c0,0-52.72,23.39-53.57,64,0,0,59.07-30,95.24-30,45.07,0,77.75-22,77.75-22" class="cls-7"></path></svg>