<svg viewBox="0 0 1200 1226.61" xmlns="http://www.w3.org/2000/svg" id="图层_1"><defs><style>.cls-1{fill:#92f0ff;}.cls-13,.cls-2{fill:#8ed60f;}.cls-3{fill:#ea0f1f;}.cls-4{fill:#67b15c;}.cls-5{fill:#ffc85a;}.cls-6{fill:#fff;}.cls-7{fill:#ffda00;}.cls-8{fill:#ffcce4;}.cls-9{fill:#b6ecff;}.cls-10{fill:#84c14c;}.cls-11,.cls-12{fill:none;}.cls-11,.cls-12,.cls-13{stroke:#231815;stroke-width:10px;}.cls-11{stroke-miterlimit:10;}.cls-12,.cls-13{stroke-linecap:round;stroke-linejoin:round;}</style></defs><title>6小丑兔-rgb</title><rect height="1200" width="1200" class="cls-1"></rect><path transform="translate(0.01 -0.65)" d="M616.51,313.36s-19.87-49.19,6.75-74.85,90-86.56,164.38-99.74,132.46-13.1,132.46-13.1,91.37,112.66,99.5,247.47c-12-15.93-71-82-71-82L851,270.47s4.43,52.67-21.6,72.78C807,336.16,718.08,307.57,616.51,313.36Z" class="cls-2"></path><path transform="translate(0.01 -0.65)" d="M612.92,246S574.08,175.68,443,115.47C377.74,138,271.34,254.05,261,349.67c38.84-5.06,79.58-9.12,146.9-44.05,19.36,29.88,21.89,46.61,46.14,38.69s101.86-33.63,162.43-30.95C616.51,313.36,600.91,274.53,612.92,246Z" class="cls-3"></path><path transform="translate(0.01 -0.65)" d="M1019.6,373.14s24-1.81,34.14,7.32,45.07,52.44-13,80.47c-22.36,7.62-53.54-6.56-58.64-34.9S1003.81,375.81,1019.6,373.14Z" class="cls-3"></path><path transform="translate(0.01 -0.65)" d="M254.91,349.67s23.57,8.7,32.19,33.27-19.67,47-19.67,47-42.76,22.11-62.79-17.19S226.56,339.84,254.91,349.67Z" class="cls-4"></path><path transform="translate(0.01 -0.65)" d="M403.62,1087.88s142.87,47.95,303.88,28.57c4.53-48.42,7.23-93.59,7.23-93.59l-19.49-23.13s-14.79-31-6.37-76.27C677,936.16,622.47,994.33,542,1010c-21.46,5.42-67.39,14.15-81.94-46.22-2.82-31.38,2.13-74.69,2.13-74.69L426.42,918.3S384.91,1049.5,403.62,1087.88Z" class="cls-2"></path><path transform="translate(0.01 -0.65)" d="M288.61,945.14s23.3,14.5,42.51,12.65c-9.49,33.81-20.5,83.47-19.34,109-19.85-5.23-52.54-10.18-62.34-28.14C256.33,1017.1,288.61,945.14,288.61,945.14Z" class="cls-2"></path><path transform="translate(0.01 -0.65)" d="M810.52,926.71s53.46,67.47,107.31,71h31.54l23.94-22,31.38-53.33,21.12-45.28s73.12,21.36,102.61,60,39.13,77.34,20.36,116.95-30.33,28.78-30.33,28.78l-33.29,20.69s-93.07,17.6-108.38-4.49c-6.09-14.26-6.12-11.52-6.12-11.52s-100.08,48.35-164.33,16.77C811.15,1067.55,814.33,957.6,810.52,926.71Z" class="cls-2"></path><path transform="translate(0.01 -0.65)" d="M261.66,913.88s-49.4,34-77.45,1.61c-16.85,9.76-96.51,50.24-105.65,91.82,10.42,38.17,56.95,118,163.79,57.67a315,315,0,0,1,15.34-44.46l30.92-75.38Z" class="cls-2"></path><path transform="translate(0.01 -0.65)" d="M610.75,344.31s78.72-17.17,125.82,8.72c18.79-2.3,66,7.61,129.19,44.35s149.83,161.23,149.83,161.23,74.79,107.32,71.05,132.16l-3.74,24.84-39.44,14.31S943.46,895,936.88,894.82s-279,24.93-279,24.93l-147.34-9.44-145.86-42.8L307.15,729.92,303,679.28s-21.68,32-93.24-7.26c-40-30-7.57-77.86-7.57-77.86S239.78,501.65,350.33,429C441.32,383.53,551.72,338.72,610.75,344.31Z" class="cls-5"></path><path transform="translate(0.01 -0.65)" d="M227.62,699.65l79.53,30.27s-15.33-78,9.49-142.76,77.21-157.5,209.61-214c63.55-28.93,74.3-25.89,74.3-25.89l13.89-1.56-13.89,32.15L577.87,502s-6.23,71.92-4,96.34,4,39.72,4,39.72l-11.06,13.6L531.1,658s-24,8.82-20.51,87.16S524,875.59,524,875.59L539.9,892.2,579,895s-3.68-83.41,53.29-82.56c40,0,64.63,33.32,62.25,88.09l56.81-1.35s54.32-100.68,96.47-98c38.74,1.86,42.76,74.42,42.76,74.42l33.12-16.27s25.79-12.92,30-64.79c17-46.77,33.57-76.73,61.85-80.46s42.83,10.42,42.83,10.42,22.93,25.46-9,113.65c-27.66,78.85-48.28,106.09-48.28,106.09l-24.62,42.82-14.93,14-33.86.85-22.16-2.39s-40.42-13.62-62-39.14S807,916.21,807,916.21s-4.7,121.49-54.4,119.38-44.4-17.46-44.4-17.46l-15.39-47.45,2-41.35s-63,71.44-146.92,86.52c-21.83,6.59-77.1,15.09-84.76-60.59L468,895s-67.76,61.7-111.19,67.38-90.31-6.27-101.74-81.51c-21.63.45-40.13-30.66-45.34-78.46S206.47,703.42,227.62,699.65Z" class="cls-6"></path><path transform="translate(0.01 -0.65)" d="M433.36,517.57s20,18.86,26.54,54.37c17.69,4.89,53.09,27.82,53.09,27.82s-30.34,27.43-51.61,27.58c-2.19,5.39-20.4,50.1-28,51.76a17.06,17.06,0,0,1-9.72-4.61l-20.22-46.9s-34.55-1.49-51.85-27.83c4.25-12.35,40.48-28.48,51.85-29.11C411.38,547.35,420.57,520.66,433.36,517.57Z" class="cls-7"></path><path transform="translate(0.01 -0.65)" d="M438.78,420.3s-131.31,72.75-167,150.35c-26.66,61.17-2.91,94.59,30.85,94.32C304.58,637.69,332.19,499.67,438.78,420.3Z" class="cls-8"></path><path transform="translate(0.01 -0.65)" d="M673.08,505.34s28.74-50.45,77-17.26,47.16,131.84,47.16,131.84S798.48,746.65,723,755.85C660.07,765.05,643.3,644,643.3,644S636.19,549.51,673.08,505.34Z" class="cls-9"></path><path transform="translate(0.01 -0.65)" d="M454.08,344.31l15,26.45s175.05-59.3,354.1-4.43c7.56-17.78,6.25-23.08,6.25-23.08S643.25,277.63,454.08,344.31Z" class="cls-6"></path><polygon points="558.99 740.64 560.98 785.25 585.53 783.68 587.1 743.58 573.92 732.2 558.99 740.64" class="cls-6"></polygon><path transform="translate(0.01 -0.65)" d="M181.85,878.29s24.13-4.8,26.67,2.77,1.23,20.05,1.23,20.05l-19.67,20.25s-43.5,26.5-45.84,28.64-58.9,39.74-59.82,63.18c-19.56.84-29.27-1.37-29.27-1.37s-12.61-7.38-5.5-19.76,32.72-15.92,32.72-15.92l16.32-5.45L97,959.59s-21.81-13.69-12.53-33,31.41-23.32,31.41-23.32l16.22,7,18.25,10.75,14.46-1.31,8.32-13.53S169.7,880.88,181.85,878.29Z" class="cls-2"></path><path transform="translate(0.01 -0.65)" d="M610.75,308.77l-55.9-43.22,19-66.15-54.67-43.88-27.54,66.41-65.76-33.45-16.69,72.19L349.52,238.1s-10.85,77.61,1.32,94.22c37.67-14,57.1-26.7,57.1-26.7l1.3-40.07h9.89l57.17,38.71,0,28.06,34.32-6.79L479.9,304.26l-6.35-10.47,13.58-64.51,5.7-3.38,53.44,34.77,8.35,11.15.29,48.16,55.84-7.58Z" class="cls-6"></path><path transform="translate(0.01 -0.65)" d="M454.09,119.94l-28.16,68.54-53.86-21L421,125.67S442.89,113.66,454.09,119.94Z" class="cls-6"></path><polygon points="361.31 174.27 352.24 236.02 320.5 226.95 361.31 174.27" class="cls-6"></polygon><polygon points="358.48 330.37 278.48 293.14 287.12 301.22 293.49 347.3 358.48 330.37" class="cls-6"></polygon><path transform="translate(0.01 -0.65)" d="M184.67,875.59s6.29-40.24-20.51-47S144.41,862,144.41,862,78.59,821.65,41.93,852,19.09,939.19,31.74,958.7s29.35,22.87,29.35,22.87l28.62-6s9.91-13.09,7.24-16-13.51-14.51-13.51-14.51-5.67-8.06,6.27-20.91a122.68,122.68,0,0,1,26.12-20.86l21.55,7,18.7,10.22s17-.45,19-10.22,0-27.54,0-27.54Z" class="cls-5"></path><path transform="translate(0.01 -0.65)" d="M135.9,665s61.65,45.21,2.64,105.81C114.12,795.66,58,788.66,38.71,745.11s16.95-91.64,51-91.13S135.9,665,135.9,665Z" class="cls-3"></path><path transform="translate(0.01 -0.65)" d="M153,684.27l10.49,25.79s-40.27,24.56-38.93,70.45c-27.26,4.41-34.06,0-34.06,0S96.43,708.83,153,684.27Z" class="cls-6"></path><path transform="translate(0.01 -0.65)" d="M132.68,662.88S67,689.45,63.65,774c-18.22-17.09-21.08-24.84-21.08-24.84s-5-79.88,63.31-94.09C124.8,659.4,132.68,662.88,132.68,662.88Z" class="cls-6"></path><path transform="translate(0.01 -0.65)" d="M989.76,1136.34s-7.78,75.44,12.68,73.74,13.15-32.32,13.15-32.32,17.29,28,24.54,32.35a64.74,64.74,0,0,0,64.15-.19c30.31-16.84,42.87-50.14,19.3-69.49l-28.41-9.6-17.38,3-15.49,13.92s-24.65,7.87-39.39-4S989.76,1136.34,989.76,1136.34Z" class="cls-5"></path><path transform="translate(0.01 -0.65)" d="M807,924.6l5.22,8a461.1,461.1,0,0,1,6.49,68.47c.7,37.54-6.11,105.06-7.81,114.34l12.82,1.87s83.76,7.09,132.42-15.38l-7,20.93s.53,10.24,14,13.53,26.66,0,26.66,0l2.25,57,7.65,33.16L233,1222.26s1.41-128.8,22.34-177.79c19.82,14.53,62.34,28.14,62.34,28.14s.42-64.84,19.34-109c39.33-7.54,74.28-31.37,101.79-39.48-10.58,26.83-48.85,126.95-29.29,169.58,41.67,12.88,139.18,38.31,303.87,28.57l7.24-93.59s43.33,26,65.52-17.79C805.77,957,807,924.6,807,924.6Z" class="cls-3"></path><path transform="translate(0.01 -0.65)" d="M978.24,1099.25s-39.85,14-27.92,27.68,34.27,9.41,34.27,9.41l20.52-5.51,21.85,15.6s24.85,11.92,35.34,1.36,28.72-17.31,28.72-17.31l20.45,5.86,22.82,3.12,12.7-8.63V1110.2l-22.67-21.5Z" class="cls-10"></path><circle r="23.66" cy="1106.28" cx="365" class="cls-9"></circle><circle r="22.98" cy="1135.69" cx="760" class="cls-9"></circle><path transform="translate(0.01 -0.65)" d="M887.46,875.59a207.5,207.5,0,0,0,36.24-16" class="cls-11"></path><path transform="translate(0.01 -0.65)" d="M690.49,901.71c17.28-.15,37.77-.81,60.21-2.46" class="cls-11"></path><path transform="translate(0.01 -0.65)" d="M537.53,891.78c19.26,3.5,27.48,4.65,42.89,6.09" class="cls-11"></path><path transform="translate(0.01 -0.65)" d="M816.39,406c-37.63-35.25-76.9-59.08-130.8-65.73-74.84-7.94-146.14,24.88-174.62,40.82S292.14,484.29,303.48,695.19c4.1,76.38,48.81,124.35,104.17,154.47" class="cls-11"></path><path transform="translate(0.01 -0.65)" d="M980.55,741.26" class="cls-11"></path><polyline points="554.93 673.85 573.63 693.4 605.95 673.85" class="cls-12"></polyline><polyline points="573.63 693.4 573.63 731.96 547.84 747.26" class="cls-12"></polyline><line y2="755.2" x2="600.56" y1="731.96" x1="573.63" class="cls-12"></line><polyline points="560.74 739.61 560.74 785.25 587.1 785.25 587.1 747.26" class="cls-12"></polyline><ellipse ry="139.13" rx="78.32" cy="615.97" cx="720.11" class="cls-12"></ellipse><line y2="683.63" x2="761" y1="562.68" x1="684.47" class="cls-12"></line><path transform="translate(0.01 -0.65)" d="M994.74,729.92c-55.42-14-75-73.85-81.44-134.37C906.45,530.74,859.44,420.76,761,364.44" class="cls-12"></path><path transform="translate(0.01 -0.65)" d="M728.68,350.33s172.71-30.77,358.1,329.8c0,0,19.19,32.63-24,46.76" class="cls-12"></path><path transform="translate(0.01 -0.65)" d="M610.75,344.31S292.51,360.38,192.59,616.62c0,0-18.29,50.54,43.79,67.65s66.61-5,66.61-5" class="cls-12"></path><path transform="translate(0.01 -0.65)" d="M470.4,373.14l-16.32-28.83s177.74-69.64,378.43,0l-9.36,22" class="cls-12"></path><path transform="translate(0.01 -0.65)" d="M616.51,246.43S553.58,158,443,115.47c-40,11.9-168.38,133.36-182,234.2,16.16-1.19,99.5-9.7,148.82-45.41,6.81,24.66,17.86,39,44.22,40.05" class="cls-12"></path><circle r="44.65" cy="417.13" cx="1029.26" class="cls-12"></circle><circle r="44.65" cy="391.25" cx="244.11" class="cls-13"></circle><path transform="translate(0.01 -0.65)" d="M573.9,201.36s-28.71,55.27-19,118.62" class="cls-12"></path><path transform="translate(0.01 -0.65)" d="M519.23,155.52s-54.06,91.42-40.89,180.88" class="cls-12"></path><path transform="translate(0.01 -0.65)" d="M454.08,119.94s-51,85.67-44.22,184.32" class="cls-12"></path><path transform="translate(0.01 -0.65)" d="M364.73,174.92s-33,107.23-13.89,157.4" class="cls-12"></path><path transform="translate(0.01 -0.65)" d="M293.48,265.55s-14.34,52.69,0,80.14" class="cls-12"></path><path transform="translate(0.01 -0.65)" d="M369,170.68s82.56,10.63,247.54,142.68c0,0-15.31-47.37,0-66.93S737.26,112.07,920.1,125.67c34,24.66,100.35,183.69,99.5,247.47-23.82-34.07-73.34-84-73.34-84s-60-9.74-88.24-19.75c-19-6.75,7.65,27.11-25.51,69.68" class="cls-12"></path><path transform="translate(0.01 -0.65)" d="M317.83,229.28S427.64,252.42,505,325.53" class="cls-12"></path><path transform="translate(0.01 -0.65)" d="M278.47,293.79s48.9,18.61,76.34,37.23" class="cls-12"></path><path transform="translate(0.01 -0.65)" d="M684.45,186.67S651.37,244.87,665,312.4" class="cls-12"></path><path transform="translate(0.01 -0.65)" d="M750.11,151.76s-41.92,86.52-21.43,161.6" class="cls-12"></path><path transform="translate(0.01 -0.65)" d="M816.39,131.8S764.48,229.38,792.54,331" class="cls-12"></path><path transform="translate(0.01 -0.65)" d="M871.56,125S832.07,231.59,851,270.47" class="cls-12"></path><path transform="translate(0.01 -0.65)" d="M931.92,137.82s-36.57,66.82-22.07,139.59" class="cls-12"></path><path transform="translate(0.01 -0.65)" d="M969.68,204.25s-18.19,56.37-8.83,100" class="cls-12"></path><path transform="translate(0.01 -0.65)" d="M1004.16,293.79s-13.88,33.81-6,51.9" class="cls-12"></path><path transform="translate(0.01 -0.65)" d="M255.09,880.82S213.8,883.24,210,776.22s33.17-76.53,40.82-58.67,15.74,36.56,5.53,78.23c-5.53,26.37-5.83,136.07,46.62,159.88S383.5,936.1,383.5,936.1s17.67-39.27,21.17-88.09,25.6-55.63,37.51-53.93,46.48-2.55,22.39,119.91c-3.68,34.86-4.53,91.84,44.79,104.6S566.82,998,573.62,949.7s2.09-145.41,64.16-137.76,57.75,81.64,56.51,137.76,10.66,85.89,58.28,85.89S807,924.19,807,924.19s-2.55-119.05,40.82-121.6,42.52,52.72,45.07,131.81,57,70.58,57,70.58,39.73-4.18,40.54-74.83c.22-19.47-.09-32.3-5.81-72.29-8.63-72,.63-147.3,44.65-146.27,14.54,1,82.69.66-9.64,198.15a314.38,314.38,0,0,1-32.49,56.09" class="cls-12"></path><line y2="731.96" x2="309.19" y1="699" x1="231.99" class="cls-12"></line><path transform="translate(0.01 -0.65)" d="M330,962.7s46,14.69,138-67.75" class="cls-12"></path><line y2="891.13" x2="537.55" y1="800.52" x1="461.58" class="cls-12"></line><path transform="translate(0.01 -0.65)" d="M531.1,1021.24s88.53-6.91,163.64-91.91" class="cls-12"></path><path transform="translate(0.01 -0.65)" d="M1015.59,714.07S974.14,721,953,804.57c-10.46,36.17-20.86,50.63-33.52,57.38" class="cls-12"></path><path transform="translate(0.01 -0.65)" d="M949.86,1005S887.73,1021.14,807,921.36" class="cls-12"></path><path transform="translate(0.01 -0.65)" d="M847.82,802.59c-23.77-4.76-82.69,68-97.12,96.66" class="cls-12"></path><path transform="translate(0.01 -0.65)" d="M495.49,389.4S248.29,508,261,623.8c5.11,45.91,38.27,41,38.27,41" class="cls-12"></path><path transform="translate(0.01 -0.65)" d="M991.28,1110.15s38,6.88,68.79,4.87c54-3.4,94.51-37.88,101.31-74.16C1187.46,922.09,1030,886.72,1030,886.72" class="cls-12"></path><path transform="translate(0.01 -0.65)" d="M1124.15,1139.86s32.93,44.55-19.87,70.06c-59.21,28.61-82.41-17-84.68-30.61s6.26,34-15.44,30.61c-15.18-2.38-15.62-45-14.4-73.58" class="cls-12"></path><path transform="translate(0.01 -0.65)" d="M991.28,1110.15c-24.06-10.21-15.62-31.75,3.46-49.89,34.86-33.13-14.19-72.69-14.19-72.69s149.26,27.23,167.52-27.2" class="cls-12"></path><path transform="translate(0.01 -0.65)" d="M294.48,951S227.43,1056.72,233,1222.26" class="cls-12"></path><path transform="translate(0.01 -0.65)" d="M982.65,1104.9s-28.81-2.18-32.79,10.91c-4.82,15.88,12.5,26.65,26.67,23.82s29.68-10.44,39.06.45,43.17,16,51.51,3.51,24.21-16.44,35.55-10.2,40.82,14.17,46.49-7.94-25.52-31.7-25.52-31.7" class="cls-12"></path><path transform="translate(0.01 -0.65)" d="M270.57,919.75s-62.35,37.36-80.49,1.61c0,0-85.22,45.92-104.5,86.74-10.21,12.47,47.48,128.91,162.64,62.75" class="cls-12"></path><path transform="translate(0.01 -0.65)" d="M190.08,921.36s40.57-26.74,18.44-40.3-37.9,0-34.5,19.24c0,0,2.81,19.25-16.46,21.43S124.13,892.64,106,907.18s-36.22,30.22-12.47,51c.16-6.58,18.3,18.46-11.34,17.94-30.25-.53-51,32.65-20.41,37.42s23.81-5.47,23.81-5.47" class="cls-12"></path><circle r="65.47" cy="718.19" cx="98.71" class="cls-12"></circle><path transform="translate(0.01 -0.65)" d="M62.61,980.74s-36.37-.42-43.17-63.56,42-92.56,95.25-69.47c32.88,15.13,42.56,20.06,60.4,35.06" class="cls-12"></path><path transform="translate(0.01 -0.65)" d="M144.41,862s-3.34-31.14,19.75-33.4,20.83,47,20.83,47" class="cls-12"></path><path transform="translate(0.01 -0.65)" d="M63.65,774s-3.09-70.68,67.25-112" class="cls-12"></path><path transform="translate(0.01 -0.65)" d="M89.71,780.49s3.82-64.61,60.59-97.22" class="cls-12"></path><path transform="translate(0.01 -0.65)" d="M122,778s0-40.32,38.69-65.83" class="cls-12"></path><path transform="translate(0.01 -0.65)" d="M42.73,752.83s-6.22-70,59.54-99.46" class="cls-12"></path><path transform="translate(0.01 -0.65)" d="M614.44,343.61s-58,160.1-37.29,285.11c0,0,13.07,25.76-43,28.61-18.6,0-36.68,69.06-10.14,218.26" class="cls-12"></path><path transform="translate(0.01 -0.65)" d="M592.67,346.68s-57.62,157-36.89,282c0,0,13.08,25.76-43,28.61-11,3.43-39.71,36.93-17.24,184.3" class="cls-12"></path><path transform="translate(0.01 -0.65)" d="M404.25,570.65s2.73-27.9,29.11-53.08c0,0,20.1,14.38,26.54,53.08" class="cls-12"></path><path transform="translate(0.01 -0.65)" d="M403.42,627.59s-27.91-2.73-53.09-29.11c0,0,14.38-20.1,53.09-26.54" class="cls-12"></path><path transform="translate(0.01 -0.65)" d="M459.9,571.94s27.91,2.73,53.09,29.11c0,0-14.38,20.1-53.09,26.54" class="cls-12"></path><path transform="translate(0.01 -0.65)" d="M459.9,628.55s-2.72,27.91-29.1,53.09c0,0-20.1-14.38-26.55-53.09" class="cls-12"></path><path transform="translate(0.01 -0.65)" d="M442.64,916.21s-51.29,104.86-33.15,177.54c83.9,29.6,248.31,38.88,303.87,28.57,6.81-64.73,7.24-93.59,7.24-93.59" class="cls-12"></path><path transform="translate(0.01 -0.65)" d="M337,963.65s-25.3,80.05-19.34,109c-23-5.1-46.44-12.91-62.34-28.14" class="cls-12"></path><path transform="translate(0.01 -0.65)" d="M816.39,932.58s8.09,134.6-5.52,182.81c45.08,6.93,86.74,11,165.66-21.64" class="cls-12"></path><path transform="translate(0.01 -0.65)" d="M317.65,1072.61s-1.8,56.85,19.34,71.64c24,16.8,87,14.87,72.5-50.5" class="cls-12"></path><circle r="22.98" cy="1106.96" cx="364.32" class="cls-12"></circle><circle r="22.98" cy="1135.69" cx="760" class="cls-12"></circle><path transform="translate(0.01 -0.65)" d="M713.36,1122.32s.18,5.92-2.14,23.31c-2.47,18.49,7.36,35.83,39.48,37.53s48.56.22,60.17-67.77" class="cls-12"></path><path transform="translate(0.01 -0.65)" d="M250.77,929.33s26.27,78.8-41,157.81" class="cls-12"></path><path transform="translate(0.01 -0.65)" d="M232,936.76s-17.48,90.32-94.59,140" class="cls-12"></path><path transform="translate(0.01 -0.65)" d="M185.05,924.17s-37.55,97.2-95.34,106.66" class="cls-12"></path><path transform="translate(0.01 -0.65)" d="M1009,1030.83s83.53,51.25,155.31-16" class="cls-12"></path><path transform="translate(0.01 -0.65)" d="M984.59,1071.65s60.68,52.23,149.7,13" class="cls-12"></path><path transform="translate(0.01 -0.65)" d="M1005.84,936.76s81.06,16.08,94.84-20.55" class="cls-12"></path><path transform="translate(0.01 -0.65)" d="M816.39,1083.27c64-10.5,128.1-30,188.72-62" class="cls-12"></path><path transform="translate(0.01 -0.65)" d="M405.67,1054.27c82.23,21.87,193.22,42.52,310.59,38.63" class="cls-12"></path><path transform="translate(0.01 -0.65)" d="M267.53,1008.24s19.41,8.49,53.07,20.12" class="cls-12"></path><path transform="translate(0.01 -0.65)" d="M818.51,1040.51c55.66-9,111.74-24.66,166.08-49.31" class="cls-12"></path><path transform="translate(0.01 -0.65)" d="M411.62,1012.12c79.87,21.38,189.87,42,307.91,37.91" class="cls-12"></path><path transform="translate(0.01 -0.65)" d="M284.33,969.63s16.55,7.26,45.65,17.42" class="cls-12"></path><path transform="translate(0.01 -0.65)" d="M818.6,995.23q27.66-4.62,55.22-11.57" class="cls-12"></path><path transform="translate(0.01 -0.65)" d="M598.18,1001.47a955.09,955.09,0,0,0,102.92,4.13" class="cls-12"></path><path transform="translate(0.01 -0.65)" d="M421.44,970.68c14.87,3.75,30.56,7.42,47,10.89" class="cls-12"></path></svg>