<svg viewBox="0 0 1200 1232.1" xmlns="http://www.w3.org/2000/svg" id="图层_1"><defs><style>.cls-1{fill:#ffefab;}.cls-2{fill:#6cbdff;}.cls-3{fill:#fff;}.cls-4{fill:#cf9945;}.cls-5{opacity:0.37;}.cls-16,.cls-17,.cls-18,.cls-6,.cls-7{fill:none;}.cls-6{stroke:#a26a23;}.cls-16,.cls-18,.cls-6,.cls-7{stroke-miterlimit:10;}.cls-6,.cls-7{stroke-width:8px;}.cls-7{stroke:#a26823;}.cls-8{fill:#ffe600;}.cls-9{fill:#abdb14;}.cls-10{fill:#ffcad8;}.cls-11{fill:#ff9700;}.cls-12{fill:#9bc726;}.cls-13{fill:#f6c8dc;}.cls-14{fill:#1f7cc1;}.cls-15{fill:#a8c1ca;}.cls-16,.cls-17,.cls-18{stroke:#231815;stroke-width:10px;}.cls-16,.cls-17{stroke-linecap:round;}.cls-17{stroke-linejoin:round;}</style></defs><title>7画家兔-rgb</title><rect height="1200" width="1200" class="cls-1"></rect><path transform="translate(-0.7 -0.27)" d="M210.41,1093.32,428,986s86.95,48.76,195.59,43.54,150-5.51,150-5.51,90.85,3.12,112-28.34C908,1022.06,959.15,1024,959.15,1024l68.6,80s21.3,67.67,3.48,107.92-833.06,8.51-833.06,8.51S192,1180.45,210.41,1093.32Z" class="cls-2"></path><path transform="translate(-0.7 -0.27)" d="M884.72,988.09s83.93-15.38,131.82-51.36c12.76,43.63,56.4,182.67-49.33,220.17-62.65,20.5-99.92.06-110.64-47,26.92-18,29.82-29.71,29.82-29.71l-21.51-9.2S896.63,1055,884.72,988.09Z" class="cls-3"></path><path transform="translate(-0.7 -0.27)" d="M88.08,821.37s75.24-22.86,167.12,33.93S429.92,962,476.75,1056.08,450,1170,450,1170s-133.93,34.84-317-140.46C-36.54,848.58,88.08,821.37,88.08,821.37Z" class="cls-4"></path><g class="cls-5"><path transform="translate(-0.7 -0.27)" d="M49.47,905.55s16-36.72,59.12-50.25,79.67-2.51,88.6-23.89" class="cls-6"></path><path transform="translate(-0.7 -0.27)" d="M56.44,924.91S78,889.43,108,886.58s79-46.5,98.48-11.35-56.54,50-83.18,60.7-37,38.23-37,38.23" class="cls-6"></path><path transform="translate(-0.7 -0.27)" d="M66.07,936.93s21.55-32.8,45.93-31.38,4.69,14.1,4.69,14.1-43.45,24.77-42.78,38.08" class="cls-6"></path><path transform="translate(-0.7 -0.27)" d="M101.7,995.7s33.54-52.48,111.21-64.08,82.74-30.45,85.17-34.86,1.57-10.76-.7-17-26.32-3.89-49.73-4.21-26.76-16.2-27.92-31.5" class="cls-6"></path><path transform="translate(-0.7 -0.27)" d="M126.84,1023S152.92,971,210.41,968.2s96.85-16.44,99.28-18.71,32.48-16.16,42.12-31.61" class="cls-6"></path><path transform="translate(-0.7 -0.27)" d="M156.05,1051S185,1000.52,265.85,1000s91.51-17,108.58-25.79,45.89-15.5,49.33,13.93-37,77.49-53.36,79S249.19,1103.13,251.46,1119Z" class="cls-7"></path><path transform="translate(-0.7 -0.27)" d="M452.52,1016.54s7.57,78.66-59.33,104.73-94.68,13-91.28,25" class="cls-7"></path><path transform="translate(-0.7 -0.27)" d="M469.73,1045.31s8.5,55.52-8.51,67.73-57.26,10.8-66.89,29.08-8.27,30.71-8.27,30.71" class="cls-7"></path><path transform="translate(-0.7 -0.27)" d="M178.58,1067.07s121.07-65.19,147.71-37-39.68,34.68-39.68,34.68-61.19,7.11-60.64,36" class="cls-6"></path></g><path transform="translate(-0.7 -0.27)" d="M357.63,465.42s-90.15,63.41-91.92,201.74c2.76,111.12,39.44,141.68,68.79,161.59s77.23,51.56,176.24,68,272.47,11.38,364.89-28.6S940,701.77,940,701.77s-47.73-5-61.4-21c-37.48-12.51-66.47-18.6-67.28-59.21s14.83-59.22,14.83-59.22-40-26.18-51.08-71.81c-23.1-1.62-75.22-5.53-73.18-64.7-32.58,18.08-74,45.51-105.74,9-27.16,27-67,26.94-91.31,9.41-14.09,18.75-52.64,41.43-89.49,4.58C376.18,469.87,357.63,465.42,357.63,465.42Z" class="cls-3"></path><path transform="translate(-0.7 -0.27)" d="M116.69,886.58s4.51,20.6,30,34c18.52,11.43,28.49,19.29,44.39,15.29s43-15.25,19.29-39.11-19.29-19.36-19.29-19.36S155,838.17,126.67,859.81C117.75,871.28,116.69,886.58,116.69,886.58Z" class="cls-3"></path><path transform="translate(-0.7 -0.27)" d="M90.92,982.16s25.66,154.43,112.37,147.62c5.5-29.39-.23-41.61-.23-41.61S99.32,1014.83,90.92,982.16Z" class="cls-3"></path><path transform="translate(-0.7 -0.27)" d="M870.26,400.71s79.66-43.09,172.64-189.36C1108.34,141.87,1148.34,107,1148.34,107s46.59,46.8,2.89,162.14S1001.55,472.33,920.17,486.41c-9.06-15.54-17.93-41.35-68.9-50.57C868.17,410.85,870.26,400.71,870.26,400.71Z" class="cls-3"></path><path transform="translate(-0.7 -0.27)" d="M397.26,316.89s-157-72.43-196.19-119.6C139.21,149,62.67,118.38,48.78,136c-9.35,23.25-12.72,75.27,20.93,113.51S180.26,372.46,319.19,363C336.37,345.69,375.23,318.39,397.26,316.89Z" class="cls-3"></path><ellipse ry="76.49" rx="52.54" cy="596.52" cx="451.57" class="cls-8"></ellipse><ellipse ry="139.18" rx="78.32" cy="619.18" cx="682.32" class="cls-9"></ellipse><path transform="translate(-0.7 -0.27)" d="M1148.34,117.24s33.45,170.84-244.06,341.67l15.89,27.5s44.85-6.19,93.92-42.09C1105.36,377.55,1224.31,216.63,1148.34,117.24Z" class="cls-10"></path><path transform="translate(-0.7 -0.27)" d="M45.41,146.8S110,275.09,219.84,311.25c71.31,26,114.22,36,114.22,36L319.19,363H249.71S34.38,320.35,45.41,146.8Z" class="cls-10"></path><path transform="translate(-0.7 -0.27)" d="M723.91,253.31s7.57-54.43,37.42-72.29c5.19,25.51-2.64,48.47-25.09,72.29L741,261s80.57,40.36,100.06,61,34.34,53.81,34.34,53.81,4.77,11.92-9.68,36-24.37,32.56-24.37,32.56L634.7,380.86,481.18,383.7l-18.26-25.8,5-18.72s39.59-91.59,77.24-109.57S627.14,200.6,723.91,253.31Z" class="cls-2"></path><path transform="translate(-0.7 -0.27)" d="M312.17,811.12l62.26,42.18-9.59,65.52-17.77-6.72L245,850.4S282.17,820.15,312.17,811.12Z" class="cls-10"></path><path transform="translate(-0.7 -0.27)" d="M436.11,882.6s109.22,27.94,249.72,20.77c2.77,8.73,11.24,28.52-7.47,73-12.5-2.22-17.2-1.23-17.2-1.23l-16.4,14.7-21.19,39.67S519.47,1038.4,428,986C429,933.41,436.11,882.6,436.11,882.6Z" class="cls-10"></path><path transform="translate(-0.7 -0.27)" d="M763.62,896.76s139.81-14.16,163.62-75.39c32.91,23.89,89,72,89.3,115.36-29.21,20.7-130.9,59-130.9,59l-10.24,12.13s-53,27.24-120.65,16.21C763.05,994.4,770.09,948.34,763.62,896.76Z" class="cls-10"></path><path transform="translate(-0.7 -0.27)" d="M475.34,329.72S383.52,280,319.19,363c-28.85,7.43-118.75,25.22-137,88.12,0,0-2,30.38,12.82,48.65l-20.8,17.6s-61.2,39.28-9,96.23c48.79,43.35,93.18,31.59,104.43,8C278,586,306.2,499.51,357.63,465.42A254.35,254.35,0,0,0,415.3,448.9s19,26.94,43.75,20,45.74-24.55,45.74-24.55-2.67,18.14,24.81,14.59c12.12-2.44,44.91,1.13,66.5-24,13.44,11.51,15.19,19.52,51.27,13.64s54.47-22.68,54.47-22.68,3.61,38.38,15.81,46.38S775,490.57,775,490.57s8.9,47.53,51.08,71.81c-11.11,35.62-27,54.71-4.32,91.09,27.22,28.43,63.87,23.81,63.87,23.81S888,701.75,940,701.77c70.65,0,143.76-66.68,80.54-117.66,0,0,11.07-60.73-51.29-111.86l-49,14.16s-11.07-44.92-68.9-50.57l-39.08,3.81s-88.43-118-235-93.22c-25.26-19.42-70.7-28.76-88.23.85-3.92,19.41-12.4,21.89-12.4,21.89l-8.85-9.57Z" class="cls-4"></path><polygon points="373.73 853.02 435.41 882.32 427.29 985.74 364.14 918.55 373.73 853.02" class="cls-2"></polygon><path transform="translate(-0.7 -0.27)" d="M685.83,903.37l77.79-6.61s12,58.48-7.44,121.94c-30.56-9.85-70.54-38.61-70.54-38.61S684.8,912.81,685.83,903.37Z" class="cls-2"></path><path transform="translate(-0.7 -0.27)" d="M270.74,999.89s14.23-17.12,28.8-19.16S326,986,326,986s11.55-1.48,10.45,13.88l-1.09,15.37s3,24.82-11.68,22.19-37.08.35-37.08.35l-31-.35-16.27-6-2.65-9.67S230.14,1002.45,270.74,999.89Z" class="cls-11"></path><path transform="translate(-0.7 -0.27)" d="M661.16,975.18s14.54-6.55,24.48,4.91,6.81,19,6.81,19L683,1016.54l-7.16,3.09s-.15,15.35-14.69,17.82c3.31,11.82,4.16,18.63-6,23.73s-31.54-.12-31.54-15.87S644,973.94,661.16,975.18Z" class="cls-11"></path><path transform="translate(-0.7 -0.27)" d="M301.91,926.11S306,955.33,290,957.73s-27.12-.87-28.3-15.47,14.13-8.64,14.13-8.64S293.12,917.74,301.91,926.11Z" class="cls-12"></path><path transform="translate(-0.7 -0.27)" d="M334.25,1023s19-15.27,24.08-4.25l5.1,11,10.2,14.45,11,6.61s6,17.2-11.89,24-33.33,13.7-33.33,13.7S331.2,1113.87,315,1113s-18.51-24.55-18.51-24.55l3.05-34.67-12.93-16,23.08-2.63,9.5,1.17S333.14,1030.65,334.25,1023Z" class="cls-13"></path><path transform="translate(-0.7 -0.27)" d="M490.29,1093.32s58.52,23.14,158,13.78c15.31,38.27-8.41,81.73-89.24,83.81-60.43,4.63-77.89-42.47-77.89-42.47S503.84,1130.56,490.29,1093.32Z" class="cls-14"></path><path transform="translate(-0.7 -0.27)" d="M749.54,1021.82l136.85,58.39s-1.84,22.33-29.82,29.71c-29.68-10.47-124.07-42.85-124.07-42.85Z" class="cls-4"></path><path transform="translate(-0.7 -0.27)" d="M1005.72,1131.52l41,18.28s15.23,15.81-10.47,15-53.5-14.85-53.5-14.85Z" class="cls-4"></path><polygon points="748.84 1021.54 727.8 1065.6 700.26 1055.81 723.04 1007.56 748.84 1021.54" class="cls-15"></polygon><path transform="translate(-0.7 -0.27)" d="M723.74,1007.83l-31.29-19.74s11.78,18-16.6,31.54c-6.28,16.89-14.69,17.82-14.69,17.82l-.94,18.63,36.48,3.26Z" class="cls-3"></path><path transform="translate(-0.7 -0.27)" d="M816.22,444.32c-42.61-50.2-98.26-92.67-167.71-101.24-27.7-2.94-46.58-2-71.32,3.35" class="cls-16"></path><path transform="translate(-0.7 -0.27)" d="M357.63,465.42C304.4,515.51,260.38,586.09,266.4,698,277.74,908.87,598.63,903.2,598.63,903.2s197.28,11.34,288-40.81C947.18,827.56,949.4,757.74,940,701.77" class="cls-16"></path><polyline points="517.13 677.01 535.84 696.57 568.16 677.01" class="cls-17"></polyline><polyline points="535.84 696.57 535.84 735.12 510.05 750.43" class="cls-17"></polyline><line y2="758.36" x2="562.77" y1="735.12" x1="535.84" class="cls-17"></line><polyline points="522.95 742.77 522.95 788.41 549.31 788.41 549.31 750.43" class="cls-17"></polyline><ellipse ry="78.94" rx="54.43" cy="598.06" cx="451.33" class="cls-17"></ellipse><ellipse ry="139.13" rx="78.32" cy="619.13" cx="682.32" class="cls-17"></ellipse><line y2="634.82" x2="467.24" y1="565.85" x1="435.41" class="cls-17"></line><line y2="629.33" x2="426.79" y1="571.34" x1="475.86" class="cls-17"></line><line y2="686.79" x2="723.21" y1="565.85" x1="646.68" class="cls-17"></line><ellipse transform="translate(-698.56 636.34) rotate(-54.51)" ry="262.7" rx="113.58" cy="995.7" cx="269.01" class="cls-18"></ellipse><path transform="translate(-0.7 -0.27)" d="M143.85,918.82c-22.48-14.43-33.12-38-23.77-52.52s35.17-14.68,57.65-.24c8.31,5.34,15.63,12.12,22.71,24.67" class="cls-17"></path><path transform="translate(-0.7 -0.27)" d="M210.41,1093.32s-16.78,67.07-12.24,127.17" class="cls-18"></path><path transform="translate(-0.7 -0.27)" d="M281.36,869.11s12.14-36.48,33.64-58c0,0-58.42,20.69-70.05,39.28" class="cls-17"></path><path transform="translate(-0.7 -0.27)" d="M172.66,882.6s54.42,13.6,43.65,39.12-62.62,11.33-69.58-1.14" class="cls-17"></path><path transform="translate(-0.7 -0.27)" d="M193.36,886.58" class="cls-17"></path><path transform="translate(-0.7 -0.27)" d="M165.25,932" class="cls-17"></path><path transform="translate(-0.7 -0.27)" d="M90.92,982.16s22.82,152.73,112.37,147.62" class="cls-17"></path><path transform="translate(-0.7 -0.27)" d="M927.9,819.15s60.57,37.37,92.88,112.77c-12.47,19.84-115.08,62.7-143.43,58.16,0,0-11.91-50.22-26.08-65" class="cls-17"></path><path transform="translate(-0.7 -0.27)" d="M660.45,1037.07s6.92,20-7.15,24.46-28,.43-29.63-15S641.6,995.1,641.6,995.1s10.32-20.2,24.26-20.91,32.82,11.43,30,23.28-15.48,23.91-20,22.16S683.25,1034.69,660.45,1037.07Z" class="cls-17"></path><polyline points="693.24 987.82 723.04 1007.56 700.26 1059.71 660.46 1053.71" class="cls-17"></polyline><polyline points="723.04 1007.56 748.84 1021.54 727.23 1066.79 700.26 1059.71" class="cls-17"></polyline><path transform="translate(-0.7 -0.27)" d="M856.57,1109.92c-69.41-22.71-128.65-42.85-128.65-42.85" class="cls-17"></path><path transform="translate(-0.7 -0.27)" d="M1005.72,1131.52c25.2,10.93,39.49,17.26,41,18.28,6.65,4.36,7.46,15.06-3,15.43-3.84,1.15-26.44-4.83-60.93-15.24" class="cls-17"></path><path transform="translate(-0.7 -0.27)" d="M749.54,1021.82s66.66,28.36,136.85,58.39" class="cls-17"></path><path transform="translate(-0.7 -0.27)" d="M1016.54,936.73s77,193.7-73.06,228.62c0,0-77.64,12.59-86.91-55.43,0,0,32.65-11,29.82-29.71" class="cls-17"></path><path transform="translate(-0.7 -0.27)" d="M884.72,988.09s10.21,61.59-19.84,82.92" class="cls-17"></path><path transform="translate(-0.7 -0.27)" d="M1038.74,1170c.68,13.86.18,28.32-2.45,42" class="cls-17"></path><path transform="translate(-0.7 -0.27)" d="M1026.18,1098.71a312.78,312.78,0,0,1,10.11,46.19" class="cls-17"></path><path transform="translate(-0.7 -0.27)" d="M376,855.3S363.21,893.08,365,926.11" class="cls-17"></path><path transform="translate(-0.7 -0.27)" d="M436.11,882.6s-15,72.77-4.28,107.82" class="cls-17"></path><path transform="translate(-0.7 -0.27)" d="M436.11,990.42c-6.74-6.12,57.23,42.58,187.46,39.13" class="cls-17"></path><path transform="translate(-0.7 -0.27)" d="M688.36,903.37s2.14,47.55-5.35,70.79" class="cls-17"></path><path transform="translate(-0.7 -0.27)" d="M767.21,896.76s2.71,86.55-10.05,125.06c0,0,68,14.7,129.23-21" class="cls-17"></path><path transform="translate(-0.7 -0.27)" d="M490.44,1093.32s47.15,24,156.93,12.93c12,16.16,12.5,94-104,83.72-49.8-8-60.45-41.75-60.45-41.75" class="cls-17"></path><path transform="translate(-0.7 -0.27)" d="M481.18,380c-11.12-49.61-139.86-54.37-65.88,68.94-149.92,77.38-98.51-144.76-20.48-78.68" class="cls-17"></path><path transform="translate(-0.7 -0.27)" d="M338.76,370.22C332,354.31,155.27,384.88,188.5,484.61c31,92.95,149.44,24.15,158.57-19.12" class="cls-17"></path><path transform="translate(-0.7 -0.27)" d="M596.1,434.91c-11.46,9.38-25,20.16-52.76,22.49-60.74,5.1-75.57-85.78-50.65-115.54s84.5,4.57,84.5,4.57l32,19.81" class="cls-17"></path><path transform="translate(-0.7 -0.27)" d="M641.51,359.6s-68,3.69-55.28,60.38c23,47.62,74.84,28.92,92.69,19.56a166.84,166.84,0,0,0,32.85-21.38c9.17-7.85,17.51-17.42,20.73-27.94" class="cls-17"></path><path transform="translate(-0.7 -0.27)" d="M415.3,448.9s34.7,45.07,87.51,0" class="cls-17"></path><path transform="translate(-0.7 -0.27)" d="M701.84,425.87s-7.61,66.52,73.18,64.7" class="cls-17"></path><path transform="translate(-0.7 -0.27)" d="M812.19,439.65c2.91-1.72,71.68-19.67,104.8,40.63,34.18,62.23-3,92.48-43.32,97C842.4,580.83,762.55,540.74,775,439.54" class="cls-17"></path><path transform="translate(-0.7 -0.27)" d="M467.94,352.8s30-117.35,100.91-132.66,132,23.81,155.06,33.17,119.15,56.23,139.55,94c12.64,23.38,23.24,45.73-12.19,88.56" class="cls-17"></path><path transform="translate(-0.7 -0.27)" d="M723.91,253.31s2.46-51,37.42-72.29c0,0,10.27,38.9-28.84,76" class="cls-17"></path><path transform="translate(-0.7 -0.27)" d="M319.19,363s59.71-79.33,156.15-33.29" class="cls-17"></path><path transform="translate(-0.7 -0.27)" d="M195.05,499.78s-98.26,67.58-22.11,119.63c67.18,45.92,96.07,7.18,96.07,7.18" class="cls-16"></path><path transform="translate(-0.7 -0.27)" d="M870.26,406.38s67.18-45.07,147.12-155.63,131-143.71,131-143.71a74.54,74.54,0,0,1,7.66,12.43c15,29.38,39.33,110.14-50.18,235-90.14,125.78-185.65,131.91-185.65,131.91" class="cls-17"></path><path transform="translate(-0.7 -0.27)" d="M1148.34,107S1196,276.74,904.28,458.91" class="cls-17"></path><path transform="translate(-0.7 -0.27)" d="M397.26,316.89S288.89,267.51,229.07,219C95,110.31,44.43,132.78,48.78,136c0,0-33.9,94.08,82.49,173.48S319.19,363,319.19,363" class="cls-17"></path><path transform="translate(-0.7 -0.27)" d="M47.74,139.5S84.5,279.63,296.25,339.18c30.61,8.52,38.25,8.1,38.25,8.1" class="cls-17"></path><path transform="translate(-0.7 -0.27)" d="M969.2,472.25s87.3,73.42,36.28,128.36-108,7.72-135.22-23.1" class="cls-17"></path><path transform="translate(-0.7 -0.27)" d="M826.1,562.38s-45.13,81.75,22,108.12S957,669.36,967.21,625.88" class="cls-17"></path><path transform="translate(-0.7 -0.27)" d="M875.4,678.61S923,715.18,979.11,696.84,1067,613,1020.49,584.11" class="cls-17"></path><path transform="translate(-0.7 -0.27)" d="M284.38,987s9.32-9.86,25.47-4.83,27.5,1.25,26.65,22.52-.38,23.05-10.21,29.1-11.71-.76-26.07,1.89-65.39,11-63.5-13.23,18.32-18.52,29.13-20.79S284.38,987,284.38,987Z" class="cls-17"></path><path transform="translate(-0.7 -0.27)" d="M336.54,1018.7s20-8,24.9,6.76,4.92,17.77,12.1,18.14,24.94,12.86-1.51,29.86-30.15,1.14-35.49,24.19-41.24,20-40.1-7.93,9-32.51,0-38.93a76.16,76.16,0,0,1-14-12.51" class="cls-17"></path><path transform="translate(-0.7 -0.27)" d="M277.54,958.94S259,954.79,262,942.69,268.8,940.61,280,932s20.62-10.3,21.76,0-3,25.42-9.45,26.93S277.54,958.94,277.54,958.94Z" class="cls-17"></path></svg>