<svg viewBox="0 0 1200 1272.83" xmlns="http://www.w3.org/2000/svg"><defs><style>.cls-1{fill:#a2a2ea;}.cls-2{fill:#b8f2ff;}.cls-3{fill:#fff;}.cls-4{fill:#ff8b00;}.cls-5{fill:#57d12e;}.cls-6{fill:#ffc81a;}.cls-7{fill:#ffc5d7;}.cls-8{fill:#ffb96c;}.cls-9{fill:#ffb8dc;}.cls-10,.cls-11,.cls-12{fill:none;stroke-width:10px;}.cls-10,.cls-11{stroke:#231815;}.cls-10{stroke-miterlimit:10;}.cls-11,.cls-12{stroke-linecap:round;stroke-linejoin:round;}.cls-12{stroke:#ffbde1;}</style></defs><title>8农民兔-rgb</title><g id="图层_2"><rect height="1200" width="1200" class="cls-1"></rect></g><g id="图层_3"><path transform="translate(0 0)" d="M307.42,799.58S176.18,884.21,209.5,970.86l16.42,27.24s-33.9,143.44-29.33,217.08l172.1,6.17s23.81-49,40-120,63.78-155.26,0-237.74C363.92,842.45,319.82,815.12,307.42,799.58Z" class="cls-2"></path><path transform="translate(0 0)" d="M342.19,474.51l166,29.1,57-54.14-26.65,58.68,39.7,7.76L600,513.63,702,401.57l51.53,78.23,12-12.22L788.46,490l16.37-31.75,15.55,72.57,61.84,3.51s78.8,122,55.61,206.91-10,200.2-10,200.2-45.26,93.72-77.29,128.27c-12-5.29-72.57-35.09-72.57-35.09L759.88,1074v154.43l-391.19-7.08s34.16-55.85,26-97.52-61.16-48.95-61.16-48.95-79.79-38.25-73.77-50.47,27.36-67,112.36-109.22c6.76,8.8,38.63,41.2,38.63,41.2l12.35,19.48,15.47-27.31s16.29-34.39-37-87.73c-35.79-17.18-131-53.3-133-161.74S280,556.52,342.19,474.51Z" class="cls-3"></path><path transform="translate(0 0)" d="M640,803.28S799.12,687.45,864.71,700.84s105,74,125.47,114,46.09,97.25-2.28,137.56S763,1067.47,763,1067.47s-201.67,88.63-532.58,92.31c7.88-11.07,91.13-134,340.11-305.15,29,4.22,32.84,1.61,32.84,1.61l13-17,17-4.54S633.46,803,640,803.28Z" class="cls-4"></path><path transform="translate(0 0)" d="M937.83,741.25,1014.19,563s50.42,2.57,61.32,27c-9.57,17.61-62.52,111-62.52,111l22.92-19.7,32.41-40.93s60,25.08,64.66,74c-17.67,15.54-23.36,20.29-23.36,20.29s47.07,28.13,43,79c-45.15,11.77-133.44,31.73-133.44,31.73l15.47,7.18,116.28-10.88s33,25.17,14.44,59.28c-19.85,3.46-156.79,25.74-156.79,25.74S1041,868.9,937.83,741.25Z" class="cls-5"></path><path transform="translate(0 0)" d="M519.1,319.24l4.63-34.68s-20.3,2.62-48.55-34c-12.91,22.44-53.47,88-90.61,71.62s-61-32.4-35.44-128.16S458.3,11,579.74,70.34c57.67-23.1,126.85-38.88,167.52,18.33s49.36,109.81,19.93,249.76C728.38,345.83,662.72,351.44,519.1,319.24Z" class="cls-3"></path><path transform="translate(0 0)" d="M399.3,944.62s36.86,36.59,23.53,53.48c-9.07,5.83-23.53-8.11-23.53-8.11v10.16s13.61,43.75-21.26,65-76.54-11.06-76.54-11.06l62.12-71.43Z" class="cls-3"></path><path transform="translate(0 0)" d="M924,947l-73.41,122.77S747.11,1039,750.51,990c3.4-46.44,57.83-56.64,57.83-56.64s18.26-.19,35.49,15.21c14.68,2.64,22.57,3.82,22.57,3.82s-28.3-26.69-17.24-40.29c13.6-6,78.71,36.47,78.71,36.47Z" class="cls-3"></path><path transform="translate(0 0)" d="M588.64,858.59s10.63,18.19,17.75,17.18,14-3,16.56-16.07,8.76,0,8.76,0h17.36L647.35,837l5.17-11.26V810.5L640,803.28l-4.83,9.33L634,831.3l-17.58,7.94-10,12.47s-10,9.49-17.75,6.88" class="cls-6"></path><path transform="translate(0 0)" d="M1008.55,926.68l12.1,2.78s96.85,100.06-28.39,171.88c6.41,46.42,17,106.12-15.83,160.83-197.86,4.53-202.11,0-202.11,0S750,1188.84,763,1067.47c34.26-12.52,39.28-17.17,39.28-17.17l48.28,19.42s70.11-102.31,77.29-128.27c26.74,9.75,55,14.94,55,14.94l16.54-15.47Z" class="cls-2"></path><path transform="translate(0 0)" d="M671.05,158.71s33.88,70.63,8.62,183.67c-39.71-6-56.67-4.63-56.67-4.63s19.51-52.4,6.33-129.79C649.31,173.09,671.05,158.71,671.05,158.71Z" class="cls-7"></path><path transform="translate(0 0)" d="M570.55,267.08s19.46,46.16,2.77,63.25L519.1,319.24l4.63-34.68s33-2.58,50.39-20" class="cls-7"></path><path transform="translate(0 0)" d="M517.64,304.73l-324,64s-33.33,12.1-7.82,43c21.3,17.51,33.17,20.41,33.17,20.41l66.89-22.68-42,36.29S406.1,494,508.15,503.61l57-54.14-26.65,58.68L600,513.63l98.64-112.06,54.93,78.23,12-12.22,19,18.65,6.78-1.89,13.45-26.08,15.55,72.57s197.25,22.67,246.1,0c36.09-15,9-42.24,9-42.24L915.2,403.1,772.7,325.18l-5.51,13.25-22.63,7.29-73.51-2.65S488,336,517.64,304.73Z" class="cls-8"></path><ellipse ry="78.56" rx="51.81" cy="592.19" cx="454.51" class="cls-2"></ellipse><ellipse ry="138.9" rx="78.31" cy="613.97" cx="684.72" class="cls-9"></ellipse></g><g id="图层_1"><path transform="translate(0 0)" d="M519.53,890.13c-95.57-12.52-243.64-53-251.43-197.92-5.37-99.78,30.12-167.17,76.54-217.13" class="cls-10"></path><path transform="translate(0 0)" d="M940.7,744.84c5.15-54.28-8.78-96.16-16.1-116.13a724.9,724.9,0,0,0-42.38-94.37" class="cls-10"></path><polyline points="519.53 671.52 538.24 691.08 570.55 671.52" class="cls-11"></polyline><polyline points="538.24 691.08 538.24 729.63 512.44 744.93" class="cls-11"></polyline><line y2="752.87" x2="565.17" y1="729.63" x1="538.24" class="cls-11"></line><polyline points="525.34 737.28 525.34 782.92 551.7 782.92 551.7 744.93" class="cls-11"></polyline><ellipse ry="78.94" rx="54.43" cy="592.57" cx="453.72" class="cls-11"></ellipse><ellipse ry="139.13" rx="78.32" cy="613.64" cx="684.71" class="cls-11"></ellipse><line y2="629.33" x2="469.64" y1="560.35" x1="437.81" class="cls-11"></line><line y2="623.83" x2="429.19" y1="565.85" x1="478.25" class="cls-11"></line><line y2="681.3" x2="725.61" y1="560.35" x1="649.07" class="cls-11"></line><path transform="translate(0 0)" d="M766.11,342.38s70.66-243.48-69.66-286-282.33,152.22-194.74,222c45.07,27.22,109.7-40.81,134.36-84.18s51.88-42.52,68-32.32" class="cls-11"></path><path transform="translate(0 0)" d="M579.74,70.34S412.42-29.51,340.14,222.21c-11.91,45.07,1.7,92.69,50.17,101.19s87.94-79.17,87.94-79.17" class="cls-11"></path><path transform="translate(0 0)" d="M627.41,208s11.74,35.51,0,124" class="cls-11"></path><path transform="translate(0 0)" d="M671.05,158.71s34.62,98,5.77,183.67" class="cls-11"></path><path transform="translate(0 0)" d="M519.53,284.32s9.73,8.81-.43,34.92" class="cls-11"></path><path transform="translate(0 0)" d="M570.55,267.08S584.73,293,573.13,331" class="cls-11"></path><path transform="translate(0 0)" d="M419.35,970.86C467.35,930,513.42,894,565.16,856c0,0,19.53-8.05,31.43,11.27S623,869.39,623,859.7s7.66,5.44,20.41,0-.43-20.12,5.71-28.4c13.85-18.69-1.45-27.17-9.1-28" class="cls-11"></path><path transform="translate(0 0)" d="M804.83,1050.3c-146.08,63.19-269.55,83.59-420.37,100.37-93.91,10.45-154,9.11-154,9.11,18.16-26.68,44.22-56,83.55-94" class="cls-11"></path><path transform="translate(0 0)" d="M987.9,952.38c46.91-28.44,13.66-112.51,13.66-112.51s-46.58-126-144.2-140.34c-37.12-5.46-123.24,40.06-220.83,106.07,0,0-.82,33.07-9.33,31.37s-19.51,9.64-20.81,14.74-12.53,11.93-28.17,2.85" class="cls-11"></path><path transform="translate(0 0)" d="M438,1142.44s-.25-30.4-25-47.37" class="cls-11"></path><path transform="translate(0 0)" d="M464.39,1139.85s-11.42-51.61-27.77-65" class="cls-11"></path><path transform="translate(0 0)" d="M508.52,996.33s-2.81-39.11-37.08-68.36" class="cls-11"></path><path transform="translate(0 0)" d="M519.1,948.56s-3.82-17.43-25.58-38.13" class="cls-11"></path><path transform="translate(0 0)" d="M820.38,846.3s-15.13-83.38-63.85-113.88" class="cls-11"></path><path transform="translate(0 0)" d="M840.56,799.58s-7.49-41-46.65-85" class="cls-11"></path><polyline points="1005.78 848.27 1069.08 823.96 1036.59 776.95 990.18 814.82" class="cls-11"></polyline><path transform="translate(0 0)" d="M1009.7,928.08l160-27.9s4.8-42-18.8-58.52l-140.26,13.12" class="cls-11"></path><path transform="translate(0 0)" d="M940.7,744.84,1014.19,563s42.58-1.34,61.32,27c-13.21,25.74-107,188.52-107,188.52" class="cls-11"></path><path transform="translate(0 0)" d="M993.86,734.4l74.46-94s61.53,22,64.66,74c-18.24,17.66-89.21,73-89.21,73" class="cls-11"></path><path transform="translate(0 0)" d="M1109.62,734.67s39.45,20.48,43,79c-24.49,8.29-146.81,34.64-146.81,34.64" class="cls-11"></path><path transform="translate(0 0)" d="M1020.65,929.46c69.25,48.11,47.29,246.55-176.82,149.47,0,0,74.78-100.23,85-140.82-5.67,3.17,58.1,24,76.12,9" class="cls-11"></path><path transform="translate(0 0)" d="M925.88,947.15s-47-21.63-59.43-32.46-34-1.4-12.47,23.42,17,19.41,17,19.41-28.39-11.25-39.73-19.41-69.23-5.92-77.17,47,70.37,71.28,96.45,84.57" class="cls-11"></path><path transform="translate(0 0)" d="M309.72,706.69a53.41,53.41,0,0,1,106.82,0" class="cls-12"></path><path transform="translate(0 0)" d="M416.54,708.92s0,46-42.19,48.68c-47.6,3-61.82-45.88-28.34-68.79,17.12-11.72,50.22.32,42.33,25.7-8.32,26.74-38.55,15.59-37.8,3.5" class="cls-12"></path><path transform="translate(0 0)" d="M992.26,1101.34s23.86,100.73-15.83,160.83" class="cls-11"></path><path transform="translate(0 0)" d="M258.05,1028.52C286.4,957,374,916.57,374,916.57l32.07,33.35s23.86,29.91,18,45.79-30.43-10.56-30.43-10.56c29.48,64.28-21.5,90.18-48.26,88.79-25-1.29-77.76-38.55-77.76-38.55-166.84-114.52,42.11-237.48,42.11-237.48S371,904,390.23,914.69l24.21-45.31" class="cls-11"></path><path transform="translate(0 0)" d="M374,916.57s-34.88-24.21-22.3-49.32" class="cls-11"></path><path transform="translate(0 0)" d="M197.47,1221.35c-11.34-65.77,28.45-223.25,28.45-223.25" class="cls-11"></path><path transform="translate(0 0)" d="M399.3,859.71c3.48-.92,49.17,44.14,37.32,96.68" class="cls-11"></path><path transform="translate(0 0)" d="M394.7,1149.52s-18.08,93.37-61.16,118.31" class="cls-11"></path><path transform="translate(0 0)" d="M763,1069.72s-13.36,129,15,192.45" class="cls-11"></path><path transform="translate(0 0)" d="M815.43,1117H925.88s18.14,83-55.23,83S815.43,1117,815.43,1117Z" class="cls-11"></path><path transform="translate(0 0)" d="M285.91,409.5s-13.6,13.61-42,36.29c100.91,38.55,264.19,57.82,264.19,57.82l62.14-54.42s-13.38,26.08-31.77,59c44,13.61,61.48,5.48,61.48,5.48L702,401.57l51.53,78.23L763,465.06,788.46,490l16.37-31.75,15.55,72.57c227.2,23.81,259.93.94,264.9-17.2s-29.8-33.83-29.8-33.83L770.52,324c42.4,47.14-220.42,3.88-240.83,0s-12.05-19.26-12.05-19.26l-307,59.42s-55.16,7.94-31.35,42C195.44,431.05,219,432.18,219,432.18L392.5,367.55" class="cls-11"></path><line y2="534.34" x2="1055.48" y1="411.77" x1="852.84" class="cls-11"></line><line y2="541.03" x2="983.25" y1="484.34" x1="915.2" class="cls-11"></line></g></svg>