<svg viewBox="0 0 1200 1249.55" xmlns="http://www.w3.org/2000/svg"><defs><style>.cls-1{fill:#d3ff85;}.cls-2{fill:#acb9bf;}.cls-3{fill:#fff;}.cls-4{fill:#ffec00;}.cls-5{fill:#39daff;}.cls-6{fill:#ff83dc;}.cls-7{fill:#ffcad7;}.cls-11,.cls-12,.cls-8,.cls-9{fill:none;}.cls-11,.cls-8,.cls-9{stroke:#231815;}.cls-11,.cls-8{stroke-miterlimit:10;}.cls-8,.cls-9{stroke-width:10px;}.cls-12,.cls-9{stroke-linecap:round;stroke-linejoin:round;}.cls-10{fill:#ed20d0;}.cls-11{stroke-width:11px;}.cls-12{stroke:#9ce5ff;stroke-width:20px;}.cls-13{fill:#9ce5ff;}</style></defs><title>9科学兔-rgb</title><g id="图层_2"><rect height="1200" width="1200" class="cls-1"></rect></g><g id="图层_3"><path d="M801.54,846.56l-73.89,148L687,978.35l-41.11-20.2s-11.08-35.49,1.19-58.59c-16.46,1.47-44.37-1-44.37-1l10.28,70s-19.29-7-76.94,21.45c-41.93,10.11-59.11,4.62-59.11,4.62l-4.5-10.2s.85-34,25.51-95.65c-22.6-4.61-116.83-35.91-116.83-35.91S292.9,814.29,270,722.45s53.2-217,53.2-217S378,427.61,497.94,366.26s223.46-7.88,223.46-7.88l51.16,33.84,1,30,22.14,29.07,33.83,61.41L849,579.52l25.81,57,50.67,50,18.38,9.21s23.92,132-63.43,165.26C826.07,851.49,801.54,846.56,801.54,846.56Z" class="cls-2"></path><path d="M497.94,893.62S468.28,959,471.21,990C443,969.27,393,917.4,345.11,940.68c2.88-15.4,0-22.63,0-22.63s-46.55,28.49-72.29,139.67l-17.18-1.81-36.71-28.27S113,869.8,318.09,805.42C342.47,827.1,374.51,863.32,497.94,893.62Z" class="cls-3"></path><path d="M218.93,1027.64s-50.54,89.39-27.35,221.2c261.29-2.55,769.83-27.25,769.83-27.25s30-144.23-3.7-263.44c15.6-60.52,16.68-93.28-35.3-128.35a406.59,406.59,0,0,1-37.75,33.46l-83.12-16.7L727.65,989.89,670.2,970.5s1.43,51.2-5.9,61.45-36.82,67.74-36.82,67.74,14.5,111.65-.12,144.86c-18.86,8.54-179.68-16.16-179.68-16.16l-1.41-85.6s-47.64-21.36-65.16-44.39c-20.08,6.73-59.59,14-108.29-40.68l-10.43,3.19Z" class="cls-3"></path><path d="M602.7,898.52l44.37,1s-14.75,50.28,23.51,75.2a100.7,100.7,0,0,1-33.94.16L613,968.5Z" class="cls-3"></path><path d="M599.26,478.67s.32-27,43.61-45.8,47.81-6.93,47.81-6.93S677.89,480.94,599.26,478.67Z" class="cls-3"></path><path d="M542.77,475s1.94-25.45-29.95-35.27-31.69,4.69-31.69,4.69S507.09,507.06,542.77,475Z" class="cls-3"></path><path d="M455,391.65s-47.73-57.55-106.69-21.26-70.81,76.84-70.81,76.84L244,498.41s-42.11,38-43.24,39.09-55.41,40.37-39.53,77.23,36.75,43.78,36.75,43.78L267.2,672.6l22.68-111.16S333.73,455.21,455,391.65Z" class="cls-3"></path><path d="M773.57,417.44s7.79-55.82,52-50.87,81.65,42.87,81.65,42.87l89.92,108.43,42.43,53.54,19.63,17.18s52.7,50.57-6.83,82-84.47,26.34-84.47,26.34l-42.5-10.44S855,648.79,842.32,546.15C819.39,486,820.53,489.44,819.39,486S773.57,417.44,773.57,417.44Z" class="cls-3"></path><path d="M449.09,1143.91s63.44,18.85,100.94,3.35,77.82-44.58,77.82-44.58,13.47,68.41-4.08,142.86c-157.57-6.62-176.09-17.15-176.09-17.15S440.49,1157.18,449.09,1143.91Z" class="cls-2"></path><path d="M345.11,918.05s-56.69,46.18-71.27,135.33c17.63,22.77,26.81,32.32,26.81,32.32l49.93,17.17,39.47-8.26L401.1,1084l-4-18.88L369.21,1023l13.5,3,10.92,1.58-1.22-17.18-14.09-25-25.51-17-11.94-18.71Z" class="cls-2"></path><polygon points="525.9 739.45 528.56 781.41 555.77 784 554.08 742.33 538.76 727.55 525.9 739.45" class="cls-3"></polygon><polygon points="326.17 703.74 347.34 736.84 300.65 736.84 326.17 703.74" class="cls-4"></polygon><path d="M543.49,605.22s18.83-10.88,29.44-5.22,23.7,5.22,23.7,5.22l3.37-11.3-20.39-11.75-25.53-2.65-11.29.57-9.13-37.92-35.72-42.35L451,477.77l-64.76,2.6s-79.55,38.49-77.85,99.15,5.85,55.05,5.85,55.05L326.17,659l35.68,33.21s49.92,17.84,51.62,18.68,30.62-.86,30.62-.86l45.44-14.27,28.24-29.29S544.81,626.89,543.49,605.22Z" class="cls-5"></path><ellipse ry="76.86" rx="56.08" cy="589.57" cx="436.76" class="cls-4"></ellipse><path d="M419.19,508.47s-56.17,8.75-64.11,33.7-14.14,47.4-14.14,47.4l6.4,42.74,29.28,31.18,33.95,12.8h18.78s-12.48-11.67-16.44-13.37-42.48-35.15-27.76-103.46C408.37,522.89,419.19,508.47,419.19,508.47Z" class="cls-2"></path><path d="M468.86,526.54s46.35,9.4,41.4,73.46c-11.18,45.91-41.4,61.22-41.4,61.22l8.28-15.87S506.68,582.92,468.86,526.54Z" class="cls-2"></path><ellipse ry="139.47" rx="78.78" cy="614.48" cx="686.62" class="cls-5"></ellipse><path d="M577.9,69.14s-83.27-40.17-141.14,0-107.26,146.47-98.3,192.4,35.69,57.09,35.69,57.09,50.91,44,103.93-71.62c17.31,33.23,38.57,38.39,38.57,38.39l7.52,13.22-2.26,59.76s62.45-19.52,86.87-20.34,89-5.38,149.82,44.95c11.47-42.49,20-97.59,20-97.59S817.72,85,689.72,55c-88-15.46-111.82,18.69-111.82,18.69Z" class="cls-2"></path><path d="M340.87,943.35s21.49-18.92,48.18-6,36.52,17.66,36.52,17.66L454.19,981l43.75,22.11L536,990s51.52-24.36,70.21-22.63,45.2,8.95,45.2,8.95l19.13,1.61s0,131.93-103,161.34c-55.43,19.2-115,29.86-181.29-39.53l11.82-12.77-1-21.77L380,1039.32l-7.81-21,10.53,7.72,8.33.84,3.16-22.12L378.32,985.5l-30-22.06-5.19-5.29Z" class="cls-6"></path><path d="M673.43,159.79s36.37,96.68,5.78,183.68c-28.76-3.7-49.42-6.68-49.42-6.68s7.68-96.89,0-127.74C653.85,167.43,673.43,159.79,673.43,159.79Z" class="cls-7"></path><path d="M573.7,271s9.07,47.82-1,73.31c-43,11.71-50.76,14.05-50.76,14.05s7.22-49.79,1-68.5c13-6.23,20.6-6.83,20.6-6.83Z" class="cls-7"></path></g><g id="图层_1"><path d="M880.38,863.26c5.59-2.5,5.32-2.68,10.32-5.56,60.56-34.82,62-109.58,52.53-165.54" class="cls-8"></path><path d="M778.16,397.05c-36.19-32-75.09-52.43-125.57-58.65-74.84-7.94-146.14,24.87-174.62,40.81S259.14,482.4,270.48,693.29,602.7,898.52,602.7,898.52s15,1.12,44.37,1" class="cls-8"></path><polyline points="521.91 672.6 540.62 692.16 572.93 672.6" class="cls-9"></polyline><polyline points="540.62 692.16 540.62 730.71 514.82 746.02" class="cls-9"></polyline><line y2="753.95" x2="567.55" y1="730.71" x1="540.62" class="cls-9"></line><polyline points="527.72 738.36 527.72 784 554.08 784 554.08 746.02" class="cls-9"></polyline><ellipse ry="78.94" rx="54.43" cy="591.66" cx="435.1" class="cls-9"></ellipse><ellipse ry="139.13" rx="78.32" cy="614.73" cx="687.09" class="cls-9"></ellipse><line y2="628.41" x2="451.02" y1="559.44" x1="419.19" class="cls-9"></line><line y2="622.92" x2="410.57" y1="564.93" x1="459.64" class="cls-9"></line><line y2="682.38" x2="727.99" y1="561.44" x1="651.45" class="cls-9"></line><path d="M760.43,383s78.72-283-61.6-325.53-282.33,152.23-194.74,222c45.07,27.21,109.7-40.82,134.37-84.19s51.87-42.52,68-32.32" class="cls-9"></path><path d="M582.12,71.42S414.8-28.42,342.52,223.29c-11.91,45.07,1.7,92.69,50.17,101.2s87.95-79.18,87.95-79.18" class="cls-9"></path><path d="M629.79,209s11.74,35.51,0,124" class="cls-9"></path><path d="M679.21,343.47c28.84-85.62-5.78-183.68-5.78-183.68" class="cls-9"></path><path d="M521.91,285.4s10.16,47.24,0,73.36" class="cls-9"></path><path d="M572.93,268.16s11.34,37.31-.26,75.31" class="cls-9"></path><circle r="84.7" cy="592.92" cx="425.57" class="cls-9"></circle><circle r="117.92" cy="592.92" cx="425.57" class="cls-9"></circle><ellipse transform="translate(-141.34 673.76) rotate(-60)" ry="35.39" rx="17.62" cy="459.29" cx="512.82" class="cls-9"></ellipse><ellipse transform="translate(-139.12 383.4) rotate(-30)" ry="17.62" rx="50.96" cy="451.3" cx="645.88" class="cls-9"></ellipse><polyline points="324.12 653.05 324.12 698.88 348.28 738.36 300.65 738.36 324.12 698.88" class="cls-9"></polyline><path d="M543.14,583.81s24.66-11.9,47.21,4c18.79,13.19,3.41,23.81-5.65,17.74,0,0-26.58-14.9-41.93.41" class="cls-9"></path><path d="M340.87,951.73c11.87-66.87,64.4-115.88,135.16-128.29A165.91,165.91,0,0,1,613,861" class="cls-9"></path><path d="M670.2,970.5c6.33,87.22-48.39,165-136.69,180.49-60.78,10.66-113.64-12.17-152.4-52.59" class="cls-9"></path><path d="M613,861,783.91,744.8a37.53,37.53,0,0,1,52,9.92,37.52,37.52,0,0,1-9.92,52l-62.71,42.61" class="cls-9"></path><path d="M345.11,940.68s38-18.43,85.65,19,62.11,50.17,97,34.86,60-32.5,85.26-26,45.7,14.76,57.6,6.26" class="cls-9"></path><circle r="9.3" cy="1027.64" cx="419.87" class="cls-10"></circle><circle r="19.88" cy="1051.83" cx="530.14" class="cls-10"></circle><circle r="6.16" cy="1077.87" cx="504.1" class="cls-10"></circle><circle r="8.56" cy="1026.9" cx="590.7" class="cls-10"></circle><circle r="13.99" cy="1085.7" cx="449.09" class="cls-10"></circle><circle r="13.99" cy="1071.71" cx="550.03" class="cls-10"></circle><path d="M455,391.65s-40.36-42.57-90.54-25.56-72.28,52.73-85.89,79.09-37.41,63.05-62.08,79.08c-15.3,10-66.52,60.64-55.27,90.47C175.65,653.06,205,672.7,270,670.6" class="cls-11"></path><path d="M778.16,397.05s29.33-49.67,81.2-22.46,91,82.49,110.55,106.3S1026,563.35,1049,579.52s48.47,61.39,3.4,91.08S973,703.88,943.81,695.71,857.61,629,850,579.52c-6.56-42.65-32.19-109.28-67.57-142.85C765.41,420.52,778.16,397.05,778.16,397.05Z" class="cls-11"></path><path d="M922.41,829.8S981.82,859,964,936.14,905.58,1032,842.32,1032c-64.6,0-118.17-35.72-118.17-35.72s71.43-115.65,77.39-149.67c0,0,77.38,23,102.89,15.31" class="cls-9"></path><path d="M728,990s-57.39-9.88-76.54-34.54-7.17-73.27,26.78-97.79c45.92-33.17,95.34-3.4,95.34-3.4" class="cls-9"></path><path d="M800,852.81s-36.73-34.31-46.94-28.36-7.65,17.49-7.65,17.49" class="cls-9"></path><path d="M957.71,958.15s35.16,98.46,3.7,263.44" class="cls-9"></path><path d="M694,1078H862.63c15.31,0-3.68,95.15-84.33,96.85S694,1078,694,1078Z" class="cls-9"></path><path d="M627.36,1100.29s11.72,107.69,0,144.26" class="cls-9"></path><path d="M324.46,852.81C318.51,882.58,348.28,916,348.28,916,300.65,945.36,270,1061.71,270,1061.71s-47.57-9.88-73.93-82.49c-36.57-132.66,122-173.8,122-173.8S300.3,892,429.17,936.14l74.93-46.33s-30,46.33-32.89,100.14" class="cls-9"></path><path d="M449.09,1143.91s-6.33,37.71,0,84.48" class="cls-9"></path><path d="M272.82,1051.83s39.74,63.83,101.7,48.46c46.17-11.46,21.33-37.54,6.16-59.84-32.11-47.18-29.46-54.9-23.7-38.5,0,0,20.21,25.69,31.26,25.69s5.92-26.31-13.72-45-39.32-19.08-31.92-39.28" class="cls-9"></path><path d="M218.93,1023s-48.28,99.92-28.35,221.53" class="cls-9"></path><path d="M613,968.5s-5-37.58-10.28-70" class="cls-9"></path><line y2="978.35" x2="656.09" y1="902.69" x1="607.84" class="cls-9"></line></g><g id="图层_4"><path d="M449.09,890.26s49.73-51,118.46-15.87" class="cls-12"></path><path d="M427.08,912.6c3.22,0,3.22-5,0-5s-3.22,5,0,5Z" class="cls-13"></path><path d="M422,926.57c16.08,0,16.11-25,0-25s-16.12,25,0,25Z" class="cls-13"></path><path d="M641.38,876.22c9.65,0,9.67-15,0-15s-9.67,15,0,15Z" class="cls-13"></path><path d="M697.32,836.64l110-71.43c8.06-5.24.55-18.23-7.58-13l-110,71.43c-8.07,5.24-.56,18.23,7.57,12.95Z" class="cls-13"></path></g></svg>